  0
SECTION
  2
HEADER
  9
$ACADVER
  1
AC1024
  9
$ACADMAINTVER
 70
6
  9
$DWGCODEPAGE
  3
ANSI_1252
  9
$LASTSAVEDBY
  1
ezdxf
  9
$INSBASE
 10
0.0
 20
0.0
 30
0.0
  9
$EXTMIN
 10
1e+20
 20
1e+20
 30
1e+20
  9
$EXTMAX
 10
-1e+20
 20
-1e+20
 30
-1e+20
  9
$LIMMIN
 10
0.0
 20
0.0
  9
$LIMMAX
 10
420.0
 20
297.0
  9
$ORTHOMODE
 70
0
  9
$REGENMODE
 70
1
  9
$FILLMODE
 70
1
  9
$QTEXTMODE
 70
0
  9
$MIRRTEXT
 70
1
  9
$LTSCALE
 40
1.0
  9
$ATTMODE
 70
1
  9
$TEXTSIZE
 40
2.5
  9
$TRACEWID
 40
1.0
  9
$TEXTSTYLE
  7
Standard
  9
$CLAYER
  8
0
  9
$CELTYPE
  6
ByLayer
  9
$CECOLOR
 62
256
  9
$CELTSCALE
 40
1.0
  9
$DISPSILH
 70
0
  9
$DIMSCALE
 40
1.0
  9
$DIMASZ
 40
2.5
  9
$DIMEXO
 40
0.625
  9
$DIMDLI
 40
3.75
  9
$DIMRND
 40
0.0
  9
$DIMDLE
 40
0.0
  9
$DIMEXE
 40
1.25
  9
$DIMTP
 40
0.0
  9
$DIMTM
 40
0.0
  9
$DIMTXT
 40
2.5
  9
$DIMCEN
 40
2.5
  9
$DIMTSZ
 40
0.0
  9
$DIMTOL
 70
0
  9
$DIMLIM
 70
0
  9
$DIMTIH
 70
0
  9
$DIMTOH
 70
0
  9
$DIMSE1
 70
0
  9
$DIMSE2
 70
0
  9
$DIMTAD
 70
1
  9
$DIMZIN
 70
8
  9
$DIMBLK
  1

  9
$DIMASO
 70
1
  9
$DIMSHO
 70
1
  9
$DIMPOST
  1

  9
$DIMAPOST
  1

  9
$DIMALT
 70
0
  9
$DIMALTD
 70
3
  9
$DIMALTF
 40
0.03937007874
  9
$DIMLFAC
 40
1.0
  9
$DIMTOFL
 70
1
  9
$DIMTVP
 40
0.0
  9
$DIMTIX
 70
0
  9
$DIMSOXD
 70
0
  9
$DIMSAH
 70
0
  9
$DIMBLK1
  1

  9
$DIMBLK2
  1

  9
$DIMSTYLE
  2
ISO-25
  9
$DIMCLRD
 70
0
  9
$DIMCLRE
 70
0
  9
$DIMCLRT
 70
0
  9
$DIMTFAC
 40
1.0
  9
$DIMGAP
 40
0.625
  9
$DIMJUST
 70
0
  9
$DIMSD1
 70
0
  9
$DIMSD2
 70
0
  9
$DIMTOLJ
 70
0
  9
$DIMTZIN
 70
8
  9
$DIMALTZ
 70
0
  9
$DIMALTTZ
 70
0
  9
$DIMUPT
 70
0
  9
$DIMDEC
 70
2
  9
$DIMTDEC
 70
2
  9
$DIMALTU
 70
2
  9
$DIMALTTD
 70
3
  9
$DIMTXSTY
  7
Standard
  9
$DIMAUNIT
 70
0
  9
$DIMADEC
 70
0
  9
$DIMALTRND
 40
0.0
  9
$DIMAZIN
 70
0
  9
$DIMDSEP
 70
44
  9
$DIMATFIT
 70
3
  9
$DIMFRAC
 70
0
  9
$DIMLDRBLK
  1

  9
$DIMLUNIT
 70
2
  9
$DIMLWD
 70
-2
  9
$DIMLWE
 70
-2
  9
$DIMTMOVE
 70
0
  9
$DIMFXL
 40
1.0
  9
$DIMFXLON
 70
0
  9
$DIMJOGANG
 40
0.785398163397
  9
$DIMTFILL
 70
0
  9
$DIMTFILLCLR
 70
0
  9
$DIMARCSYM
 70
0
  9
$DIMLTYPE
  6

  9
$DIMLTEX1
  6

  9
$DIMLTEX2
  6

  9
$DIMTXTDIRECTION
 70
0
  9
$LUNITS
 70
2
  9
$LUPREC
 70
4
  9
$SKETCHINC
 40
1.0
  9
$FILLETRAD
 40
10.0
  9
$AUNITS
 70
0
  9
$AUPREC
 70
2
  9
$MENU
  1
.
  9
$ELEVATION
 40
0.0
  9
$PELEVATION
 40
0.0
  9
$THICKNESS
 40
0.0
  9
$LIMCHECK
 70
0
  9
$CHAMFERA
 40
0.0
  9
$CHAMFERB
 40
0.0
  9
$CHAMFERC
 40
0.0
  9
$CHAMFERD
 40
0.0
  9
$SKPOLY
 70
0
  9
$TDCREATE
 40
2460981.9861689815
  9
$TDUCREATE
 40
2458532.153996898
  9
$TDUPDATE
 40
2460981.9861689815
  9
$TDUUPDATE
 40
2458532.1544311
  9
$TDINDWG
 40
0.0
  9
$TDUSRTIMER
 40
0.0
  9
$USRTIMER
 70
1
  9
$ANGBASE
 50
0.0
  9
$ANGDIR
 70
0
  9
$PDMODE
 70
0
  9
$PDSIZE
 40
0.0
  9
$PLINEWID
 40
0.0
  9
$SPLFRAME
 70
0
  9
$SPLINETYPE
 70
6
  9
$SPLINESEGS
 70
8
  9
$HANDSEED
  5
39D
  9
$SURFTAB1
 70
6
  9
$SURFTAB2
 70
6
  9
$SURFTYPE
 70
6
  9
$SURFU
 70
6
  9
$SURFV
 70
6
  9
$UCSBASE
  2

  9
$UCSNAME
  2

  9
$UCSORG
 10
0.0
 20
0.0
 30
0.0
  9
$UCSXDIR
 10
1.0
 20
0.0
 30
0.0
  9
$UCSYDIR
 10
0.0
 20
1.0
 30
0.0
  9
$UCSORTHOREF
  2

  9
$UCSORTHOVIEW
 70
0
  9
$UCSORGTOP
 10
0.0
 20
0.0
 30
0.0
  9
$UCSORGBOTTOM
 10
0.0
 20
0.0
 30
0.0
  9
$UCSORGLEFT
 10
0.0
 20
0.0
 30
0.0
  9
$UCSORGRIGHT
 10
0.0
 20
0.0
 30
0.0
  9
$UCSORGFRONT
 10
0.0
 20
0.0
 30
0.0
  9
$UCSORGBACK
 10
0.0
 20
0.0
 30
0.0
  9
$PUCSBASE
  2

  9
$PUCSNAME
  2

  9
$PUCSORG
 10
0.0
 20
0.0
 30
0.0
  9
$PUCSXDIR
 10
1.0
 20
0.0
 30
0.0
  9
$PUCSYDIR
 10
0.0
 20
1.0
 30
0.0
  9
$PUCSORTHOREF
  2

  9
$PUCSORTHOVIEW
 70
0
  9
$PUCSORGTOP
 10
0.0
 20
0.0
 30
0.0
  9
$PUCSORGBOTTOM
 10
0.0
 20
0.0
 30
0.0
  9
$PUCSORGLEFT
 10
0.0
 20
0.0
 30
0.0
  9
$PUCSORGRIGHT
 10
0.0
 20
0.0
 30
0.0
  9
$PUCSORGFRONT
 10
0.0
 20
0.0
 30
0.0
  9
$PUCSORGBACK
 10
0.0
 20
0.0
 30
0.0
  9
$USERI1
 70
0
  9
$USERI2
 70
0
  9
$USERI3
 70
0
  9
$USERI4
 70
0
  9
$USERI5
 70
0
  9
$USERR1
 40
0.0
  9
$USERR2
 40
0.0
  9
$USERR3
 40
0.0
  9
$USERR4
 40
0.0
  9
$USERR5
 40
0.0
  9
$WORLDVIEW
 70
1
  9
$SHADEDGE
 70
3
  9
$SHADEDIF
 70
70
  9
$TILEMODE
 70
1
  9
$MAXACTVP
 70
64
  9
$PINSBASE
 10
0.0
 20
0.0
 30
0.0
  9
$PLIMCHECK
 70
0
  9
$PEXTMIN
 10
1e+20
 20
1e+20
 30
1e+20
  9
$PEXTMAX
 10
-1e+20
 20
-1e+20
 30
-1e+20
  9
$PLIMMIN
 10
0.0
 20
0.0
  9
$PLIMMAX
 10
420.0
 20
297.0
  9
$UNITMODE
 70
0
  9
$VISRETAIN
 70
1
  9
$PLINEGEN
 70
0
  9
$PSLTSCALE
 70
1
  9
$TREEDEPTH
 70
3020
  9
$CMLSTYLE
  2
Standard
  9
$CMLJUST
 70
0
  9
$CMLSCALE
 40
20.0
  9
$PROXYGRAPHICS
 70
1
  9
$MEASUREMENT
 70
1
  9
$CELWEIGHT
370
-1
  9
$ENDCAPS
280
0
  9
$JOINSTYLE
280
0
  9
$LWDISPLAY
290
0
  9
$INSUNITS
 70
6
  9
$HYPERLINKBASE
  1

  9
$STYLESHEET
  1

  9
$XEDIT
290
1
  9
$CEPSNTYPE
380
0
  9
$PSTYLEMODE
290
1
  9
$FINGERPRINTGUID
  2
{6E5164A9-0008-49D8-A5B6-902C4937B4D8}
  9
$VERSIONGUID
  2
{54CEFDBB-E0E9-499E-A6DB-4FD07B71385E}
  9
$EXTNAMES
290
1
  9
$PSVPSCALE
 40
0.0
  9
$OLESTARTUP
290
0
  9
$SORTENTS
280
127
  9
$INDEXCTL
280
0
  9
$HIDETEXT
280
1
  9
$XCLIPFRAME
280
1
  9
$HALOGAP
280
0
  9
$OBSCOLOR
 70
257
  9
$OBSLTYPE
280
0
  9
$INTERSECTIONDISPLAY
280
0
  9
$INTERSECTIONCOLOR
 70
257
  9
$DIMASSOC
280
2
  9
$PROJECTNAME
  1

  9
$CAMERADISPLAY
290
0
  9
$LENSLENGTH
 40
50.0
  9
$CAMERAHEIGHT
 40
0.0
  9
$STEPSPERSEC
 40
24.0
  9
$STEPSIZE
 40
100.0
  9
$3DDWFPREC
 40
2.0
  9
$PSOLWIDTH
 40
0.005
  9
$PSOLHEIGHT
 40
0.08
  9
$LOFTANG1
 40
1.570796326795
  9
$LOFTANG2
 40
1.570796326795
  9
$LOFTMAG1
 40
0.0
  9
$LOFTMAG2
 40
0.0
  9
$LOFTPARAM
 70
7
  9
$LOFTNORMALS
280
1
  9
$LATITUDE
 40
37.795
  9
$LONGITUDE
 40
-122.394
  9
$NORTHDIRECTION
 40
0.0
  9
$TIMEZONE
 70
-8000
  9
$LIGHTGLYPHDISPLAY
280
1
  9
$TILEMODELIGHTSYNCH
280
1
  9
$CMATERIAL
347
20
  9
$SOLIDHIST
280
0
  9
$SHOWHIST
280
1
  9
$DWFFRAME
280
2
  9
$DGNFRAME
280
2
  9
$REALWORLDSCALE
290
1
  9
$INTERFERECOLOR
 62
256
  9
$CSHADOW
280
0
  9
$SHADOWPLANELOCATION
 40
0.0
  0
ENDSEC
  0
SECTION
  2
CLASSES
  0
CLASS
  1
ACDBDICTIONARYWDFLT
  2
AcDbDictionaryWithDefault
  3
ObjectDBX Classes
 90
0
 91
0
280
0
281
0
  0
CLASS
  1
SUN
  2
AcDbSun
  3
SCENEOE
 90
1153
 91
0
280
0
281
0
  0
CLASS
  1
VISUALSTYLE
  2
AcDbVisualStyle
  3
ObjectDBX Classes
 90
4095
 91
0
280
0
281
0
  0
CLASS
  1
MATERIAL
  2
AcDbMaterial
  3
ObjectDBX Classes
 90
1153
 91
0
280
0
281
0
  0
CLASS
  1
SCALE
  2
AcDbScale
  3
ObjectDBX Classes
 90
1153
 91
0
280
0
281
0
  0
CLASS
  1
TABLESTYLE
  2
AcDbTableStyle
  3
ObjectDBX Classes
 90
4095
 91
0
280
0
281
0
  0
CLASS
  1
MLEADERSTYLE
  2
AcDbMLeaderStyle
  3
ACDB_MLEADERSTYLE_CLASS
 90
4095
 91
0
280
0
281
0
  0
CLASS
  1
DICTIONARYVAR
  2
AcDbDictionaryVar
  3
ObjectDBX Classes
 90
0
 91
0
280
0
281
0
  0
CLASS
  1
CELLSTYLEMAP
  2
AcDbCellStyleMap
  3
ObjectDBX Classes
 90
1152
 91
0
280
0
281
0
  0
CLASS
  1
MENTALRAYRENDERSETTINGS
  2
AcDbMentalRayRenderSettings
  3
SCENEOE
 90
1024
 91
0
280
0
281
0
  0
CLASS
  1
ACDBDETAILVIEWSTYLE
  2
AcDbDetailViewStyle
  3
ObjectDBX Classes
 90
1025
 91
0
280
0
281
0
  0
CLASS
  1
ACDBSECTIONVIEWSTYLE
  2
AcDbSectionViewStyle
  3
ObjectDBX Classes
 90
1025
 91
0
280
0
281
0
  0
CLASS
  1
RASTERVARIABLES
  2
AcDbRasterVariables
  3
ISM
 90
0
 91
0
280
0
281
0
  0
CLASS
  1
ACDBPLACEHOLDER
  2
AcDbPlaceHolder
  3
ObjectDBX Classes
 90
0
 91
0
280
0
281
0
  0
CLASS
  1
LAYOUT
  2
AcDbLayout
  3
ObjectDBX Classes
 90
0
 91
0
280
0
281
0
  0
ENDSEC
  0
SECTION
  2
TABLES
  0
TABLE
  2
VPORT
  5
8
330
0
100
AcDbSymbolTable
 70
1
  0
VPORT
  5
23
330
8
100
AcDbSymbolTableRecord
100
AcDbViewportTableRecord
  2
*Active
 70
0
 10
0.0
 20
0.0
 11
1.0
 21
1.0
 12
0.0
 22
0.0
 13
0.0
 23
0.0
 14
0.5
 24
0.5
 15
0.5
 25
0.5
 16
0.0
 26
0.0
 36
1.0
 17
0.0
 27
0.0
 37
0.0
 40
1000.0
 41
1.34
 42
50.0
 43
0.0
 44
0.0
 50
0.0
 51
0.0
 71
0
 72
1000
 73
1
 74
3
 75
0
 76
0
 77
0
 78
0
281
0
 65
0
146
0.0
  0
ENDTAB
  0
TABLE
  2
LTYPE
  5
2
330
0
100
AcDbSymbolTable
 70
3
  0
LTYPE
  5
24
330
2
100
AcDbSymbolTableRecord
100
AcDbLinetypeTableRecord
  2
ByBlock
 70
0
  3

 72
65
 73
0
 40
0.0
  0
LTYPE
  5
25
330
2
100
AcDbSymbolTableRecord
100
AcDbLinetypeTableRecord
  2
ByLayer
 70
0
  3

 72
65
 73
0
 40
0.0
  0
LTYPE
  5
26
330
2
100
AcDbSymbolTableRecord
100
AcDbLinetypeTableRecord
  2
Continuous
 70
0
  3

 72
65
 73
0
 40
0.0
  0
ENDTAB
  0
TABLE
  2
LAYER
  5
1
330
0
100
AcDbSymbolTable
 70
4
  0
LAYER
  5
27
330
1
100
AcDbSymbolTableRecord
100
AcDbLayerTableRecord
  2
0
 70
0
 62
7
  6
Continuous
370
-3
390
13
347
21
  0
LAYER
  5
28
330
1
100
AcDbSymbolTableRecord
100
AcDbLayerTableRecord
  2
Defpoints
 70
0
 62
7
  6
Continuous
290
0
370
-3
390
13
347
21
  0
LAYER
  5
2F
330
1
100
AcDbSymbolTableRecord
100
AcDbLayerTableRecord
  2
WALLS
 70
0
 62
1
  6
Continuous
370
-3
390
13
347
21
  0
LAYER
  5
30
330
1
100
AcDbSymbolTableRecord
100
AcDbLayerTableRecord
  2
INFO
 70
0
 62
7
  6
Continuous
370
-3
390
13
347
21
  0
ENDTAB
  0
TABLE
  2
STYLE
  5
5
330
0
100
AcDbSymbolTable
 70
1
  0
STYLE
  5
29
330
5
100
AcDbSymbolTableRecord
100
AcDbTextStyleTableRecord
  2
Standard
 70
0
 40
0.0
 41
1.0
 50
0.0
 71
0
 42
2.5
  3
txt
  4

  0
ENDTAB
  0
TABLE
  2
VIEW
  5
7
330
0
100
AcDbSymbolTable
 70
0
  0
ENDTAB
  0
TABLE
  2
UCS
  5
6
330
0
100
AcDbSymbolTable
 70
0
  0
ENDTAB
  0
TABLE
  2
APPID
  5
3
330
0
100
AcDbSymbolTable
 70
3
  0
APPID
  5
2A
330
3
100
AcDbSymbolTableRecord
100
AcDbRegAppTableRecord
  2
ACAD
 70
0
  0
APPID
  5
39A
330
3
100
AcDbSymbolTableRecord
100
AcDbRegAppTableRecord
  2
HATCHBACKGROUNDCOLOR
 70
0
  0
APPID
  5
39B
330
3
100
AcDbSymbolTableRecord
100
AcDbRegAppTableRecord
  2
EZDXF
 70
0
  0
ENDTAB
  0
TABLE
  2
DIMSTYLE
  5
4
330
0
100
AcDbSymbolTable
 70
1
100
AcDbDimStyleTable
  0
DIMSTYLE
105
2B
330
4
100
AcDbSymbolTableRecord
100
AcDbDimStyleTableRecord
  2
Standard
 70
0
 40
1.0
 41
2.5
 42
0.625
 43
3.75
 44
1.25
 45
0.0
 46
0.0
 47
0.0
 48
0.0
 49
2.5
140
2.5
141
2.5
142
0.0
143
0.03937007874
144
1.0
145
0.0
146
1.0
147
0.625
148
0.0
 69
0
 70
0
 71
0
 72
0
 73
0
 74
0
 75
0
 76
0
 77
1
 78
8
 79
3
170
0
171
3
172
1
173
0
174
0
175
0
176
0
177
0
178
0
179
2
271
2
272
2
273
2
274
3
275
0
276
0
277
2
278
44
279
0
280
0
281
0
282
0
283
0
284
8
285
0
286
0
288
0
289
3
290
0
371
-2
372
-2
  0
ENDTAB
  0
TABLE
  2
BLOCK_RECORD
  5
9
330
0
100
AcDbSymbolTable
 70
2
  0
BLOCK_RECORD
  5
17
330
9
100
AcDbSymbolTableRecord
100
AcDbBlockTableRecord
  2
*Model_Space
340
1A
 70
0
280
1
281
0
  0
BLOCK_RECORD
  5
1B
330
9
100
AcDbSymbolTableRecord
100
AcDbBlockTableRecord
  2
*Paper_Space
340
1E
 70
0
280
1
281
0
  0
ENDTAB
  0
ENDSEC
  0
SECTION
  2
BLOCKS
  0
BLOCK
  5
18
330
17
100
AcDbEntity
  8
0
100
AcDbBlockBegin
  2
*Model_Space
 70
0
 10
0.0
 20
0.0
 30
0.0
  3
*Model_Space
  1

  0
ENDBLK
  5
19
330
17
100
AcDbEntity
  8
0
100
AcDbBlockEnd
  0
BLOCK
  5
1C
330
1B
100
AcDbEntity
  8
0
100
AcDbBlockBegin
  2
*Paper_Space
 70
0
 10
0.0
 20
0.0
 30
0.0
  3
*Paper_Space
  1

  0
ENDBLK
  5
1D
330
1B
100
AcDbEntity
  8
0
100
AcDbBlockEnd
  0
ENDSEC
  0
SECTION
  2
ENTITIES
  0
TEXT
  5
31
330
17
100
AcDbEntity
  8
INFO
100
AcDbText
 10
100.0
 20
7100.0
 30
0.0
 40
48.0
  1
728 CORDANT - AI EXTRACTED WALLS
100
AcDbText
  0
TEXT
  5
32
330
17
100
AcDbEntity
  8
INFO
100
AcDbText
 10
100.0
 20
7050.0
 30
0.0
 40
24.0
  1
Extracted 871 wall lines from blueprint
100
AcDbText
  0
LINE
  5
33
330
17
100
AcDbEntity
  8
WALLS
100
AcDbLine
 10
374.0
 20
7014.0
 30
0.0
 11
9830.0
 21
7013.0
 31
0.0
  0
LINE
  5
34
330
17
100
AcDbEntity
  8
WALLS
100
AcDbLine
 10
9900.0
 20
7016.0
 30
0.0
 11
10618.0
 21
7013.0
 31
0.0
  0
LINE
  5
35
330
17
100
AcDbEntity
  8
WALLS
100
AcDbLine
 10
374.0
 20
113.0
 30
0.0
 11
9831.0
 21
111.0
 31
0.0
  0
LINE
  5
36
330
17
100
AcDbEntity
  8
WALLS
100
AcDbLine
 10
9901.0
 20
115.0
 30
0.0
 11
10618.0
 21
112.0
 31
0.0
  0
LINE
  5
37
330
17
100
AcDbEntity
  8
WALLS
100
AcDbLine
 10
9825.0
 20
7013.0
 30
0.0
 11
9831.0
 21
111.0
 31
0.0
  0
LINE
  5
38
330
17
100
AcDbEntity
  8
WALLS
100
AcDbLine
 10
9900.0
 20
6229.0
 30
0.0
 11
9905.0
 21
110.0
 31
0.0
  0
LINE
  5
39
330
17
100
AcDbEntity
  8
WALLS
100
AcDbLine
 10
10614.0
 20
6229.0
 30
0.0
 11
10618.0
 21
110.0
 31
0.0
  0
LINE
  5
3A
330
17
100
AcDbEntity
  8
WALLS
100
AcDbLine
 10
377.0
 20
7013.0
 30
0.0
 11
379.0
 21
111.0
 31
0.0
  0
LINE
  5
3B
330
17
100
AcDbEntity
  8
WALLS
100
AcDbLine
 10
10614.0
 20
7016.0
 30
0.0
 11
10618.0
 21
6298.0
 31
0.0
  0
LINE
  5
3C
330
17
100
AcDbEntity
  8
WALLS
100
AcDbLine
 10
9901.0
 20
7016.0
 30
0.0
 11
9905.0
 21
6298.0
 31
0.0
  0
LINE
  5
3D
330
17
100
AcDbEntity
  8
WALLS
100
AcDbLine
 10
643.0
 20
7013.0
 30
0.0
 11
4309.0
 21
3348.0
 31
0.0
  0
LINE
  5
3E
330
17
100
AcDbEntity
  8
WALLS
100
AcDbLine
 10
1568.0
 20
1098.0
 30
0.0
 11
9116.0
 21
1097.0
 31
0.0
  0
LINE
  5
3F
330
17
100
AcDbEntity
  8
WALLS
100
AcDbLine
 10
1816.0
 20
4460.0
 30
0.0
 11
2117.0
 21
4159.0
 31
0.0
  0
LINE
  5
40
330
17
100
AcDbEntity
  8
WALLS
100
AcDbLine
 10
5285.0
 20
2264.0
 30
0.0
 11
9116.0
 21
2263.0
 31
0.0
  0
LINE
  5
41
330
17
100
AcDbEntity
  8
WALLS
100
AcDbLine
 10
3184.0
 20
6398.0
 30
0.0
 11
5379.0
 21
4203.0
 31
0.0
  0
LINE
  5
42
330
17
100
AcDbEntity
  8
WALLS
100
AcDbLine
 10
5286.0
 20
2311.0
 30
0.0
 11
9115.0
 21
2311.0
 31
0.0
  0
LINE
  5
43
330
17
100
AcDbEntity
  8
WALLS
100
AcDbLine
 10
1236.0
 20
2310.0
 30
0.0
 11
3705.0
 21
2310.0
 31
0.0
  0
LINE
  5
44
330
17
100
AcDbEntity
  8
WALLS
100
AcDbLine
 10
2519.0
 20
5820.0
 30
0.0
 11
3432.0
 21
4923.0
 31
0.0
  0
LINE
  5
45
330
17
100
AcDbEntity
  8
WALLS
100
AcDbLine
 10
4223.0
 20
6053.0
 30
0.0
 11
4991.0
 21
5285.0
 31
0.0
  0
LINE
  5
46
330
17
100
AcDbEntity
  8
WALLS
100
AcDbLine
 10
6571.0
 20
1336.0
 30
0.0
 11
7539.0
 21
1335.0
 31
0.0
  0
LINE
  5
47
330
17
100
AcDbEntity
  8
WALLS
100
AcDbLine
 10
2951.0
 20
1337.0
 30
0.0
 11
5106.0
 21
1336.0
 31
0.0
  0
LINE
  5
48
330
17
100
AcDbEntity
  8
WALLS
100
AcDbLine
 10
7509.0
 20
1363.0
 30
0.0
 11
9116.0
 21
1362.0
 31
0.0
  0
LINE
  5
49
330
17
100
AcDbEntity
  8
WALLS
100
AcDbLine
 10
2207.0
 20
3215.0
 30
0.0
 11
2784.0
 21
3792.0
 31
0.0
  0
LINE
  5
4A
330
17
100
AcDbEntity
  8
WALLS
100
AcDbLine
 10
4049.0
 20
1335.0
 30
0.0
 11
4633.0
 21
1324.0
 31
0.0
  0
LINE
  5
4B
330
17
100
AcDbEntity
  8
WALLS
100
AcDbLine
 10
3753.0
 20
1379.0
 30
0.0
 11
5055.0
 21
1378.0
 31
0.0
  0
LINE
  5
4C
330
17
100
AcDbEntity
  8
WALLS
100
AcDbLine
 10
5989.0
 20
4006.0
 30
0.0
 11
6789.0
 21
3206.0
 31
0.0
  0
LINE
  5
4D
330
17
100
AcDbEntity
  8
WALLS
100
AcDbLine
 10
7539.0
 20
3270.0
 30
0.0
 11
7539.0
 21
3853.0
 31
0.0
  0
LINE
  5
4E
330
17
100
AcDbEntity
  8
WALLS
100
AcDbLine
 10
7510.0
 20
1341.0
 30
0.0
 11
9116.0
 21
1340.0
 31
0.0
  0
LINE
  5
4F
330
17
100
AcDbEntity
  8
WALLS
100
AcDbLine
 10
1813.0
 20
7013.0
 30
0.0
 11
4055.0
 21
4771.0
 31
0.0
  0
LINE
  5
50
330
17
100
AcDbEntity
  8
WALLS
100
AcDbLine
 10
4729.0
 20
5406.0
 30
0.0
 11
5682.0
 21
4452.0
 31
0.0
  0
LINE
  5
51
330
17
100
AcDbEntity
  8
WALLS
100
AcDbLine
 10
5195.0
 20
4867.0
 30
0.0
 11
6818.0
 21
3237.0
 31
0.0
  0
LINE
  5
52
330
17
100
AcDbEntity
  8
WALLS
100
AcDbLine
 10
2802.0
 20
4181.0
 30
0.0
 11
3160.0
 21
3822.0
 31
0.0
  0
LINE
  5
53
330
17
100
AcDbEntity
  8
WALLS
100
AcDbLine
 10
5451.0
 20
4407.0
 30
0.0
 11
6390.0
 21
3468.0
 31
0.0
  0
LINE
  5
54
330
17
100
AcDbEntity
  8
WALLS
100
AcDbLine
 10
744.0
 20
167.0
 30
0.0
 11
2445.0
 21
166.0
 31
0.0
  0
LINE
  5
55
330
17
100
AcDbEntity
  8
WALLS
100
AcDbLine
 10
4134.0
 20
3208.0
 30
0.0
 11
4980.0
 21
3208.0
 31
0.0
  0
LINE
  5
56
330
17
100
AcDbEntity
  8
WALLS
100
AcDbLine
 10
3759.0
 20
6314.0
 30
0.0
 11
3910.0
 21
6163.0
 31
0.0
  0
LINE
  5
57
330
17
100
AcDbEntity
  8
WALLS
100
AcDbLine
 10
4033.0
 20
7010.0
 30
0.0
 11
4991.0
 21
6052.0
 31
0.0
  0
LINE
  5
58
330
17
100
AcDbEntity
  8
WALLS
100
AcDbLine
 10
4351.0
 20
6737.0
 30
0.0
 11
5713.0
 21
5375.0
 31
0.0
  0
LINE
  5
59
330
17
100
AcDbEntity
  8
WALLS
100
AcDbLine
 10
7484.0
 20
3207.0
 30
0.0
 11
7486.0
 21
1367.0
 31
0.0
  0
LINE
  5
5A
330
17
100
AcDbEntity
  8
WALLS
100
AcDbLine
 10
4085.0
 20
5043.0
 30
0.0
 11
4670.0
 21
4459.0
 31
0.0
  0
LINE
  5
5B
330
17
100
AcDbEntity
  8
WALLS
100
AcDbLine
 10
4333.0
 20
5457.0
 30
0.0
 11
4656.0
 21
5134.0
 31
0.0
  0
LINE
  5
5C
330
17
100
AcDbEntity
  8
WALLS
100
AcDbLine
 10
9115.0
 20
3478.0
 30
0.0
 11
9116.0
 21
1099.0
 31
0.0
  0
LINE
  5
5D
330
17
100
AcDbEntity
  8
WALLS
100
AcDbLine
 10
7538.0
 20
3250.0
 30
0.0
 11
7539.0
 21
1335.0
 31
0.0
  0
LINE
  5
5E
330
17
100
AcDbEntity
  8
WALLS
100
AcDbLine
 10
1813.0
 20
4809.0
 30
0.0
 11
2780.0
 21
3843.0
 31
0.0
  0
LINE
  5
5F
330
17
100
AcDbEntity
  8
WALLS
100
AcDbLine
 10
3703.0
 20
3038.0
 30
0.0
 11
3704.0
 21
1378.0
 31
0.0
  0
LINE
  5
60
330
17
100
AcDbEntity
  8
WALLS
100
AcDbLine
 10
6914.0
 20
3478.0
 30
0.0
 11
9114.0
 21
3459.0
 31
0.0
  0
LINE
  5
61
330
17
100
AcDbEntity
  8
WALLS
100
AcDbLine
 10
8930.0
 20
3235.0
 30
0.0
 11
8949.0
 21
2310.0
 31
0.0
  0
LINE
  5
62
330
17
100
AcDbEntity
  8
WALLS
100
AcDbLine
 10
2140.0
 20
5098.0
 30
0.0
 11
2756.0
 21
4481.0
 31
0.0
  0
LINE
  5
63
330
17
100
AcDbEntity
  8
WALLS
100
AcDbLine
 10
7078.0
 20
5108.0
 30
0.0
 11
7186.0
 21
5105.0
 31
0.0
  0
LINE
  5
64
330
17
100
AcDbEntity
  8
WALLS
100
AcDbLine
 10
3715.0
 20
624.0
 30
0.0
 11
4857.0
 21
623.0
 31
0.0
  0
LINE
  5
65
330
17
100
AcDbEntity
  8
WALLS
100
AcDbLine
 10
3722.0
 20
4415.0
 30
0.0
 11
4692.0
 21
3445.0
 31
0.0
  0
LINE
  5
66
330
17
100
AcDbEntity
  8
WALLS
100
AcDbLine
 10
8670.0
 20
5110.0
 30
0.0
 11
8909.0
 21
5109.0
 31
0.0
  0
LINE
  5
67
330
17
100
AcDbEntity
  8
WALLS
100
AcDbLine
 10
5054.0
 20
2485.0
 30
0.0
 11
5055.0
 21
1380.0
 31
0.0
  0
LINE
  5
68
330
17
100
AcDbEntity
  8
WALLS
100
AcDbLine
 10
4005.0
 20
5637.0
 30
0.0
 11
4130.0
 21
5511.0
 31
0.0
  0
LINE
  5
69
330
17
100
AcDbEntity
  8
WALLS
100
AcDbLine
 10
5533.0
 20
4868.0
 30
0.0
 11
6924.0
 21
3477.0
 31
0.0
  0
LINE
  5
6A
330
17
100
AcDbEntity
  8
WALLS
100
AcDbLine
 10
8105.0
 20
5147.0
 30
0.0
 11
8263.0
 21
5147.0
 31
0.0
  0
LINE
  5
6B
330
17
100
AcDbEntity
  8
WALLS
100
AcDbLine
 10
3733.0
 20
560.0
 30
0.0
 11
4919.0
 21
559.0
 31
0.0
  0
LINE
  5
6C
330
17
100
AcDbEntity
  8
WALLS
100
AcDbLine
 10
7585.0
 20
5132.0
 30
0.0
 11
7693.0
 21
5132.0
 31
0.0
  0
LINE
  5
6D
330
17
100
AcDbEntity
  8
WALLS
100
AcDbLine
 10
3145.0
 20
4810.0
 30
0.0
 11
3348.0
 21
4607.0
 31
0.0
  0
LINE
  5
6E
330
17
100
AcDbEntity
  8
WALLS
100
AcDbLine
 10
8930.0
 20
2262.0
 30
0.0
 11
8931.0
 21
1340.0
 31
0.0
  0
LINE
  5
6F
330
17
100
AcDbEntity
  8
WALLS
100
AcDbLine
 10
7509.0
 20
3234.0
 30
0.0
 11
9114.0
 21
3233.0
 31
0.0
  0
LINE
  5
70
330
17
100
AcDbEntity
  8
WALLS
100
AcDbLine
 10
4682.0
 20
5815.0
 30
0.0
 11
5016.0
 21
5477.0
 31
0.0
  0
LINE
  5
71
330
17
100
AcDbEntity
  8
WALLS
100
AcDbLine
 10
7885.0
 20
5103.0
 30
0.0
 11
8067.0
 21
5100.0
 31
0.0
  0
LINE
  5
72
330
17
100
AcDbEntity
  8
WALLS
100
AcDbLine
 10
738.0
 20
4177.0
 30
0.0
 11
1798.0
 21
3119.0
 31
0.0
  0
LINE
  5
73
330
17
100
AcDbEntity
  8
WALLS
100
AcDbLine
 10
3555.0
 20
5279.0
 30
0.0
 11
4188.0
 21
4645.0
 31
0.0
  0
LINE
  5
74
330
17
100
AcDbEntity
  8
WALLS
100
AcDbLine
 10
1985.0
 20
4592.0
 30
0.0
 11
2759.0
 21
3817.0
 31
0.0
  0
LINE
  5
75
330
17
100
AcDbEntity
  8
WALLS
100
AcDbLine
 10
7535.0
 20
2899.0
 30
0.0
 11
7551.0
 21
1675.0
 31
0.0
  0
LINE
  5
76
330
17
100
AcDbEntity
  8
WALLS
100
AcDbLine
 10
8369.0
 20
750.0
 30
0.0
 11
9668.0
 21
748.0
 31
0.0
  0
LINE
  5
77
330
17
100
AcDbEntity
  8
WALLS
100
AcDbLine
 10
6915.0
 20
3458.0
 30
0.0
 11
9114.0
 21
3458.0
 31
0.0
  0
LINE
  5
78
330
17
100
AcDbEntity
  8
WALLS
100
AcDbLine
 10
1871.0
 20
4370.0
 30
0.0
 11
2006.0
 21
4235.0
 31
0.0
  0
LINE
  5
79
330
17
100
AcDbEntity
  8
WALLS
100
AcDbLine
 10
2757.0
 20
5753.0
 30
0.0
 11
3350.0
 21
5161.0
 31
0.0
  0
LINE
  5
7A
330
17
100
AcDbEntity
  8
WALLS
100
AcDbLine
 10
6249.0
 20
562.0
 30
0.0
 11
6483.0
 21
559.0
 31
0.0
  0
LINE
  5
7B
330
17
100
AcDbEntity
  8
WALLS
100
AcDbLine
 10
10125.0
 20
6779.0
 30
0.0
 11
10135.0
 21
6554.0
 31
0.0
  0
LINE
  5
7C
330
17
100
AcDbEntity
  8
WALLS
100
AcDbLine
 10
5345.0
 20
3203.0
 30
0.0
 11
5807.0
 21
2741.0
 31
0.0
  0
LINE
  5
7D
330
17
100
AcDbEntity
  8
WALLS
100
AcDbLine
 10
7838.0
 20
5155.0
 30
0.0
 11
7971.0
 21
5148.0
 31
0.0
  0
LINE
  5
7E
330
17
100
AcDbEntity
  8
WALLS
100
AcDbLine
 10
7217.0
 20
5119.0
 30
0.0
 11
7372.0
 21
5109.0
 31
0.0
  0
LINE
  5
7F
330
17
100
AcDbEntity
  8
WALLS
100
AcDbLine
 10
1229.0
 20
3239.0
 30
0.0
 11
2164.0
 21
2305.0
 31
0.0
  0
LINE
  5
80
330
17
100
AcDbEntity
  8
WALLS
100
AcDbLine
 10
5105.0
 20
1993.0
 30
0.0
 11
5105.0
 21
2404.0
 31
0.0
  0
LINE
  5
81
330
17
100
AcDbEntity
  8
WALLS
100
AcDbLine
 10
3735.0
 20
2907.0
 30
0.0
 11
4848.0
 21
2906.0
 31
0.0
  0
LINE
  5
82
330
17
100
AcDbEntity
  8
WALLS
100
AcDbLine
 10
2942.0
 20
1500.0
 30
0.0
 11
3732.0
 21
1499.0
 31
0.0
  0
LINE
  5
83
330
17
100
AcDbEntity
  8
WALLS
100
AcDbLine
 10
5878.0
 20
1884.0
 30
0.0
 11
6364.0
 21
1398.0
 31
0.0
  0
LINE
  5
84
330
17
100
AcDbEntity
  8
WALLS
100
AcDbLine
 10
4873.0
 20
3575.0
 30
0.0
 11
5346.0
 21
3103.0
 31
0.0
  0
LINE
  5
85
330
17
100
AcDbEntity
  8
WALLS
100
AcDbLine
 10
5196.0
 20
5375.0
 30
0.0
 11
5711.0
 21
4851.0
 31
0.0
  0
LINE
  5
86
330
17
100
AcDbEntity
  8
WALLS
100
AcDbLine
 10
4252.0
 20
4949.0
 30
0.0
 11
5120.0
 21
4081.0
 31
0.0
  0
LINE
  5
87
330
17
100
AcDbEntity
  8
WALLS
100
AcDbLine
 10
6571.0
 20
1368.0
 30
0.0
 11
7484.0
 21
1367.0
 31
0.0
  0
LINE
  5
88
330
17
100
AcDbEntity
  8
WALLS
100
AcDbLine
 10
4041.0
 20
5084.0
 30
0.0
 11
4284.0
 21
4848.0
 31
0.0
  0
LINE
  5
89
330
17
100
AcDbEntity
  8
WALLS
100
AcDbLine
 10
6739.0
 20
5133.0
 30
0.0
 11
6954.0
 21
5131.0
 31
0.0
  0
LINE
  5
8A
330
17
100
AcDbEntity
  8
WALLS
100
AcDbLine
 10
10321.0
 20
6779.0
 30
0.0
 11
10345.0
 21
6554.0
 31
0.0
  0
LINE
  5
8B
330
17
100
AcDbEntity
  8
WALLS
100
AcDbLine
 10
4422.0
 20
4854.0
 30
0.0
 11
4860.0
 21
4416.0
 31
0.0
  0
LINE
  5
8C
330
17
100
AcDbEntity
  8
WALLS
100
AcDbLine
 10
4292.0
 20
4256.0
 30
0.0
 11
5326.0
 21
3223.0
 31
0.0
  0
LINE
  5
8D
330
17
100
AcDbEntity
  8
WALLS
100
AcDbLine
 10
2187.0
 20
3827.0
 30
0.0
 11
2752.0
 21
3262.0
 31
0.0
  0
LINE
  5
8E
330
17
100
AcDbEntity
  8
WALLS
100
AcDbLine
 10
6769.0
 20
5155.0
 30
0.0
 11
6931.0
 21
5146.0
 31
0.0
  0
LINE
  5
8F
330
17
100
AcDbEntity
  8
WALLS
100
AcDbLine
 10
5515.0
 20
4858.0
 30
0.0
 11
6913.0
 21
3460.0
 31
0.0
  0
LINE
  5
90
330
17
100
AcDbEntity
  8
WALLS
100
AcDbLine
 10
7250.0
 20
5124.0
 30
0.0
 11
7372.0
 21
5116.0
 31
0.0
  0
LINE
  5
91
330
17
100
AcDbEntity
  8
WALLS
100
AcDbLine
 10
3910.0
 20
4043.0
 30
0.0
 11
4335.0
 21
3610.0
 31
0.0
  0
LINE
  5
92
330
17
100
AcDbEntity
  8
WALLS
100
AcDbLine
 10
4799.0
 20
2485.0
 30
0.0
 11
5053.0
 21
2479.0
 31
0.0
  0
LINE
  5
93
330
17
100
AcDbEntity
  8
WALLS
100
AcDbLine
 10
5939.0
 20
3208.0
 30
0.0
 11
7484.0
 21
3207.0
 31
0.0
  0
LINE
  5
94
330
17
100
AcDbEntity
  8
WALLS
100
AcDbLine
 10
7521.0
 20
2889.0
 30
0.0
 11
7525.0
 21
1685.0
 31
0.0
  0
LINE
  5
95
330
17
100
AcDbEntity
  8
WALLS
100
AcDbLine
 10
4061.0
 20
1367.0
 30
0.0
 11
4526.0
 21
1356.0
 31
0.0
  0
LINE
  5
96
330
17
100
AcDbEntity
  8
WALLS
100
AcDbLine
 10
3369.0
 20
5463.0
 30
0.0
 11
4002.0
 21
4830.0
 31
0.0
  0
LINE
  5
97
330
17
100
AcDbEntity
  8
WALLS
100
AcDbLine
 10
2597.0
 20
5594.0
 30
0.0
 11
3190.0
 21
5001.0
 31
0.0
  0
LINE
  5
98
330
17
100
AcDbEntity
  8
WALLS
100
AcDbLine
 10
5370.0
 20
4678.0
 30
0.0
 11
6303.0
 21
3754.0
 31
0.0
  0
LINE
  5
99
330
17
100
AcDbEntity
  8
WALLS
100
AcDbLine
 10
4050.0
 20
1853.0
 30
0.0
 11
4202.0
 21
1853.0
 31
0.0
  0
LINE
  5
9A
330
17
100
AcDbEntity
  8
WALLS
100
AcDbLine
 10
3735.0
 20
1854.0
 30
0.0
 11
4030.0
 21
1853.0
 31
0.0
  0
LINE
  5
9B
330
17
100
AcDbEntity
  8
WALLS
100
AcDbLine
 10
3737.0
 20
1823.0
 30
0.0
 11
3754.0
 21
1380.0
 31
0.0
  0
LINE
  5
9C
330
17
100
AcDbEntity
  8
WALLS
100
AcDbLine
 10
8505.0
 20
5110.0
 30
0.0
 11
8635.0
 21
5110.0
 31
0.0
  0
LINE
  5
9D
330
17
100
AcDbEntity
  8
WALLS
100
AcDbLine
 10
3736.0
 20
2485.0
 30
0.0
 11
4111.0
 21
2484.0
 31
0.0
  0
LINE
  5
9E
330
17
100
AcDbEntity
  8
WALLS
100
AcDbLine
 10
10295.0
 20
6779.0
 30
0.0
 11
10308.0
 21
6554.0
 31
0.0
  0
LINE
  5
9F
330
17
100
AcDbEntity
  8
WALLS
100
AcDbLine
 10
4289.0
 20
7010.0
 30
0.0
 11
5983.0
 21
5316.0
 31
0.0
  0
LINE
  5
A0
330
17
100
AcDbEntity
  8
WALLS
100
AcDbLine
 10
3623.0
 20
3719.0
 30
0.0
 11
4137.0
 21
3206.0
 31
0.0
  0
LINE
  5
A1
330
17
100
AcDbEntity
  8
WALLS
100
AcDbLine
 10
4875.0
 20
2886.0
 30
0.0
 11
5203.0
 21
2558.0
 31
0.0
  0
LINE
  5
A2
330
17
100
AcDbEntity
  8
WALLS
100
AcDbLine
 10
4925.0
 20
2251.0
 30
0.0
 11
4931.0
 21
1377.0
 31
0.0
  0
LINE
  5
A3
330
17
100
AcDbEntity
  8
WALLS
100
AcDbLine
 10
8699.0
 20
5144.0
 30
0.0
 11
8802.0
 21
5146.0
 31
0.0
  0
LINE
  5
A4
330
17
100
AcDbEntity
  8
WALLS
100
AcDbLine
 10
10085.0
 20
6779.0
 30
0.0
 11
10101.0
 21
6554.0
 31
0.0
  0
LINE
  5
A5
330
17
100
AcDbEntity
  8
WALLS
100
AcDbLine
 10
5783.0
 20
2333.0
 30
0.0
 11
5784.0
 21
1294.0
 31
0.0
  0
LINE
  5
A6
330
17
100
AcDbEntity
  8
WALLS
100
AcDbLine
 10
7838.0
 20
5134.0
 30
0.0
 11
7971.0
 21
5124.0
 31
0.0
  0
LINE
  5
A7
330
17
100
AcDbEntity
  8
WALLS
100
AcDbLine
 10
10399.0
 20
6758.0
 30
0.0
 11
10407.0
 21
6601.0
 31
0.0
  0
LINE
  5
A8
330
17
100
AcDbEntity
  8
WALLS
100
AcDbLine
 10
4412.0
 20
4092.0
 30
0.0
 11
5116.0
 21
3388.0
 31
0.0
  0
LINE
  5
A9
330
17
100
AcDbEntity
  8
WALLS
100
AcDbLine
 10
9929.0
 20
6988.0
 30
0.0
 11
9931.0
 21
6327.0
 31
0.0
  0
LINE
  5
AA
330
17
100
AcDbEntity
  8
WALLS
100
AcDbLine
 10
10588.0
 20
6988.0
 30
0.0
 11
10589.0
 21
6327.0
 31
0.0
  0
LINE
  5
AB
330
17
100
AcDbEntity
  8
WALLS
100
AcDbLine
 10
2778.0
 20
4611.0
 30
0.0
 11
3547.0
 21
3843.0
 31
0.0
  0
LINE
  5
AC
330
17
100
AcDbEntity
  8
WALLS
100
AcDbLine
 10
3854.0
 20
3533.0
 30
0.0
 11
4148.0
 21
3239.0
 31
0.0
  0
LINE
  5
AD
330
17
100
AcDbEntity
  8
WALLS
100
AcDbLine
 10
3587.0
 20
6053.0
 30
0.0
 11
3709.0
 21
5931.0
 31
0.0
  0
LINE
  5
AE
330
17
100
AcDbEntity
  8
WALLS
100
AcDbLine
 10
3042.0
 20
1358.0
 30
0.0
 11
3219.0
 21
1356.0
 31
0.0
  0
LINE
  5
AF
330
17
100
AcDbEntity
  8
WALLS
100
AcDbLine
 10
5105.0
 20
1962.0
 30
0.0
 11
5106.0
 21
1335.0
 31
0.0
  0
LINE
  5
B0
330
17
100
AcDbEntity
  8
WALLS
100
AcDbLine
 10
3920.0
 20
4025.0
 30
0.0
 11
4363.0
 21
3582.0
 31
0.0
  0
LINE
  5
B1
330
17
100
AcDbEntity
  8
WALLS
100
AcDbLine
 10
3735.0
 20
3069.0
 30
0.0
 11
3737.0
 21
2485.0
 31
0.0
  0
LINE
  5
B2
330
17
100
AcDbEntity
  8
WALLS
100
AcDbLine
 10
4002.0
 20
1500.0
 30
0.0
 11
4115.0
 21
1500.0
 31
0.0
  0
LINE
  5
B3
330
17
100
AcDbEntity
  8
WALLS
100
AcDbLine
 10
5595.0
 20
3259.0
 30
0.0
 11
5901.0
 21
2954.0
 31
0.0
  0
LINE
  5
B4
330
17
100
AcDbEntity
  8
WALLS
100
AcDbLine
 10
4227.0
 20
5257.0
 30
0.0
 11
4349.0
 21
5135.0
 31
0.0
  0
LINE
  5
B5
330
17
100
AcDbEntity
  8
WALLS
100
AcDbLine
 10
6106.0
 20
4122.0
 30
0.0
 11
6292.0
 21
4308.0
 31
0.0
  0
LINE
  5
B6
330
17
100
AcDbEntity
  8
WALLS
100
AcDbLine
 10
3185.0
 20
4203.0
 30
0.0
 11
3833.0
 21
3554.0
 31
0.0
  0
LINE
  5
B7
330
17
100
AcDbEntity
  8
WALLS
100
AcDbLine
 10
5450.0
 20
4029.0
 30
0.0
 11
5968.0
 21
3512.0
 31
0.0
  0
LINE
  5
B8
330
17
100
AcDbEntity
  8
WALLS
100
AcDbLine
 10
3291.0
 20
4208.0
 30
0.0
 11
3686.0
 21
3811.0
 31
0.0
  0
LINE
  5
B9
330
17
100
AcDbEntity
  8
WALLS
100
AcDbLine
 10
3786.0
 20
6372.0
 30
0.0
 11
3987.0
 21
6152.0
 31
0.0
  0
LINE
  5
BA
330
17
100
AcDbEntity
  8
WALLS
100
AcDbLine
 10
3239.0
 20
6235.0
 30
0.0
 11
3857.0
 21
5617.0
 31
0.0
  0
LINE
  5
BB
330
17
100
AcDbEntity
  8
WALLS
100
AcDbLine
 10
7083.0
 20
3239.0
 30
0.0
 11
7322.0
 21
3227.0
 31
0.0
  0
LINE
  5
BC
330
17
100
AcDbEntity
  8
WALLS
100
AcDbLine
 10
6789.0
 20
5127.0
 30
0.0
 11
6954.0
 21
5130.0
 31
0.0
  0
LINE
  5
BD
330
17
100
AcDbEntity
  8
WALLS
100
AcDbLine
 10
5240.0
 20
3209.0
 30
0.0
 11
5939.0
 21
2511.0
 31
0.0
  0
LINE
  5
BE
330
17
100
AcDbEntity
  8
WALLS
100
AcDbLine
 10
10384.0
 20
6734.0
 30
0.0
 11
10391.0
 21
6617.0
 31
0.0
  0
LINE
  5
BF
330
17
100
AcDbEntity
  8
WALLS
100
AcDbLine
 10
10343.0
 20
6680.0
 30
0.0
 11
10350.0
 21
6554.0
 31
0.0
  0
LINE
  5
C0
330
17
100
AcDbEntity
  8
WALLS
100
AcDbLine
 10
3196.0
 20
4827.0
 30
0.0
 11
3321.0
 21
4702.0
 31
0.0
  0
LINE
  5
C1
330
17
100
AcDbEntity
  8
WALLS
100
AcDbLine
 10
4321.0
 20
2448.0
 30
0.0
 11
4323.0
 21
1766.0
 31
0.0
  0
LINE
  5
C2
330
17
100
AcDbEntity
  8
WALLS
100
AcDbLine
 10
6286.0
 20
3740.0
 30
0.0
 11
6501.0
 21
3526.0
 31
0.0
  0
LINE
  5
C3
330
17
100
AcDbEntity
  8
WALLS
100
AcDbLine
 10
3135.0
 20
5710.0
 30
0.0
 11
3363.0
 21
5497.0
 31
0.0
  0
LINE
  5
C4
330
17
100
AcDbEntity
  8
WALLS
100
AcDbLine
 10
4724.0
 20
4341.0
 30
0.0
 11
5366.0
 21
3700.0
 31
0.0
  0
LINE
  5
C5
330
17
100
AcDbEntity
  8
WALLS
100
AcDbLine
 10
4675.0
 20
2927.0
 30
0.0
 11
5118.0
 21
2484.0
 31
0.0
  0
LINE
  5
C6
330
17
100
AcDbEntity
  8
WALLS
100
AcDbLine
 10
7448.0
 20
5148.0
 30
0.0
 11
7623.0
 21
5145.0
 31
0.0
  0
LINE
  5
C7
330
17
100
AcDbEntity
  8
WALLS
100
AcDbLine
 10
2901.0
 20
5245.0
 30
0.0
 11
3321.0
 21
4825.0
 31
0.0
  0
LINE
  5
C8
330
17
100
AcDbEntity
  8
WALLS
100
AcDbLine
 10
7421.0
 20
1714.0
 30
0.0
 11
7422.0
 21
1335.0
 31
0.0
  0
LINE
  5
C9
330
17
100
AcDbEntity
  8
WALLS
100
AcDbLine
 10
4645.0
 20
1854.0
 30
0.0
 11
4646.0
 21
1640.0
 31
0.0
  0
LINE
  5
CA
330
17
100
AcDbEntity
  8
WALLS
100
AcDbLine
 10
5007.0
 20
5814.0
 30
0.0
 11
5550.0
 21
5271.0
 31
0.0
  0
LINE
  5
CB
330
17
100
AcDbEntity
  8
WALLS
100
AcDbLine
 10
6806.0
 20
3250.0
 30
0.0
 11
7539.0
 21
3249.0
 31
0.0
  0
LINE
  5
CC
330
17
100
AcDbEntity
  8
WALLS
100
AcDbLine
 10
7273.0
 20
5105.0
 30
0.0
 11
7424.0
 21
5101.0
 31
0.0
  0
LINE
  5
CD
330
17
100
AcDbEntity
  8
WALLS
100
AcDbLine
 10
5785.0
 20
1296.0
 30
0.0
 11
6572.0
 21
1296.0
 31
0.0
  0
LINE
  5
CE
330
17
100
AcDbEntity
  8
WALLS
100
AcDbLine
 10
2064.0
 20
4408.0
 30
0.0
 11
2714.0
 21
3758.0
 31
0.0
  0
LINE
  5
CF
330
17
100
AcDbEntity
  8
WALLS
100
AcDbLine
 10
2429.0
 20
5426.0
 30
0.0
 11
3198.0
 21
4658.0
 31
0.0
  0
LINE
  5
D0
330
17
100
AcDbEntity
  8
WALLS
100
AcDbLine
 10
4351.0
 20
2041.0
 30
0.0
 11
4353.0
 21
1853.0
 31
0.0
  0
LINE
  5
D1
330
17
100
AcDbEntity
  8
WALLS
100
AcDbLine
 10
6468.0
 20
5050.0
 30
0.0
 11
6709.0
 21
5037.0
 31
0.0
  0
LINE
  5
D2
330
17
100
AcDbEntity
  8
WALLS
100
AcDbLine
 10
4918.0
 20
1336.0
 30
0.0
 11
4919.0
 21
559.0
 31
0.0
  0
LINE
  5
D3
330
17
100
AcDbEntity
  8
WALLS
100
AcDbLine
 10
4024.0
 20
5484.0
 30
0.0
 11
4175.0
 21
5635.0
 31
0.0
  0
LINE
  5
D4
330
17
100
AcDbEntity
  8
WALLS
100
AcDbLine
 10
5107.0
 20
4166.0
 30
0.0
 11
5831.0
 21
3441.0
 31
0.0
  0
LINE
  5
D5
330
17
100
AcDbEntity
  8
WALLS
100
AcDbLine
 10
9901.0
 20
6300.0
 30
0.0
 11
10618.0
 21
6299.0
 31
0.0
  0
LINE
  5
D6
330
17
100
AcDbEntity
  8
WALLS
100
AcDbLine
 10
5339.0
 20
4034.0
 30
0.0
 11
5750.0
 21
3623.0
 31
0.0
  0
LINE
  5
D7
330
17
100
AcDbEntity
  8
WALLS
100
AcDbLine
 10
3294.0
 20
4554.0
 30
0.0
 11
3649.0
 21
4199.0
 31
0.0
  0
LINE
  5
D8
330
17
100
AcDbEntity
  8
WALLS
100
AcDbLine
 10
5195.0
 20
4815.0
 30
0.0
 11
5525.0
 21
4485.0
 31
0.0
  0
LINE
  5
D9
330
17
100
AcDbEntity
  8
WALLS
100
AcDbLine
 10
9906.0
 20
6227.0
 30
0.0
 11
10612.0
 21
6224.0
 31
0.0
  0
LINE
  5
DA
330
17
100
AcDbEntity
  8
WALLS
100
AcDbLine
 10
3855.0
 20
4091.0
 30
0.0
 11
4411.0
 21
3534.0
 31
0.0
  0
LINE
  5
DB
330
17
100
AcDbEntity
  8
WALLS
100
AcDbLine
 10
4245.0
 20
3252.0
 30
0.0
 11
4968.0
 21
3240.0
 31
0.0
  0
LINE
  5
DC
330
17
100
AcDbEntity
  8
WALLS
100
AcDbLine
 10
7508.0
 20
2606.0
 30
0.0
 11
7519.0
 21
1968.0
 31
0.0
  0
LINE
  5
DD
330
17
100
AcDbEntity
  8
WALLS
100
AcDbLine
 10
9933.0
 20
6988.0
 30
0.0
 11
10585.0
 21
6984.0
 31
0.0
  0
LINE
  5
DE
330
17
100
AcDbEntity
  8
WALLS
100
AcDbLine
 10
4351.0
 20
2485.0
 30
0.0
 11
4352.0
 21
2071.0
 31
0.0
  0
LINE
  5
DF
330
17
100
AcDbEntity
  8
WALLS
100
AcDbLine
 10
5195.0
 20
5232.0
 30
0.0
 11
5524.0
 21
4904.0
 31
0.0
  0
LINE
  5
E0
330
17
100
AcDbEntity
  8
WALLS
100
AcDbLine
 10
4149.0
 20
3239.0
 30
0.0
 11
4967.0
 21
3238.0
 31
0.0
  0
LINE
  5
E1
330
17
100
AcDbEntity
  8
WALLS
100
AcDbLine
 10
3266.0
 20
4546.0
 30
0.0
 11
3737.0
 21
4076.0
 31
0.0
  0
LINE
  5
E2
330
17
100
AcDbEntity
  8
WALLS
100
AcDbLine
 10
6248.0
 20
1297.0
 30
0.0
 11
6249.0
 21
560.0
 31
0.0
  0
LINE
  5
E3
330
17
100
AcDbEntity
  8
WALLS
100
AcDbLine
 10
2963.0
 20
6215.0
 30
0.0
 11
3632.0
 21
5546.0
 31
0.0
  0
LINE
  5
E4
330
17
100
AcDbEntity
  8
WALLS
100
AcDbLine
 10
5898.0
 20
3259.0
 30
0.0
 11
6739.0
 21
3258.0
 31
0.0
  0
LINE
  5
E5
330
17
100
AcDbEntity
  8
WALLS
100
AcDbLine
 10
4256.0
 20
3232.0
 30
0.0
 11
4858.0
 21
3223.0
 31
0.0
  0
LINE
  5
E6
330
17
100
AcDbEntity
  8
WALLS
100
AcDbLine
 10
3252.0
 20
3821.0
 30
0.0
 11
3522.0
 21
3551.0
 31
0.0
  0
LINE
  5
E7
330
17
100
AcDbEntity
  8
WALLS
100
AcDbLine
 10
3211.0
 20
3842.0
 30
0.0
 11
3502.0
 21
3552.0
 31
0.0
  0
LINE
  5
E8
330
17
100
AcDbEntity
  8
WALLS
100
AcDbLine
 10
5370.0
 20
5219.0
 30
0.0
 11
5541.0
 21
5047.0
 31
0.0
  0
LINE
  5
E9
330
17
100
AcDbEntity
  8
WALLS
100
AcDbLine
 10
1044.0
 20
192.0
 30
0.0
 11
1192.0
 21
192.0
 31
0.0
  0
LINE
  5
EA
330
17
100
AcDbEntity
  8
WALLS
100
AcDbLine
 10
5096.0
 20
5949.0
 30
0.0
 11
5608.0
 21
5456.0
 31
0.0
  0
LINE
  5
EB
330
17
100
AcDbEntity
  8
WALLS
100
AcDbLine
 10
3173.0
 20
3927.0
 30
0.0
 11
3417.0
 21
3683.0
 31
0.0
  0
LINE
  5
EC
330
17
100
AcDbEntity
  8
WALLS
100
AcDbLine
 10
7017.0
 20
3230.0
 30
0.0
 11
7262.0
 21
3227.0
 31
0.0
  0
LINE
  5
ED
330
17
100
AcDbEntity
  8
WALLS
100
AcDbLine
 10
3203.0
 20
5645.0
 30
0.0
 11
3503.0
 21
5347.0
 31
0.0
  0
LINE
  5
EE
330
17
100
AcDbEntity
  8
WALLS
100
AcDbLine
 10
5859.0
 20
2333.0
 30
0.0
 11
5860.0
 21
1704.0
 31
0.0
  0
LINE
  5
EF
330
17
100
AcDbEntity
  8
WALLS
100
AcDbLine
 10
6745.0
 20
4073.0
 30
0.0
 11
6858.0
 21
3963.0
 31
0.0
  0
LINE
  5
F0
330
17
100
AcDbEntity
  8
WALLS
100
AcDbLine
 10
5285.0
 20
2469.0
 30
0.0
 11
5286.0
 21
1993.0
 31
0.0
  0
LINE
  5
F1
330
17
100
AcDbEntity
  8
WALLS
100
AcDbLine
 10
7274.0
 20
5112.0
 30
0.0
 11
7533.0
 21
5100.0
 31
0.0
  0
LINE
  5
F2
330
17
100
AcDbEntity
  8
WALLS
100
AcDbLine
 10
5151.0
 20
2973.0
 30
0.0
 11
5595.0
 21
2529.0
 31
0.0
  0
LINE
  5
F3
330
17
100
AcDbEntity
  8
WALLS
100
AcDbLine
 10
4689.0
 20
4306.0
 30
0.0
 11
5331.0
 21
3665.0
 31
0.0
  0
LINE
  5
F4
330
17
100
AcDbEntity
  8
WALLS
100
AcDbLine
 10
7426.0
 20
5049.0
 30
0.0
 11
7558.0
 21
5049.0
 31
0.0
  0
LINE
  5
F5
330
17
100
AcDbEntity
  8
WALLS
100
AcDbLine
 10
5372.0
 20
3078.0
 30
0.0
 11
6107.0
 21
2343.0
 31
0.0
  0
LINE
  5
F6
330
17
100
AcDbEntity
  8
WALLS
100
AcDbLine
 10
3797.0
 20
4963.0
 30
0.0
 11
3952.0
 21
4809.0
 31
0.0
  0
LINE
  5
F7
330
17
100
AcDbEntity
  8
WALLS
100
AcDbLine
 10
4142.0
 20
2877.0
 30
0.0
 11
4752.0
 21
2875.0
 31
0.0
  0
LINE
  5
F8
330
17
100
AcDbEntity
  8
WALLS
100
AcDbLine
 10
4092.0
 20
5258.0
 30
0.0
 11
4247.0
 21
5103.0
 31
0.0
  0
LINE
  5
F9
330
17
100
AcDbEntity
  8
WALLS
100
AcDbLine
 10
4674.0
 20
5331.0
 30
0.0
 11
4870.0
 21
5527.0
 31
0.0
  0
LINE
  5
FA
330
17
100
AcDbEntity
  8
WALLS
100
AcDbLine
 10
4855.0
 20
1359.0
 30
0.0
 11
4857.0
 21
625.0
 31
0.0
  0
LINE
  5
FB
330
17
100
AcDbEntity
  8
WALLS
100
AcDbLine
 10
8385.0
 20
5155.0
 30
0.0
 11
8540.0
 21
5147.0
 31
0.0
  0
LINE
  5
FC
330
17
100
AcDbEntity
  8
WALLS
100
AcDbLine
 10
4644.0
 20
2485.0
 30
0.0
 11
4645.0
 21
2040.0
 31
0.0
  0
LINE
  5
FD
330
17
100
AcDbEntity
  8
WALLS
100
AcDbLine
 10
3523.0
 20
5493.0
 30
0.0
 11
3981.0
 21
5030.0
 31
0.0
  0
LINE
  5
FE
330
17
100
AcDbEntity
  8
WALLS
100
AcDbLine
 10
3886.0
 20
2298.0
 30
0.0
 11
3888.0
 21
1852.0
 31
0.0
  0
LINE
  5
FF
330
17
100
AcDbEntity
  8
WALLS
100
AcDbLine
 10
5280.0
 20
3034.0
 30
0.0
 11
5569.0
 21
2767.0
 31
0.0
  0
LINE
  5
100
330
17
100
AcDbEntity
  8
WALLS
100
AcDbLine
 10
4142.0
 20
2522.0
 30
0.0
 11
4752.0
 21
2521.0
 31
0.0
  0
LINE
  5
101
330
17
100
AcDbEntity
  8
WALLS
100
AcDbLine
 10
5397.0
 20
1993.0
 30
0.0
 11
5506.0
 21
1993.0
 31
0.0
  0
LINE
  5
102
330
17
100
AcDbEntity
  8
WALLS
100
AcDbLine
 10
9933.0
 20
6329.0
 30
0.0
 11
10585.0
 21
6328.0
 31
0.0
  0
LINE
  5
103
330
17
100
AcDbEntity
  8
WALLS
100
AcDbLine
 10
5259.0
 20
4514.0
 30
0.0
 11
5755.0
 21
4023.0
 31
0.0
  0
LINE
  5
104
330
17
100
AcDbEntity
  8
WALLS
100
AcDbLine
 10
3737.0
 20
2448.0
 30
0.0
 11
4323.0
 21
2446.0
 31
0.0
  0
LINE
  5
105
330
17
100
AcDbEntity
  8
WALLS
100
AcDbLine
 10
3735.0
 20
1822.0
 30
0.0
 11
3999.0
 21
1821.0
 31
0.0
  0
LINE
  5
106
330
17
100
AcDbEntity
  8
WALLS
100
AcDbLine
 10
4352.0
 20
1823.0
 30
0.0
 11
4614.0
 21
1823.0
 31
0.0
  0
LINE
  5
107
330
17
100
AcDbEntity
  8
WALLS
100
AcDbLine
 10
10157.0
 20
889.0
 30
0.0
 11
10270.0
 21
881.0
 31
0.0
  0
LINE
  5
108
330
17
100
AcDbEntity
  8
WALLS
100
AcDbLine
 10
2940.0
 20
5411.0
 30
0.0
 11
3048.0
 21
5303.0
 31
0.0
  0
LINE
  5
109
330
17
100
AcDbEntity
  8
WALLS
100
AcDbLine
 10
4930.0
 20
4548.0
 30
0.0
 11
5572.0
 21
3906.0
 31
0.0
  0
LINE
  5
10A
330
17
100
AcDbEntity
  8
WALLS
100
AcDbLine
 10
6311.0
 20
1295.0
 30
0.0
 11
6313.0
 21
622.0
 31
0.0
  0
LINE
  5
10B
330
17
100
AcDbEntity
  8
WALLS
100
AcDbLine
 10
3595.0
 20
6215.0
 30
0.0
 11
4174.0
 21
5635.0
 31
0.0
  0
LINE
  5
10C
330
17
100
AcDbEntity
  8
WALLS
100
AcDbLine
 10
5323.0
 20
3552.0
 30
0.0
 11
5758.0
 21
3117.0
 31
0.0
  0
LINE
  5
10D
330
17
100
AcDbEntity
  8
WALLS
100
AcDbLine
 10
7253.0
 20
5058.0
 30
0.0
 11
7386.0
 21
5040.0
 31
0.0
  0
LINE
  5
10E
330
17
100
AcDbEntity
  8
WALLS
100
AcDbLine
 10
3375.0
 20
3835.0
 30
0.0
 11
3741.0
 21
3470.0
 31
0.0
  0
LINE
  5
10F
330
17
100
AcDbEntity
  8
WALLS
100
AcDbLine
 10
7309.0
 20
5130.0
 30
0.0
 11
7458.0
 21
5130.0
 31
0.0
  0
LINE
  5
110
330
17
100
AcDbEntity
  8
WALLS
100
AcDbLine
 10
4781.0
 20
1492.0
 30
0.0
 11
5082.0
 21
1491.0
 31
0.0
  0
LINE
  5
111
330
17
100
AcDbEntity
  8
WALLS
100
AcDbLine
 10
4485.0
 20
456.0
 30
0.0
 11
4607.0
 21
451.0
 31
0.0
  0
LINE
  5
112
330
17
100
AcDbEntity
  8
WALLS
100
AcDbLine
 10
4586.0
 20
5627.0
 30
0.0
 11
4786.0
 21
5427.0
 31
0.0
  0
LINE
  5
113
330
17
100
AcDbEntity
  8
WALLS
100
AcDbLine
 10
4465.0
 20
4845.0
 30
0.0
 11
5228.0
 21
4082.0
 31
0.0
  0
LINE
  5
114
330
17
100
AcDbEntity
  8
WALLS
100
AcDbLine
 10
4659.0
 20
5435.0
 30
0.0
 11
4771.0
 21
5550.0
 31
0.0
  0
LINE
  5
115
330
17
100
AcDbEntity
  8
WALLS
100
AcDbLine
 10
4972.0
 20
5047.0
 30
0.0
 11
5103.0
 21
5038.0
 31
0.0
  0
LINE
  5
116
330
17
100
AcDbEntity
  8
WALLS
100
AcDbLine
 10
5278.0
 20
278.0
 30
0.0
 11
5392.0
 21
258.0
 31
0.0
  0
LINE
  5
117
330
17
100
AcDbEntity
  8
WALLS
100
AcDbLine
 10
7253.0
 20
5041.0
 30
0.0
 11
7403.0
 21
5036.0
 31
0.0
  0
LINE
  5
118
330
17
100
AcDbEntity
  8
WALLS
100
AcDbLine
 10
5293.0
 20
871.0
 30
0.0
 11
5295.0
 21
417.0
 31
0.0
  0
LINE
  5
119
330
17
100
AcDbEntity
  8
WALLS
100
AcDbLine
 10
3106.0
 20
5449.0
 30
0.0
 11
3525.0
 21
5029.0
 31
0.0
  0
LINE
  5
11A
330
17
100
AcDbEntity
  8
WALLS
100
AcDbLine
 10
3358.0
 20
4663.0
 30
0.0
 11
3539.0
 21
4490.0
 31
0.0
  0
LINE
  5
11B
330
17
100
AcDbEntity
  8
WALLS
100
AcDbLine
 10
3041.0
 20
494.0
 30
0.0
 11
3194.0
 21
476.0
 31
0.0
  0
LINE
  5
11C
330
17
100
AcDbEntity
  8
WALLS
100
AcDbLine
 10
4196.0
 20
4934.0
 30
0.0
 11
4780.0
 21
4349.0
 31
0.0
  0
LINE
  5
11D
330
17
100
AcDbEntity
  8
WALLS
100
AcDbLine
 10
4159.0
 20
2655.0
 30
0.0
 11
4515.0
 21
2646.0
 31
0.0
  0
LINE
  5
11E
330
17
100
AcDbEntity
  8
WALLS
100
AcDbLine
 10
6818.0
 20
5042.0
 30
0.0
 11
6948.0
 21
5035.0
 31
0.0
  0
LINE
  5
11F
330
17
100
AcDbEntity
  8
WALLS
100
AcDbLine
 10
4534.0
 20
3956.0
 30
0.0
 11
4975.0
 21
3511.0
 31
0.0
  0
LINE
  5
120
330
17
100
AcDbEntity
  8
WALLS
100
AcDbLine
 10
6566.0
 20
5061.0
 30
0.0
 11
6707.0
 21
5053.0
 31
0.0
  0
LINE
  5
121
330
17
100
AcDbEntity
  8
WALLS
100
AcDbLine
 10
6857.0
 20
3217.0
 30
0.0
 11
7322.0
 21
3216.0
 31
0.0
  0
LINE
  5
122
330
17
100
AcDbEntity
  8
WALLS
100
AcDbLine
 10
5792.0
 20
3807.0
 30
0.0
 11
6339.0
 21
3260.0
 31
0.0
  0
LINE
  5
123
330
17
100
AcDbEntity
  8
WALLS
100
AcDbLine
 10
1986.0
 20
213.0
 30
0.0
 11
2086.0
 21
215.0
 31
0.0
  0
LINE
  5
124
330
17
100
AcDbEntity
  8
WALLS
100
AcDbLine
 10
6566.0
 20
376.0
 30
0.0
 11
6678.0
 21
380.0
 31
0.0
  0
LINE
  5
125
330
17
100
AcDbEntity
  8
WALLS
100
AcDbLine
 10
5255.0
 20
1993.0
 30
0.0
 11
5255.0
 21
2455.0
 31
0.0
  0
LINE
  5
126
330
17
100
AcDbEntity
  8
WALLS
100
AcDbLine
 10
6751.0
 20
403.0
 30
0.0
 11
6883.0
 21
408.0
 31
0.0
  0
LINE
  5
127
330
17
100
AcDbEntity
  8
WALLS
100
AcDbLine
 10
4189.0
 20
6006.0
 30
0.0
 11
4373.0
 21
5822.0
 31
0.0
  0
LINE
  5
128
330
17
100
AcDbEntity
  8
WALLS
100
AcDbLine
 10
7251.0
 20
5137.0
 30
0.0
 11
7372.0
 21
5137.0
 31
0.0
  0
LINE
  5
129
330
17
100
AcDbEntity
  8
WALLS
100
AcDbLine
 10
4613.0
 20
1822.0
 30
0.0
 11
4615.0
 21
1671.0
 31
0.0
  0
LINE
  5
12A
330
17
100
AcDbEntity
  8
WALLS
100
AcDbLine
 10
3232.0
 20
3762.0
 30
0.0
 11
3399.0
 21
3596.0
 31
0.0
  0
LINE
  5
12B
330
17
100
AcDbEntity
  8
WALLS
100
AcDbLine
 10
3733.0
 20
6692.0
 30
0.0
 11
4349.0
 21
6075.0
 31
0.0
  0
LINE
  5
12C
330
17
100
AcDbEntity
  8
WALLS
100
AcDbLine
 10
3719.0
 20
5595.0
 30
0.0
 11
3880.0
 21
5435.0
 31
0.0
  0
LINE
  5
12D
330
17
100
AcDbEntity
  8
WALLS
100
AcDbLine
 10
6896.0
 20
5059.0
 30
0.0
 11
7020.0
 21
5063.0
 31
0.0
  0
LINE
  5
12E
330
17
100
AcDbEntity
  8
WALLS
100
AcDbLine
 10
4996.0
 20
5356.0
 30
0.0
 11
5212.0
 21
5140.0
 31
0.0
  0
LINE
  5
12F
330
17
100
AcDbEntity
  8
WALLS
100
AcDbLine
 10
5534.0
 20
1992.0
 30
0.0
 11
5758.0
 21
1992.0
 31
0.0
  0
LINE
  5
130
330
17
100
AcDbEntity
  8
WALLS
100
AcDbLine
 10
6729.0
 20
5037.0
 30
0.0
 11
6872.0
 21
5042.0
 31
0.0
  0
LINE
  5
131
330
17
100
AcDbEntity
  8
WALLS
100
AcDbLine
 10
3601.0
 20
4964.0
 30
0.0
 11
3918.0
 21
4647.0
 31
0.0
  0
LINE
  5
132
330
17
100
AcDbEntity
  8
WALLS
100
AcDbLine
 10
9516.0
 20
1295.0
 30
0.0
 11
9642.0
 21
1293.0
 31
0.0
  0
LINE
  5
133
330
17
100
AcDbEntity
  8
WALLS
100
AcDbLine
 10
3814.0
 20
4655.0
 30
0.0
 11
3900.0
 21
4739.0
 31
0.0
  0
LINE
  5
134
330
17
100
AcDbEntity
  8
WALLS
100
AcDbLine
 10
5877.0
 20
4882.0
 30
0.0
 11
6391.0
 21
4368.0
 31
0.0
  0
LINE
  5
135
330
17
100
AcDbEntity
  8
WALLS
100
AcDbLine
 10
3443.0
 20
1335.0
 30
0.0
 11
4063.0
 21
1323.0
 31
0.0
  0
LINE
  5
136
330
17
100
AcDbEntity
  8
WALLS
100
AcDbLine
 10
3703.0
 20
1641.0
 30
0.0
 11
4030.0
 21
1640.0
 31
0.0
  0
LINE
  5
137
330
17
100
AcDbEntity
  8
WALLS
100
AcDbLine
 10
4520.0
 20
5708.0
 30
0.0
 11
4705.0
 21
5523.0
 31
0.0
  0
LINE
  5
138
330
17
100
AcDbEntity
  8
WALLS
100
AcDbLine
 10
4090.0
 20
5115.0
 30
0.0
 11
4208.0
 21
5001.0
 31
0.0
  0
LINE
  5
139
330
17
100
AcDbEntity
  8
WALLS
100
AcDbLine
 10
3711.0
 20
6054.0
 30
0.0
 11
4131.0
 21
5634.0
 31
0.0
  0
LINE
  5
13A
330
17
100
AcDbEntity
  8
WALLS
100
AcDbLine
 10
3925.0
 20
4872.0
 30
0.0
 11
4070.0
 21
4722.0
 31
0.0
  0
LINE
  5
13B
330
17
100
AcDbEntity
  8
WALLS
100
AcDbLine
 10
5105.0
 20
1962.0
 30
0.0
 11
5783.0
 21
1961.0
 31
0.0
  0
LINE
  5
13C
330
17
100
AcDbEntity
  8
WALLS
100
AcDbLine
 10
3383.0
 20
3496.0
 30
0.0
 11
3555.0
 21
3499.0
 31
0.0
  0
LINE
  5
13D
330
17
100
AcDbEntity
  8
WALLS
100
AcDbLine
 10
8333.0
 20
5106.0
 30
0.0
 11
8446.0
 21
5109.0
 31
0.0
  0
LINE
  5
13E
330
17
100
AcDbEntity
  8
WALLS
100
AcDbLine
 10
9051.0
 20
768.0
 30
0.0
 11
9167.0
 21
776.0
 31
0.0
  0
LINE
  5
13F
330
17
100
AcDbEntity
  8
WALLS
100
AcDbLine
 10
2849.0
 20
5193.0
 30
0.0
 11
3269.0
 21
4773.0
 31
0.0
  0
LINE
  5
140
330
17
100
AcDbEntity
  8
WALLS
100
AcDbLine
 10
3425.0
 20
4931.0
 30
0.0
 11
3655.0
 21
4701.0
 31
0.0
  0
LINE
  5
141
330
17
100
AcDbEntity
  8
WALLS
100
AcDbLine
 10
5303.0
 20
3155.0
 30
0.0
 11
5403.0
 21
3055.0
 31
0.0
  0
LINE
  5
142
330
17
100
AcDbEntity
  8
WALLS
100
AcDbLine
 10
3212.0
 20
4981.0
 30
0.0
 11
3344.0
 21
4849.0
 31
0.0
  0
LINE
  5
143
330
17
100
AcDbEntity
  8
WALLS
100
AcDbLine
 10
4291.0
 20
448.0
 30
0.0
 11
4447.0
 21
443.0
 31
0.0
  0
LINE
  5
144
330
17
100
AcDbEntity
  8
WALLS
100
AcDbLine
 10
8670.0
 20
5146.0
 30
0.0
 11
8795.0
 21
5146.0
 31
0.0
  0
LINE
  5
145
330
17
100
AcDbEntity
  8
WALLS
100
AcDbLine
 10
7247.0
 20
5152.0
 30
0.0
 11
7427.0
 21
5141.0
 31
0.0
  0
LINE
  5
146
330
17
100
AcDbEntity
  8
WALLS
100
AcDbLine
 10
3285.0
 20
5905.0
 30
0.0
 11
3728.0
 21
5475.0
 31
0.0
  0
LINE
  5
147
330
17
100
AcDbEntity
  8
WALLS
100
AcDbLine
 10
5180.0
 20
2479.0
 30
0.0
 11
5181.0
 21
1992.0
 31
0.0
  0
LINE
  5
148
330
17
100
AcDbEntity
  8
WALLS
100
AcDbLine
 10
3709.0
 20
2998.0
 30
0.0
 11
4137.0
 21
2997.0
 31
0.0
  0
LINE
  5
149
330
17
100
AcDbEntity
  8
WALLS
100
AcDbLine
 10
3651.0
 20
5616.0
 30
0.0
 11
3857.0
 21
5410.0
 31
0.0
  0
LINE
  5
14A
330
17
100
AcDbEntity
  8
WALLS
100
AcDbLine
 10
4290.0
 20
454.0
 30
0.0
 11
4446.0
 21
443.0
 31
0.0
  0
LINE
  5
14B
330
17
100
AcDbEntity
  8
WALLS
100
AcDbLine
 10
3886.0
 20
3477.0
 30
0.0
 11
4060.0
 21
3308.0
 31
0.0
  0
LINE
  5
14C
330
17
100
AcDbEntity
  8
WALLS
100
AcDbLine
 10
4630.0
 20
873.0
 30
0.0
 11
4920.0
 21
872.0
 31
0.0
  0
LINE
  5
14D
330
17
100
AcDbEntity
  8
WALLS
100
AcDbLine
 10
3871.0
 20
4712.0
 30
0.0
 11
4313.0
 21
4270.0
 31
0.0
  0
LINE
  5
14E
330
17
100
AcDbEntity
  8
WALLS
100
AcDbLine
 10
4996.0
 20
3551.0
 30
0.0
 11
5160.0
 21
3387.0
 31
0.0
  0
LINE
  5
14F
330
17
100
AcDbEntity
  8
WALLS
100
AcDbLine
 10
3587.0
 20
5931.0
 30
0.0
 11
4007.0
 21
5511.0
 31
0.0
  0
LINE
  5
150
330
17
100
AcDbEntity
  8
WALLS
100
AcDbLine
 10
5544.0
 20
3712.0
 30
0.0
 11
5861.0
 21
4029.0
 31
0.0
  0
LINE
  5
151
330
17
100
AcDbEntity
  8
WALLS
100
AcDbLine
 10
4559.0
 20
3962.0
 30
0.0
 11
4636.0
 21
3887.0
 31
0.0
  0
LINE
  5
152
330
17
100
AcDbEntity
  8
WALLS
100
AcDbLine
 10
7885.0
 20
5108.0
 30
0.0
 11
8068.0
 21
5105.0
 31
0.0
  0
LINE
  5
153
330
17
100
AcDbEntity
  8
WALLS
100
AcDbLine
 10
746.0
 20
216.0
 30
0.0
 11
865.0
 21
218.0
 31
0.0
  0
LINE
  5
154
330
17
100
AcDbEntity
  8
WALLS
100
AcDbLine
 10
5499.0
 20
3782.0
 30
0.0
 11
5612.0
 21
3674.0
 31
0.0
  0
LINE
  5
155
330
17
100
AcDbEntity
  8
WALLS
100
AcDbLine
 10
4614.0
 20
2485.0
 30
0.0
 11
4615.0
 21
2071.0
 31
0.0
  0
LINE
  5
156
330
17
100
AcDbEntity
  8
WALLS
100
AcDbLine
 10
3425.0
 20
5774.0
 30
0.0
 11
3542.0
 21
5651.0
 31
0.0
  0
LINE
  5
157
330
17
100
AcDbEntity
  8
WALLS
100
AcDbLine
 10
4308.0
 20
4970.0
 30
0.0
 11
4406.0
 21
4871.0
 31
0.0
  0
LINE
  5
158
330
17
100
AcDbEntity
  8
WALLS
100
AcDbLine
 10
4170.0
 20
2298.0
 30
0.0
 11
4171.0
 21
1990.0
 31
0.0
  0
LINE
  5
159
330
17
100
AcDbEntity
  8
WALLS
100
AcDbLine
 10
4967.0
 20
4582.0
 30
0.0
 11
5607.0
 21
3942.0
 31
0.0
  0
LINE
  5
15A
330
17
100
AcDbEntity
  8
WALLS
100
AcDbLine
 10
5464.0
 20
4426.0
 30
0.0
 11
5861.0
 21
4028.0
 31
0.0
  0
LINE
  5
15B
330
17
100
AcDbEntity
  8
WALLS
100
AcDbLine
 10
5176.0
 20
2939.0
 30
0.0
 11
5393.0
 21
2723.0
 31
0.0
  0
LINE
  5
15C
330
17
100
AcDbEntity
  8
WALLS
100
AcDbLine
 10
4188.0
 20
5823.0
 30
0.0
 11
4556.0
 21
5822.0
 31
0.0
  0
LINE
  5
15D
330
17
100
AcDbEntity
  8
WALLS
100
AcDbLine
 10
4177.0
 20
2852.0
 30
0.0
 11
4330.0
 21
2841.0
 31
0.0
  0
LINE
  5
15E
330
17
100
AcDbEntity
  8
WALLS
100
AcDbLine
 10
3665.0
 20
4993.0
 30
0.0
 11
3925.0
 21
4726.0
 31
0.0
  0
LINE
  5
15F
330
17
100
AcDbEntity
  8
WALLS
100
AcDbLine
 10
3204.0
 20
3843.0
 30
0.0
 11
3395.0
 21
3651.0
 31
0.0
  0
LINE
  5
160
330
17
100
AcDbEntity
  8
WALLS
100
AcDbLine
 10
2944.0
 20
4060.0
 30
0.0
 11
3056.0
 21
3939.0
 31
0.0
  0
LINE
  5
161
330
17
100
AcDbEntity
  8
WALLS
100
AcDbLine
 10
5611.0
 20
3626.0
 30
0.0
 11
5977.0
 21
3260.0
 31
0.0
  0
LINE
  5
162
330
17
100
AcDbEntity
  8
WALLS
100
AcDbLine
 10
9026.0
 20
5113.0
 30
0.0
 11
9149.0
 21
5109.0
 31
0.0
  0
LINE
  5
163
330
17
100
AcDbEntity
  8
WALLS
100
AcDbLine
 10
5398.0
 20
3160.0
 30
0.0
 11
5614.0
 21
2944.0
 31
0.0
  0
LINE
  5
164
330
17
100
AcDbEntity
  8
WALLS
100
AcDbLine
 10
8381.0
 20
3585.0
 30
0.0
 11
8492.0
 21
3587.0
 31
0.0
  0
LINE
  5
165
330
17
100
AcDbEntity
  8
WALLS
100
AcDbLine
 10
3811.0
 20
2372.0
 30
0.0
 11
4247.0
 21
2371.0
 31
0.0
  0
LINE
  5
166
330
17
100
AcDbEntity
  8
WALLS
100
AcDbLine
 10
2779.0
 20
5122.0
 30
0.0
 11
3198.0
 21
4702.0
 31
0.0
  0
LINE
  5
167
330
17
100
AcDbEntity
  8
WALLS
100
AcDbLine
 10
4638.0
 20
4639.0
 30
0.0
 11
4746.0
 21
4530.0
 31
0.0
  0
LINE
  5
168
330
17
100
AcDbEntity
  8
WALLS
100
AcDbLine
 10
1070.0
 20
243.0
 30
0.0
 11
1188.0
 21
235.0
 31
0.0
  0
LINE
  5
169
330
17
100
AcDbEntity
  8
WALLS
100
AcDbLine
 10
9031.0
 20
5134.0
 30
0.0
 11
9139.0
 21
5128.0
 31
0.0
  0
LINE
  5
16A
330
17
100
AcDbEntity
  8
WALLS
100
AcDbLine
 10
10402.0
 20
2045.0
 30
0.0
 11
10406.0
 21
1941.0
 31
0.0
  0
LINE
  5
16B
330
17
100
AcDbEntity
  8
WALLS
100
AcDbLine
 10
4233.0
 20
4611.0
 30
0.0
 11
4428.0
 21
4409.0
 31
0.0
  0
LINE
  5
16C
330
17
100
AcDbEntity
  8
WALLS
100
AcDbLine
 10
10027.0
 20
5644.0
 30
0.0
 11
10495.0
 21
5628.0
 31
0.0
  0
LINE
  5
16D
330
17
100
AcDbEntity
  8
WALLS
100
AcDbLine
 10
6468.0
 20
424.0
 30
0.0
 11
6638.0
 21
406.0
 31
0.0
  0
LINE
  5
16E
330
17
100
AcDbEntity
  8
WALLS
100
AcDbLine
 10
1315.0
 20
3028.0
 30
0.0
 11
1652.0
 21
3025.0
 31
0.0
  0
LINE
  5
16F
330
17
100
AcDbEntity
  8
WALLS
100
AcDbLine
 10
3164.0
 20
4181.0
 30
0.0
 11
3501.0
 21
3844.0
 31
0.0
  0
LINE
  5
170
330
17
100
AcDbEntity
  8
WALLS
100
AcDbLine
 10
5130.0
 20
5915.0
 30
0.0
 11
5557.0
 21
5485.0
 31
0.0
  0
LINE
  5
171
330
17
100
AcDbEntity
  8
WALLS
100
AcDbLine
 10
3889.0
 20
1852.0
 30
0.0
 11
3889.0
 21
2218.0
 31
0.0
  0
LINE
  5
172
330
17
100
AcDbEntity
  8
WALLS
100
AcDbLine
 10
8443.0
 20
605.0
 30
0.0
 11
8667.0
 21
603.0
 31
0.0
  0
LINE
  5
173
330
17
100
AcDbEntity
  8
WALLS
100
AcDbLine
 10
3211.0
 20
5140.0
 30
0.0
 11
3371.0
 21
4979.0
 31
0.0
  0
LINE
  5
174
330
17
100
AcDbEntity
  8
WALLS
100
AcDbLine
 10
2199.0
 20
4177.0
 30
0.0
 11
2383.0
 21
3993.0
 31
0.0
  0
LINE
  5
175
330
17
100
AcDbEntity
  8
WALLS
100
AcDbLine
 10
5229.0
 20
3691.0
 30
0.0
 11
5792.0
 21
3154.0
 31
0.0
  0
LINE
  5
176
330
17
100
AcDbEntity
  8
WALLS
100
AcDbLine
 10
4281.0
 20
3585.0
 30
0.0
 11
4427.0
 21
3580.0
 31
0.0
  0
LINE
  5
177
330
17
100
AcDbEntity
  8
WALLS
100
AcDbLine
 10
4929.0
 20
5468.0
 30
0.0
 11
5127.0
 21
5270.0
 31
0.0
  0
LINE
  5
178
330
17
100
AcDbEntity
  8
WALLS
100
AcDbLine
 10
4029.0
 20
1621.0
 30
0.0
 11
4030.0
 21
1473.0
 31
0.0
  0
LINE
  5
179
330
17
100
AcDbEntity
  8
WALLS
100
AcDbLine
 10
4881.0
 20
5385.0
 30
0.0
 11
5010.0
 21
5254.0
 31
0.0
  0
LINE
  5
17A
330
17
100
AcDbEntity
  8
WALLS
100
AcDbLine
 10
5092.0
 20
3186.0
 30
0.0
 11
5363.0
 21
2915.0
 31
0.0
  0
LINE
  5
17B
330
17
100
AcDbEntity
  8
WALLS
100
AcDbLine
 10
1466.0
 20
3009.0
 30
0.0
 11
1651.0
 21
3002.0
 31
0.0
  0
LINE
  5
17C
330
17
100
AcDbEntity
  8
WALLS
100
AcDbLine
 10
9049.0
 20
771.0
 30
0.0
 11
9162.0
 21
770.0
 31
0.0
  0
LINE
  5
17D
330
17
100
AcDbEntity
  8
WALLS
100
AcDbLine
 10
5300.0
 20
2830.0
 30
0.0
 11
5487.0
 21
2660.0
 31
0.0
  0
LINE
  5
17E
330
17
100
AcDbEntity
  8
WALLS
100
AcDbLine
 10
4414.0
 20
4136.0
 30
0.0
 11
4573.0
 21
3977.0
 31
0.0
  0
LINE
  5
17F
330
17
100
AcDbEntity
  8
WALLS
100
AcDbLine
 10
8996.0
 20
795.0
 30
0.0
 11
9133.0
 21
792.0
 31
0.0
  0
LINE
  5
180
330
17
100
AcDbEntity
  8
WALLS
100
AcDbLine
 10
3703.0
 20
1642.0
 30
0.0
 11
3703.0
 21
2627.0
 31
0.0
  0
LINE
  5
181
330
17
100
AcDbEntity
  8
WALLS
100
AcDbLine
 10
4110.0
 20
2905.0
 30
0.0
 11
4112.0
 21
2485.0
 31
0.0
  0
LINE
  5
182
330
17
100
AcDbEntity
  8
WALLS
100
AcDbLine
 10
8296.0
 20
3771.0
 30
0.0
 11
8473.0
 21
3758.0
 31
0.0
  0
LINE
  5
183
330
17
100
AcDbEntity
  8
WALLS
100
AcDbLine
 10
8675.0
 20
3601.0
 30
0.0
 11
8783.0
 21
3609.0
 31
0.0
  0
LINE
  5
184
330
17
100
AcDbEntity
  8
WALLS
100
AcDbLine
 10
5425.0
 20
2697.0
 30
0.0
 11
5639.0
 21
2911.0
 31
0.0
  0
LINE
  5
185
330
17
100
AcDbEntity
  8
WALLS
100
AcDbLine
 10
4168.0
 20
5469.0
 30
0.0
 11
4342.0
 21
5294.0
 31
0.0
  0
LINE
  5
186
330
17
100
AcDbEntity
  8
WALLS
100
AcDbLine
 10
2972.0
 20
4859.0
 30
0.0
 11
2973.0
 21
4492.0
 31
0.0
  0
LINE
  5
187
330
17
100
AcDbEntity
  8
WALLS
100
AcDbLine
 10
4722.0
 20
883.0
 30
0.0
 11
4853.0
 21
881.0
 31
0.0
  0
LINE
  5
188
330
17
100
AcDbEntity
  8
WALLS
100
AcDbLine
 10
5104.0
 20
2503.0
 30
0.0
 11
5206.0
 21
2401.0
 31
0.0
  0
LINE
  5
189
330
17
100
AcDbEntity
  8
WALLS
100
AcDbLine
 10
4142.0
 20
2524.0
 30
0.0
 11
4142.0
 21
2874.0
 31
0.0
  0
LINE
  5
18A
330
17
100
AcDbEntity
  8
WALLS
100
AcDbLine
 10
1959.0
 20
2263.0
 30
0.0
 11
2072.0
 21
2264.0
 31
0.0
  0
LINE
  5
18B
330
17
100
AcDbEntity
  8
WALLS
100
AcDbLine
 10
3173.0
 20
3814.0
 30
0.0
 11
3280.0
 21
3708.0
 31
0.0
  0
LINE
  5
18C
330
17
100
AcDbEntity
  8
WALLS
100
AcDbLine
 10
4029.0
 20
1766.0
 30
0.0
 11
4319.0
 21
1765.0
 31
0.0
  0
LINE
  5
18D
330
17
100
AcDbEntity
  8
WALLS
100
AcDbLine
 10
4351.0
 20
1673.0
 30
0.0
 11
4614.0
 21
1672.0
 31
0.0
  0
LINE
  5
18E
330
17
100
AcDbEntity
  8
WALLS
100
AcDbLine
 10
4584.0
 20
5297.0
 30
0.0
 11
4703.0
 21
5182.0
 31
0.0
  0
LINE
  5
18F
330
17
100
AcDbEntity
  8
WALLS
100
AcDbLine
 10
1947.0
 20
192.0
 30
0.0
 11
2119.0
 21
191.0
 31
0.0
  0
LINE
  5
190
330
17
100
AcDbEntity
  8
WALLS
100
AcDbLine
 10
10031.0
 20
5591.0
 30
0.0
 11
10493.0
 21
5588.0
 31
0.0
  0
LINE
  5
191
330
17
100
AcDbEntity
  8
WALLS
100
AcDbLine
 10
3594.0
 20
3710.0
 30
0.0
 11
3606.0
 21
3540.0
 31
0.0
  0
LINE
  5
192
330
17
100
AcDbEntity
  8
WALLS
100
AcDbLine
 10
3496.0
 20
3067.0
 30
0.0
 11
3666.0
 21
3069.0
 31
0.0
  0
LINE
  5
193
330
17
100
AcDbEntity
  8
WALLS
100
AcDbLine
 10
4371.0
 20
5821.0
 30
0.0
 11
4554.0
 21
5639.0
 31
0.0
  0
LINE
  5
194
330
17
100
AcDbEntity
  8
WALLS
100
AcDbLine
 10
4645.0
 20
2237.0
 30
0.0
 11
5053.0
 21
2219.0
 31
0.0
  0
LINE
  5
195
330
17
100
AcDbEntity
  8
WALLS
100
AcDbLine
 10
4639.0
 20
5236.0
 30
0.0
 11
4727.0
 21
5321.0
 31
0.0
  0
LINE
  5
196
330
17
100
AcDbEntity
  8
WALLS
100
AcDbLine
 10
2901.0
 20
503.0
 30
0.0
 11
3007.0
 21
500.0
 31
0.0
  0
LINE
  5
197
330
17
100
AcDbEntity
  8
WALLS
100
AcDbLine
 10
5100.0
 20
3138.0
 30
0.0
 11
5284.0
 21
3151.0
 31
0.0
  0
LINE
  5
198
330
17
100
AcDbEntity
  8
WALLS
100
AcDbLine
 10
7715.0
 20
3075.0
 30
0.0
 11
7866.0
 21
3071.0
 31
0.0
  0
LINE
  5
199
330
17
100
AcDbEntity
  8
WALLS
100
AcDbLine
 10
5520.0
 20
5318.0
 30
0.0
 11
5983.0
 21
4854.0
 31
0.0
  0
LINE
  5
19A
330
17
100
AcDbEntity
  8
WALLS
100
AcDbLine
 10
10615.0
 20
6891.0
 30
0.0
 11
10618.0
 21
6667.0
 31
0.0
  0
LINE
  5
19B
330
17
100
AcDbEntity
  8
WALLS
100
AcDbLine
 10
9372.0
 20
1781.0
 30
0.0
 11
9583.0
 21
1770.0
 31
0.0
  0
LINE
  5
19C
330
17
100
AcDbEntity
  8
WALLS
100
AcDbLine
 10
4733.0
 20
5509.0
 30
0.0
 11
4817.0
 21
5596.0
 31
0.0
  0
LINE
  5
19D
330
17
100
AcDbEntity
  8
WALLS
100
AcDbLine
 10
2810.0
 20
4863.0
 30
0.0
 11
2813.0
 21
5041.0
 31
0.0
  0
LINE
  5
19E
330
17
100
AcDbEntity
  8
WALLS
100
AcDbLine
 10
10615.0
 20
6722.0
 30
0.0
 11
10618.0
 21
6497.0
 31
0.0
  0
LINE
  5
19F
330
17
100
AcDbEntity
  8
WALLS
100
AcDbLine
 10
10615.0
 20
6827.0
 30
0.0
 11
10618.0
 21
6697.0
 31
0.0
  0
LINE
  5
1A0
330
17
100
AcDbEntity
  8
WALLS
100
AcDbLine
 10
4264.0
 20
5082.0
 30
0.0
 11
4448.0
 21
4898.0
 31
0.0
  0
LINE
  5
1A1
330
17
100
AcDbEntity
  8
WALLS
100
AcDbLine
 10
5825.0
 20
3844.0
 30
0.0
 11
6410.0
 21
3260.0
 31
0.0
  0
LINE
  5
1A2
330
17
100
AcDbEntity
  8
WALLS
100
AcDbLine
 10
4824.0
 20
2386.0
 30
0.0
 11
4825.0
 21
2083.0
 31
0.0
  0
LINE
  5
1A3
330
17
100
AcDbEntity
  8
WALLS
100
AcDbLine
 10
4173.0
 20
5173.0
 30
0.0
 11
4357.0
 21
4989.0
 31
0.0
  0
LINE
  5
1A4
330
17
100
AcDbEntity
  8
WALLS
100
AcDbLine
 10
10615.0
 20
6751.0
 30
0.0
 11
10618.0
 21
6538.0
 31
0.0
  0
LINE
  5
1A5
330
17
100
AcDbEntity
  8
WALLS
100
AcDbLine
 10
4351.0
 20
1748.0
 30
0.0
 11
4614.0
 21
1748.0
 31
0.0
  0
LINE
  5
1A6
330
17
100
AcDbEntity
  8
WALLS
100
AcDbLine
 10
1684.0
 20
4596.0
 30
0.0
 11
2025.0
 21
4255.0
 31
0.0
  0
LINE
  5
1A7
330
17
100
AcDbEntity
  8
WALLS
100
AcDbLine
 10
9220.0
 20
1498.0
 30
0.0
 11
9340.0
 21
1497.0
 31
0.0
  0
LINE
  5
1A8
330
17
100
AcDbEntity
  8
WALLS
100
AcDbLine
 10
6699.0
 20
428.0
 30
0.0
 11
6892.0
 21
423.0
 31
0.0
  0
LINE
  5
1A9
330
17
100
AcDbEntity
  8
WALLS
100
AcDbLine
 10
4325.0
 20
3571.0
 30
0.0
 11
4474.0
 21
3557.0
 31
0.0
  0
LINE
  5
1AA
330
17
100
AcDbEntity
  8
WALLS
100
AcDbLine
 10
4841.0
 20
2912.0
 30
0.0
 11
5288.0
 21
2464.0
 31
0.0
  0
LINE
  5
1AB
330
17
100
AcDbEntity
  8
WALLS
100
AcDbLine
 10
9287.0
 20
1495.0
 30
0.0
 11
9584.0
 21
1492.0
 31
0.0
  0
LINE
  5
1AC
330
17
100
AcDbEntity
  8
WALLS
100
AcDbLine
 10
2958.0
 20
2110.0
 30
0.0
 11
3125.0
 21
2095.0
 31
0.0
  0
LINE
  5
1AD
330
17
100
AcDbEntity
  8
WALLS
100
AcDbLine
 10
4170.0
 20
1993.0
 30
0.0
 11
4278.0
 21
1990.0
 31
0.0
  0
LINE
  5
1AE
330
17
100
AcDbEntity
  8
WALLS
100
AcDbLine
 10
5597.0
 20
4396.0
 30
0.0
 11
5823.0
 21
4174.0
 31
0.0
  0
LINE
  5
1AF
330
17
100
AcDbEntity
  8
WALLS
100
AcDbLine
 10
10481.0
 20
1864.0
 30
0.0
 11
10481.0
 21
1968.0
 31
0.0
  0
LINE
  5
1B0
330
17
100
AcDbEntity
  8
WALLS
100
AcDbLine
 10
3558.0
 20
3067.0
 30
0.0
 11
3713.0
 21
3069.0
 31
0.0
  0
LINE
  5
1B1
330
17
100
AcDbEntity
  8
WALLS
100
AcDbLine
 10
5094.0
 20
3148.0
 30
0.0
 11
5304.0
 21
3126.0
 31
0.0
  0
LINE
  5
1B2
330
17
100
AcDbEntity
  8
WALLS
100
AcDbLine
 10
3735.0
 20
1747.0
 30
0.0
 11
3999.0
 21
1747.0
 31
0.0
  0
LINE
  5
1B3
330
17
100
AcDbEntity
  8
WALLS
100
AcDbLine
 10
3143.0
 20
5649.0
 30
0.0
 11
3245.0
 21
5549.0
 31
0.0
  0
LINE
  5
1B4
330
17
100
AcDbEntity
  8
WALLS
100
AcDbLine
 10
5302.0
 20
3057.0
 30
0.0
 11
5510.0
 21
2850.0
 31
0.0
  0
LINE
  5
1B5
330
17
100
AcDbEntity
  8
WALLS
100
AcDbLine
 10
6396.0
 20
3912.0
 30
0.0
 11
6675.0
 21
3634.0
 31
0.0
  0
LINE
  5
1B6
330
17
100
AcDbEntity
  8
WALLS
100
AcDbLine
 10
4718.0
 20
1943.0
 30
0.0
 11
4719.0
 21
1667.0
 31
0.0
  0
LINE
  5
1B7
330
17
100
AcDbEntity
  8
WALLS
100
AcDbLine
 10
9287.0
 20
1515.0
 30
0.0
 11
9391.0
 21
1519.0
 31
0.0
  0
LINE
  5
1B8
330
17
100
AcDbEntity
  8
WALLS
100
AcDbLine
 10
8297.0
 20
3590.0
 30
0.0
 11
8450.0
 21
3587.0
 31
0.0
  0
LINE
  5
1B9
330
17
100
AcDbEntity
  8
WALLS
100
AcDbLine
 10
5357.0
 20
1980.0
 30
0.0
 11
5471.0
 21
1974.0
 31
0.0
  0
LINE
  5
1BA
330
17
100
AcDbEntity
  8
WALLS
100
AcDbLine
 10
2019.0
 20
3191.0
 30
0.0
 11
2184.0
 21
3029.0
 31
0.0
  0
LINE
  5
1BB
330
17
100
AcDbEntity
  8
WALLS
100
AcDbLine
 10
5270.0
 20
441.0
 30
0.0
 11
5611.0
 21
440.0
 31
0.0
  0
LINE
  5
1BC
330
17
100
AcDbEntity
  8
WALLS
100
AcDbLine
 10
5595.0
 20
3399.0
 30
0.0
 11
5795.0
 21
3385.0
 31
0.0
  0
LINE
  5
1BD
330
17
100
AcDbEntity
  8
WALLS
100
AcDbLine
 10
4761.0
 20
5493.0
 30
0.0
 11
4902.0
 21
5352.0
 31
0.0
  0
LINE
  5
1BE
330
17
100
AcDbEntity
  8
WALLS
100
AcDbLine
 10
3651.0
 20
3412.0
 30
0.0
 11
4015.0
 21
3049.0
 31
0.0
  0
LINE
  5
1BF
330
17
100
AcDbEntity
  8
WALLS
100
AcDbLine
 10
2383.0
 20
4176.0
 30
0.0
 11
2474.0
 21
4084.0
 31
0.0
  0
LINE
  5
1C0
330
17
100
AcDbEntity
  8
WALLS
100
AcDbLine
 10
9052.0
 20
824.0
 30
0.0
 11
9160.0
 21
823.0
 31
0.0
  0
LINE
  5
1C1
330
17
100
AcDbEntity
  8
WALLS
100
AcDbLine
 10
10252.0
 20
1551.0
 30
0.0
 11
10408.0
 21
1556.0
 31
0.0
  0
LINE
  5
1C2
330
17
100
AcDbEntity
  8
WALLS
100
AcDbLine
 10
4859.0
 20
5109.0
 30
0.0
 11
5027.0
 21
5277.0
 31
0.0
  0
LINE
  5
1C3
330
17
100
AcDbEntity
  8
WALLS
100
AcDbLine
 10
4425.0
 20
2486.0
 30
0.0
 11
4567.0
 21
2483.0
 31
0.0
  0
LINE
  5
1C4
330
17
100
AcDbEntity
  8
WALLS
100
AcDbLine
 10
4537.0
 20
1991.0
 30
0.0
 11
4697.0
 21
1968.0
 31
0.0
  0
LINE
  5
1C5
330
17
100
AcDbEntity
  8
WALLS
100
AcDbLine
 10
4120.0
 20
5893.0
 30
0.0
 11
4131.0
 21
5669.0
 31
0.0
  0
LINE
  5
1C6
330
17
100
AcDbEntity
  8
WALLS
100
AcDbLine
 10
2842.0
 20
5222.0
 30
0.0
 11
3144.0
 21
4919.0
 31
0.0
  0
LINE
  5
1C7
330
17
100
AcDbEntity
  8
WALLS
100
AcDbLine
 10
3675.0
 20
5436.0
 30
0.0
 11
3802.0
 21
5308.0
 31
0.0
  0
LINE
  5
1C8
330
17
100
AcDbEntity
  8
WALLS
100
AcDbLine
 10
3738.0
 20
3568.0
 30
0.0
 11
3864.0
 21
3694.0
 31
0.0
  0
LINE
  5
1C9
330
17
100
AcDbEntity
  8
WALLS
100
AcDbLine
 10
4510.0
 20
1989.0
 30
0.0
 11
4670.0
 21
1977.0
 31
0.0
  0
LINE
  5
1CA
330
17
100
AcDbEntity
  8
WALLS
100
AcDbLine
 10
9346.0
 20
2392.0
 30
0.0
 11
9468.0
 21
2378.0
 31
0.0
  0
LINE
  5
1CB
330
17
100
AcDbEntity
  8
WALLS
100
AcDbLine
 10
3757.0
 20
4848.0
 30
0.0
 11
3907.0
 21
4705.0
 31
0.0
  0
LINE
  5
1CC
330
17
100
AcDbEntity
  8
WALLS
100
AcDbLine
 10
5278.0
 20
260.0
 30
0.0
 11
5430.0
 21
257.0
 31
0.0
  0
LINE
  5
1CD
330
17
100
AcDbEntity
  8
WALLS
100
AcDbLine
 10
4353.0
 20
2485.0
 30
0.0
 11
4464.0
 21
2483.0
 31
0.0
  0
LINE
  5
1CE
330
17
100
AcDbEntity
  8
WALLS
100
AcDbLine
 10
3499.0
 20
3036.0
 30
0.0
 11
3670.0
 21
3038.0
 31
0.0
  0
LINE
  5
1CF
330
17
100
AcDbEntity
  8
WALLS
100
AcDbLine
 10
8333.0
 20
3563.0
 30
0.0
 11
8562.0
 21
3562.0
 31
0.0
  0
LINE
  5
1D0
330
17
100
AcDbEntity
  8
WALLS
100
AcDbLine
 10
7704.0
 20
2006.0
 30
0.0
 11
7842.0
 21
1997.0
 31
0.0
  0
LINE
  5
1D1
330
17
100
AcDbEntity
  8
WALLS
100
AcDbLine
 10
7130.0
 20
3227.0
 30
0.0
 11
7322.0
 21
3230.0
 31
0.0
  0
LINE
  5
1D2
330
17
100
AcDbEntity
  8
WALLS
100
AcDbLine
 10
4669.0
 20
5043.0
 30
0.0
 11
4857.0
 21
4854.0
 31
0.0
  0
LINE
  5
1D3
330
17
100
AcDbEntity
  8
WALLS
100
AcDbLine
 10
8299.0
 20
3560.0
 30
0.0
 11
8523.0
 21
3541.0
 31
0.0
  0
LINE
  5
1D4
330
17
100
AcDbEntity
  8
WALLS
100
AcDbLine
 10
3811.0
 20
2370.0
 30
0.0
 11
3812.0
 21
1882.0
 31
0.0
  0
LINE
  5
1D5
330
17
100
AcDbEntity
  8
WALLS
100
AcDbLine
 10
3536.0
 20
2852.0
 30
0.0
 11
3721.0
 21
2692.0
 31
0.0
  0
LINE
  5
1D6
330
17
100
AcDbEntity
  8
WALLS
100
AcDbLine
 10
3390.0
 20
3490.0
 30
0.0
 11
3556.0
 21
3487.0
 31
0.0
  0
LINE
  5
1D7
330
17
100
AcDbEntity
  8
WALLS
100
AcDbLine
 10
4111.0
 20
1715.0
 30
0.0
 11
4211.0
 21
1716.0
 31
0.0
  0
LINE
  5
1D8
330
17
100
AcDbEntity
  8
WALLS
100
AcDbLine
 10
3317.0
 20
5087.0
 30
0.0
 11
3449.0
 21
4955.0
 31
0.0
  0
LINE
  5
1D9
330
17
100
AcDbEntity
  8
WALLS
100
AcDbLine
 10
9549.0
 20
2092.0
 30
0.0
 11
9673.0
 21
2078.0
 31
0.0
  0
LINE
  5
1DA
330
17
100
AcDbEntity
  8
WALLS
100
AcDbLine
 10
4750.0
 20
2874.0
 30
0.0
 11
4752.0
 21
2524.0
 31
0.0
  0
LINE
  5
1DB
330
17
100
AcDbEntity
  8
WALLS
100
AcDbLine
 10
5138.0
 20
3141.0
 30
0.0
 11
5284.0
 21
3140.0
 31
0.0
  0
LINE
  5
1DC
330
17
100
AcDbEntity
  8
WALLS
100
AcDbLine
 10
3828.0
 20
4670.0
 30
0.0
 11
4012.0
 21
4486.0
 31
0.0
  0
LINE
  5
1DD
330
17
100
AcDbEntity
  8
WALLS
100
AcDbLine
 10
5644.0
 20
3662.0
 30
0.0
 11
6047.0
 21
3260.0
 31
0.0
  0
LINE
  5
1DE
330
17
100
AcDbEntity
  8
WALLS
100
AcDbLine
 10
4356.0
 20
459.0
 30
0.0
 11
4464.0
 21
459.0
 31
0.0
  0
LINE
  5
1DF
330
17
100
AcDbEntity
  8
WALLS
100
AcDbLine
 10
3453.0
 20
1358.0
 30
0.0
 11
3631.0
 21
1358.0
 31
0.0
  0
LINE
  5
1E0
330
17
100
AcDbEntity
  8
WALLS
100
AcDbLine
 10
5747.0
 20
2256.0
 30
0.0
 11
5757.0
 21
1973.0
 31
0.0
  0
LINE
  5
1E1
330
17
100
AcDbEntity
  8
WALLS
100
AcDbLine
 10
9429.0
 20
1816.0
 30
0.0
 11
9549.0
 21
1806.0
 31
0.0
  0
LINE
  5
1E2
330
17
100
AcDbEntity
  8
WALLS
100
AcDbLine
 10
9421.0
 20
1780.0
 30
0.0
 11
9584.0
 21
1756.0
 31
0.0
  0
LINE
  5
1E3
330
17
100
AcDbEntity
  8
WALLS
100
AcDbLine
 10
3765.0
 20
6032.0
 30
0.0
 11
3991.0
 21
6021.0
 31
0.0
  0
LINE
  5
1E4
330
17
100
AcDbEntity
  8
WALLS
100
AcDbLine
 10
4511.0
 20
439.0
 30
0.0
 11
4624.0
 21
435.0
 31
0.0
  0
LINE
  5
1E5
330
17
100
AcDbEntity
  8
WALLS
100
AcDbLine
 10
10187.0
 20
1498.0
 30
0.0
 11
10461.0
 21
1478.0
 31
0.0
  0
LINE
  5
1E6
330
17
100
AcDbEntity
  8
WALLS
100
AcDbLine
 10
8380.0
 20
619.0
 30
0.0
 11
8562.0
 21
609.0
 31
0.0
  0
LINE
  5
1E7
330
17
100
AcDbEntity
  8
WALLS
100
AcDbLine
 10
5401.0
 20
4584.0
 30
0.0
 11
5544.0
 21
4450.0
 31
0.0
  0
LINE
  5
1E8
330
17
100
AcDbEntity
  8
WALLS
100
AcDbLine
 10
3107.0
 20
5162.0
 30
0.0
 11
3349.0
 21
4920.0
 31
0.0
  0
LINE
  5
1E9
330
17
100
AcDbEntity
  8
WALLS
100
AcDbLine
 10
9288.0
 20
2103.0
 30
0.0
 11
9392.0
 21
2102.0
 31
0.0
  0
LINE
  5
1EA
330
17
100
AcDbEntity
  8
WALLS
100
AcDbLine
 10
4380.0
 20
3239.0
 30
0.0
 11
4381.0
 21
2881.0
 31
0.0
  0
LINE
  5
1EB
330
17
100
AcDbEntity
  8
WALLS
100
AcDbLine
 10
3356.0
 20
3741.0
 30
0.0
 11
3603.0
 21
3495.0
 31
0.0
  0
LINE
  5
1EC
330
17
100
AcDbEntity
  8
WALLS
100
AcDbLine
 10
3041.0
 20
503.0
 30
0.0
 11
3155.0
 21
496.0
 31
0.0
  0
LINE
  5
1ED
330
17
100
AcDbEntity
  8
WALLS
100
AcDbLine
 10
6402.0
 20
408.0
 30
0.0
 11
6637.0
 21
404.0
 31
0.0
  0
LINE
  5
1EE
330
17
100
AcDbEntity
  8
WALLS
100
AcDbLine
 10
8443.0
 20
629.0
 30
0.0
 11
8656.0
 21
627.0
 31
0.0
  0
LINE
  5
1EF
330
17
100
AcDbEntity
  8
WALLS
100
AcDbLine
 10
3736.0
 20
2390.0
 30
0.0
 11
3738.0
 21
2219.0
 31
0.0
  0
LINE
  5
1F0
330
17
100
AcDbEntity
  8
WALLS
100
AcDbLine
 10
7096.0
 20
3394.0
 30
0.0
 11
7232.0
 21
3392.0
 31
0.0
  0
LINE
  5
1F1
330
17
100
AcDbEntity
  8
WALLS
100
AcDbLine
 10
8531.0
 20
3610.0
 30
0.0
 11
8640.0
 21
3610.0
 31
0.0
  0
LINE
  5
1F2
330
17
100
AcDbEntity
  8
WALLS
100
AcDbLine
 10
5119.0
 20
2626.0
 30
0.0
 11
5260.0
 21
2485.0
 31
0.0
  0
LINE
  5
1F3
330
17
100
AcDbEntity
  8
WALLS
100
AcDbLine
 10
7701.0
 20
3113.0
 30
0.0
 11
7828.0
 21
3116.0
 31
0.0
  0
LINE
  5
1F4
330
17
100
AcDbEntity
  8
WALLS
100
AcDbLine
 10
9503.0
 20
2082.0
 30
0.0
 11
9723.0
 21
2080.0
 31
0.0
  0
LINE
  5
1F5
330
17
100
AcDbEntity
  8
WALLS
100
AcDbLine
 10
2879.0
 20
3188.0
 30
0.0
 11
3071.0
 21
3188.0
 31
0.0
  0
LINE
  5
1F6
330
17
100
AcDbEntity
  8
WALLS
100
AcDbLine
 10
4356.0
 20
6735.0
 30
0.0
 11
4439.0
 21
6820.0
 31
0.0
  0
LINE
  5
1F7
330
17
100
AcDbEntity
  8
WALLS
100
AcDbLine
 10
2800.0
 20
5068.0
 30
0.0
 11
2812.0
 21
4843.0
 31
0.0
  0
LINE
  5
1F8
330
17
100
AcDbEntity
  8
WALLS
100
AcDbLine
 10
4112.0
 20
2852.0
 30
0.0
 11
4279.0
 21
2850.0
 31
0.0
  0
LINE
  5
1F9
330
17
100
AcDbEntity
  8
WALLS
100
AcDbLine
 10
6699.0
 20
423.0
 30
0.0
 11
6863.0
 21
403.0
 31
0.0
  0
LINE
  5
1FA
330
17
100
AcDbEntity
  8
WALLS
100
AcDbLine
 10
9316.0
 20
616.0
 30
0.0
 11
9421.0
 21
620.0
 31
0.0
  0
LINE
  5
1FB
330
17
100
AcDbEntity
  8
WALLS
100
AcDbLine
 10
2780.0
 20
5229.0
 30
0.0
 11
2885.0
 21
5122.0
 31
0.0
  0
LINE
  5
1FC
330
17
100
AcDbEntity
  8
WALLS
100
AcDbLine
 10
2984.0
 20
2113.0
 30
0.0
 11
3127.0
 21
2089.0
 31
0.0
  0
LINE
  5
1FD
330
17
100
AcDbEntity
  8
WALLS
100
AcDbLine
 10
7271.0
 20
3443.0
 30
0.0
 11
7538.0
 21
3436.0
 31
0.0
  0
LINE
  5
1FE
330
17
100
AcDbEntity
  8
WALLS
100
AcDbLine
 10
8716.0
 20
675.0
 30
0.0
 11
8849.0
 21
668.0
 31
0.0
  0
LINE
  5
1FF
330
17
100
AcDbEntity
  8
WALLS
100
AcDbLine
 10
3887.0
 20
4793.0
 30
0.0
 11
3993.0
 21
4685.0
 31
0.0
  0
LINE
  5
200
330
17
100
AcDbEntity
  8
WALLS
100
AcDbLine
 10
4023.0
 20
5486.0
 30
0.0
 11
4223.0
 21
5285.0
 31
0.0
  0
LINE
  5
201
330
17
100
AcDbEntity
  8
WALLS
100
AcDbLine
 10
3628.0
 20
5441.0
 30
0.0
 11
3805.0
 21
5269.0
 31
0.0
  0
LINE
  5
202
330
17
100
AcDbEntity
  8
WALLS
100
AcDbLine
 10
9605.0
 20
2103.0
 30
0.0
 11
9723.0
 21
2096.0
 31
0.0
  0
LINE
  5
203
330
17
100
AcDbEntity
  8
WALLS
100
AcDbLine
 10
6989.0
 20
3227.0
 30
0.0
 11
7102.0
 21
3230.0
 31
0.0
  0
LINE
  5
204
330
17
100
AcDbEntity
  8
WALLS
100
AcDbLine
 10
10323.0
 20
1971.0
 30
0.0
 11
10423.0
 21
1969.0
 31
0.0
  0
LINE
  5
205
330
17
100
AcDbEntity
  8
WALLS
100
AcDbLine
 10
3567.0
 20
3036.0
 30
0.0
 11
3702.0
 21
3038.0
 31
0.0
  0
LINE
  5
206
330
17
100
AcDbEntity
  8
WALLS
100
AcDbLine
 10
7318.0
 20
3432.0
 30
0.0
 11
7425.0
 21
3426.0
 31
0.0
  0
LINE
  5
207
330
17
100
AcDbEntity
  8
WALLS
100
AcDbLine
 10
3885.0
 20
2298.0
 30
0.0
 11
4172.0
 21
2296.0
 31
0.0
  0
LINE
  5
208
330
17
100
AcDbEntity
  8
WALLS
100
AcDbLine
 10
4387.0
 20
2266.0
 30
0.0
 11
4388.0
 21
2071.0
 31
0.0
  0
LINE
  5
209
330
17
100
AcDbEntity
  8
WALLS
100
AcDbLine
 10
5874.0
 20
1689.0
 30
0.0
 11
6184.0
 21
1379.0
 31
0.0
  0
LINE
  5
20A
330
17
100
AcDbEntity
  8
WALLS
100
AcDbLine
 10
9420.0
 20
1827.0
 30
0.0
 11
9547.0
 21
1825.0
 31
0.0
  0
LINE
  5
20B
330
17
100
AcDbEntity
  8
WALLS
100
AcDbLine
 10
5578.0
 20
4416.0
 30
0.0
 11
5692.0
 21
4305.0
 31
0.0
  0
LINE
  5
20C
330
17
100
AcDbEntity
  8
WALLS
100
AcDbLine
 10
3775.0
 20
5493.0
 30
0.0
 11
3982.0
 21
5286.0
 31
0.0
  0
LINE
  5
20D
330
17
100
AcDbEntity
  8
WALLS
100
AcDbLine
 10
10027.0
 20
5601.0
 30
0.0
 11
10492.0
 21
5592.0
 31
0.0
  0
LINE
  5
20E
330
17
100
AcDbEntity
  8
WALLS
100
AcDbLine
 10
6438.0
 20
382.0
 30
0.0
 11
6545.0
 21
379.0
 31
0.0
  0
LINE
  5
20F
330
17
100
AcDbEntity
  8
WALLS
100
AcDbLine
 10
3881.0
 20
3524.0
 30
0.0
 11
4140.0
 21
3265.0
 31
0.0
  0
LINE
  5
210
330
17
100
AcDbEntity
  8
WALLS
100
AcDbLine
 10
3278.0
 20
5869.0
 30
0.0
 11
3518.0
 21
5629.0
 31
0.0
  0
LINE
  5
211
330
17
100
AcDbEntity
  8
WALLS
100
AcDbLine
 10
4687.0
 20
5708.0
 30
0.0
 11
4901.0
 21
5494.0
 31
0.0
  0
LINE
  5
212
330
17
100
AcDbEntity
  8
WALLS
100
AcDbLine
 10
4510.0
 20
437.0
 30
0.0
 11
4627.0
 21
445.0
 31
0.0
  0
LINE
  5
213
330
17
100
AcDbEntity
  8
WALLS
100
AcDbLine
 10
4998.0
 20
4891.0
 30
0.0
 11
5142.0
 21
4748.0
 31
0.0
  0
LINE
  5
214
330
17
100
AcDbEntity
  8
WALLS
100
AcDbLine
 10
2171.0
 20
2263.0
 30
0.0
 11
2284.0
 21
2264.0
 31
0.0
  0
LINE
  5
215
330
17
100
AcDbEntity
  8
WALLS
100
AcDbLine
 10
3037.0
 20
4057.0
 30
0.0
 11
3296.0
 21
3798.0
 31
0.0
  0
LINE
  5
216
330
17
100
AcDbEntity
  8
WALLS
100
AcDbLine
 10
4353.0
 20
2779.0
 30
0.0
 11
4465.0
 21
2770.0
 31
0.0
  0
LINE
  5
217
330
17
100
AcDbEntity
  8
WALLS
100
AcDbLine
 10
9346.0
 20
1767.0
 30
0.0
 11
9556.0
 21
1755.0
 31
0.0
  0
LINE
  5
218
330
17
100
AcDbEntity
  8
WALLS
100
AcDbLine
 10
9959.0
 20
317.0
 30
0.0
 11
10085.0
 21
311.0
 31
0.0
  0
LINE
  5
219
330
17
100
AcDbEntity
  8
WALLS
100
AcDbLine
 10
4359.0
 20
1348.0
 30
0.0
 11
4490.0
 21
1345.0
 31
0.0
  0
LINE
  5
21A
330
17
100
AcDbEntity
  8
WALLS
100
AcDbLine
 10
7708.0
 20
1836.0
 30
0.0
 11
7847.0
 21
1834.0
 31
0.0
  0
LINE
  5
21B
330
17
100
AcDbEntity
  8
WALLS
100
AcDbLine
 10
3978.0
 20
5461.0
 30
0.0
 11
3987.0
 21
5275.0
 31
0.0
  0
LINE
  5
21C
330
17
100
AcDbEntity
  8
WALLS
100
AcDbLine
 10
7707.0
 20
1859.0
 30
0.0
 11
7830.0
 21
1851.0
 31
0.0
  0
LINE
  5
21D
330
17
100
AcDbEntity
  8
WALLS
100
AcDbLine
 10
3148.0
 20
2089.0
 30
0.0
 11
3344.0
 21
2087.0
 31
0.0
  0
LINE
  5
21E
330
17
100
AcDbEntity
  8
WALLS
100
AcDbLine
 10
9220.0
 20
1808.0
 30
0.0
 11
9406.0
 21
1801.0
 31
0.0
  0
LINE
  5
21F
330
17
100
AcDbEntity
  8
WALLS
100
AcDbLine
 10
3997.0
 20
1801.0
 30
0.0
 11
3999.0
 21
1672.0
 31
0.0
  0
LINE
  5
220
330
17
100
AcDbEntity
  8
WALLS
100
AcDbLine
 10
6248.0
 20
560.0
 30
0.0
 11
6370.0
 21
563.0
 31
0.0
  0
LINE
  5
221
330
17
100
AcDbEntity
  8
WALLS
100
AcDbLine
 10
5256.0
 20
2019.0
 30
0.0
 11
5256.0
 21
2273.0
 31
0.0
  0
LINE
  5
222
330
17
100
AcDbEntity
  8
WALLS
100
AcDbLine
 10
10615.0
 20
6966.0
 30
0.0
 11
10618.0
 21
6743.0
 31
0.0
  0
LINE
  5
223
330
17
100
AcDbEntity
  8
WALLS
100
AcDbLine
 10
2275.0
 20
4195.0
 30
0.0
 11
2408.0
 21
4062.0
 31
0.0
  0
LINE
  5
224
330
17
100
AcDbEntity
  8
WALLS
100
AcDbLine
 10
7423.0
 20
5062.0
 30
0.0
 11
7540.0
 21
5058.0
 31
0.0
  0
LINE
  5
225
330
17
100
AcDbEntity
  8
WALLS
100
AcDbLine
 10
2974.0
 20
4688.0
 30
0.0
 11
3169.0
 21
4493.0
 31
0.0
  0
LINE
  5
226
330
17
100
AcDbEntity
  8
WALLS
100
AcDbLine
 10
4511.0
 20
2727.0
 30
0.0
 11
4515.0
 21
2524.0
 31
0.0
  0
LINE
  5
227
330
17
100
AcDbEntity
  8
WALLS
100
AcDbLine
 10
6531.0
 20
5149.0
 30
0.0
 11
6676.0
 21
5146.0
 31
0.0
  0
LINE
  5
228
330
17
100
AcDbEntity
  8
WALLS
100
AcDbLine
 10
3510.0
 20
5193.0
 30
0.0
 11
3512.0
 21
5078.0
 31
0.0
  0
LINE
  5
229
330
17
100
AcDbEntity
  8
WALLS
100
AcDbLine
 10
5584.0
 20
592.0
 30
0.0
 11
5593.0
 21
428.0
 31
0.0
  0
LINE
  5
22A
330
17
100
AcDbEntity
  8
WALLS
100
AcDbLine
 10
4824.0
 20
2236.0
 30
0.0
 11
5008.0
 21
2233.0
 31
0.0
  0
LINE
  5
22B
330
17
100
AcDbEntity
  8
WALLS
100
AcDbLine
 10
4596.0
 20
5435.0
 30
0.0
 11
4691.0
 21
5343.0
 31
0.0
  0
LINE
  5
22C
330
17
100
AcDbEntity
  8
WALLS
100
AcDbLine
 10
5227.0
 20
2981.0
 30
0.0
 11
5433.0
 21
2776.0
 31
0.0
  0
LINE
  5
22D
330
17
100
AcDbEntity
  8
WALLS
100
AcDbLine
 10
9608.0
 20
2394.0
 30
0.0
 11
9745.0
 21
2390.0
 31
0.0
  0
LINE
  5
22E
330
17
100
AcDbEntity
  8
WALLS
100
AcDbLine
 10
5356.0
 20
3109.0
 30
0.0
 11
5561.0
 21
2904.0
 31
0.0
  0
LINE
  5
22F
330
17
100
AcDbEntity
  8
WALLS
100
AcDbLine
 10
8301.0
 20
3538.0
 30
0.0
 11
8490.0
 21
3537.0
 31
0.0
  0
LINE
  5
230
330
17
100
AcDbEntity
  8
WALLS
100
AcDbLine
 10
10017.0
 20
1848.0
 30
0.0
 11
10174.0
 21
1836.0
 31
0.0
  0
LINE
  5
231
330
17
100
AcDbEntity
  8
WALLS
100
AcDbLine
 10
4366.0
 20
2758.0
 30
0.0
 11
4511.0
 21
2753.0
 31
0.0
  0
LINE
  5
232
330
17
100
AcDbEntity
  8
WALLS
100
AcDbLine
 10
4356.0
 20
6211.0
 30
0.0
 11
4526.0
 21
6187.0
 31
0.0
  0
LINE
  5
233
330
17
100
AcDbEntity
  8
WALLS
100
AcDbLine
 10
5331.0
 20
3631.0
 30
0.0
 11
5452.0
 21
3514.0
 31
0.0
  0
LINE
  5
234
330
17
100
AcDbEntity
  8
WALLS
100
AcDbLine
 10
3347.0
 20
4810.0
 30
0.0
 11
3547.0
 21
4610.0
 31
0.0
  0
LINE
  5
235
330
17
100
AcDbEntity
  8
WALLS
100
AcDbLine
 10
5097.0
 20
3152.0
 30
0.0
 11
5260.0
 21
3137.0
 31
0.0
  0
LINE
  5
236
330
17
100
AcDbEntity
  8
WALLS
100
AcDbLine
 10
3729.0
 20
5524.0
 30
0.0
 11
3807.0
 21
5602.0
 31
0.0
  0
LINE
  5
237
330
17
100
AcDbEntity
  8
WALLS
100
AcDbLine
 10
3543.0
 20
2846.0
 30
0.0
 11
3543.0
 21
2946.0
 31
0.0
  0
LINE
  5
238
330
17
100
AcDbEntity
  8
WALLS
100
AcDbLine
 10
4320.0
 20
1345.0
 30
0.0
 11
4434.0
 21
1348.0
 31
0.0
  0
LINE
  5
239
330
17
100
AcDbEntity
  8
WALLS
100
AcDbLine
 10
8380.0
 20
665.0
 30
0.0
 11
8642.0
 21
649.0
 31
0.0
  0
LINE
  5
23A
330
17
100
AcDbEntity
  8
WALLS
100
AcDbLine
 10
5056.0
 20
1860.0
 30
0.0
 11
5056.0
 21
1992.0
 31
0.0
  0
LINE
  5
23B
330
17
100
AcDbEntity
  8
WALLS
100
AcDbLine
 10
4372.0
 20
6006.0
 30
0.0
 11
4373.0
 21
5639.0
 31
0.0
  0
LINE
  5
23C
330
17
100
AcDbEntity
  8
WALLS
100
AcDbLine
 10
4994.0
 20
3605.0
 30
0.0
 11
5204.0
 21
3396.0
 31
0.0
  0
LINE
  5
23D
330
17
100
AcDbEntity
  8
WALLS
100
AcDbLine
 10
3919.0
 20
4987.0
 30
0.0
 11
4056.0
 21
4852.0
 31
0.0
  0
LINE
  5
23E
330
17
100
AcDbEntity
  8
WALLS
100
AcDbLine
 10
9481.0
 20
1771.0
 30
0.0
 11
9584.0
 21
1765.0
 31
0.0
  0
LINE
  5
23F
330
17
100
AcDbEntity
  8
WALLS
100
AcDbLine
 10
4246.0
 20
2370.0
 30
0.0
 11
4247.0
 21
1992.0
 31
0.0
  0
LINE
  5
240
330
17
100
AcDbEntity
  8
WALLS
100
AcDbLine
 10
4973.0
 20
5037.0
 30
0.0
 11
5101.0
 21
5023.0
 31
0.0
  0
LINE
  5
241
330
17
100
AcDbEntity
  8
WALLS
100
AcDbLine
 10
5852.0
 20
4142.0
 30
0.0
 11
5967.0
 21
4029.0
 31
0.0
  0
LINE
  5
242
330
17
100
AcDbEntity
  8
WALLS
100
AcDbLine
 10
4377.0
 20
2248.0
 30
0.0
 11
4378.0
 21
2040.0
 31
0.0
  0
LINE
  5
243
330
17
100
AcDbEntity
  8
WALLS
100
AcDbLine
 10
3606.0
 20
5994.0
 30
0.0
 11
3692.0
 21
6078.0
 31
0.0
  0
LINE
  5
244
330
17
100
AcDbEntity
  8
WALLS
100
AcDbLine
 10
3899.0
 20
1562.0
 30
0.0
 11
3982.0
 21
1642.0
 31
0.0
  0
LINE
  5
245
330
17
100
AcDbEntity
  8
WALLS
100
AcDbLine
 10
4875.0
 20
2974.0
 30
0.0
 11
5038.0
 21
2811.0
 31
0.0
  0
LINE
  5
246
330
17
100
AcDbEntity
  8
WALLS
100
AcDbLine
 10
5408.0
 20
4509.0
 30
0.0
 11
5547.0
 21
4354.0
 31
0.0
  0
LINE
  5
247
330
17
100
AcDbEntity
  8
WALLS
100
AcDbLine
 10
3501.0
 20
5132.0
 30
0.0
 11
3502.0
 21
5032.0
 31
0.0
  0
LINE
  5
248
330
17
100
AcDbEntity
  8
WALLS
100
AcDbLine
 10
9504.0
 20
2104.0
 30
0.0
 11
9722.0
 21
2104.0
 31
0.0
  0
LINE
  5
249
330
17
100
AcDbEntity
  8
WALLS
100
AcDbLine
 10
4550.0
 20
2726.0
 30
0.0
 11
4553.0
 21
2524.0
 31
0.0
  0
LINE
  5
24A
330
17
100
AcDbEntity
  8
WALLS
100
AcDbLine
 10
2438.0
 20
1363.0
 30
0.0
 11
2678.0
 21
1362.0
 31
0.0
  0
LINE
  5
24B
330
17
100
AcDbEntity
  8
WALLS
100
AcDbLine
 10
4546.0
 20
4698.0
 30
0.0
 11
4617.0
 21
4769.0
 31
0.0
  0
LINE
  5
24C
330
17
100
AcDbEntity
  8
WALLS
100
AcDbLine
 10
3813.0
 20
1853.0
 30
0.0
 11
3813.0
 21
2274.0
 31
0.0
  0
LINE
  5
24D
330
17
100
AcDbEntity
  8
WALLS
100
AcDbLine
 10
5270.0
 20
378.0
 30
0.0
 11
5617.0
 21
377.0
 31
0.0
  0
LINE
  5
24E
330
17
100
AcDbEntity
  8
WALLS
100
AcDbLine
 10
3933.0
 20
3430.0
 30
0.0
 11
4114.0
 21
3253.0
 31
0.0
  0
LINE
  5
24F
330
17
100
AcDbEntity
  8
WALLS
100
AcDbLine
 10
7703.0
 20
2645.0
 30
0.0
 11
7840.0
 21
2644.0
 31
0.0
  0
LINE
  5
250
330
17
100
AcDbEntity
  8
WALLS
100
AcDbLine
 10
9364.0
 20
2077.0
 30
0.0
 11
9474.0
 21
2083.0
 31
0.0
  0
LINE
  5
251
330
17
100
AcDbEntity
  8
WALLS
100
AcDbLine
 10
6728.0
 20
5062.0
 30
0.0
 11
6854.0
 21
5055.0
 31
0.0
  0
LINE
  5
252
330
17
100
AcDbEntity
  8
WALLS
100
AcDbLine
 10
3837.0
 20
1673.0
 30
0.0
 11
3998.0
 21
1671.0
 31
0.0
  0
LINE
  5
253
330
17
100
AcDbEntity
  8
WALLS
100
AcDbLine
 10
2338.0
 20
1362.0
 30
0.0
 11
2451.0
 21
1363.0
 31
0.0
  0
LINE
  5
254
330
17
100
AcDbEntity
  8
WALLS
100
AcDbLine
 10
3378.0
 20
1379.0
 30
0.0
 11
3603.0
 21
1378.0
 31
0.0
  0
LINE
  5
255
330
17
100
AcDbEntity
  8
WALLS
100
AcDbLine
 10
3735.0
 20
2117.0
 30
0.0
 11
3737.0
 21
1948.0
 31
0.0
  0
LINE
  5
256
330
17
100
AcDbEntity
  8
WALLS
100
AcDbLine
 10
5480.0
 20
2856.0
 30
0.0
 11
5729.0
 21
2607.0
 31
0.0
  0
LINE
  5
257
330
17
100
AcDbEntity
  8
WALLS
100
AcDbLine
 10
6287.0
 20
560.0
 30
0.0
 11
6458.0
 21
562.0
 31
0.0
  0
LINE
  5
258
330
17
100
AcDbEntity
  8
WALLS
100
AcDbLine
 10
9608.0
 20
2369.0
 30
0.0
 11
9744.0
 21
2369.0
 31
0.0
  0
LINE
  5
259
330
17
100
AcDbEntity
  8
WALLS
100
AcDbLine
 10
3029.0
 20
1378.0
 30
0.0
 11
3142.0
 21
1379.0
 31
0.0
  0
LINE
  5
25A
330
17
100
AcDbEntity
  8
WALLS
100
AcDbLine
 10
3140.0
 20
4051.0
 30
0.0
 11
3253.0
 21
4050.0
 31
0.0
  0
LINE
  5
25B
330
17
100
AcDbEntity
  8
WALLS
100
AcDbLine
 10
10223.0
 20
1498.0
 30
0.0
 11
10429.0
 21
1495.0
 31
0.0
  0
LINE
  5
25C
330
17
100
AcDbEntity
  8
WALLS
100
AcDbLine
 10
9900.0
 20
6898.0
 30
0.0
 11
9904.0
 21
6607.0
 31
0.0
  0
LINE
  5
25D
330
17
100
AcDbEntity
  8
WALLS
100
AcDbLine
 10
8580.0
 20
3730.0
 30
0.0
 11
8694.0
 21
3736.0
 31
0.0
  0
LINE
  5
25E
330
17
100
AcDbEntity
  8
WALLS
100
AcDbLine
 10
8342.0
 20
3562.0
 30
0.0
 11
8462.0
 21
3552.0
 31
0.0
  0
LINE
  5
25F
330
17
100
AcDbEntity
  8
WALLS
100
AcDbLine
 10
10023.0
 20
5644.0
 30
0.0
 11
10419.0
 21
5637.0
 31
0.0
  0
LINE
  5
260
330
17
100
AcDbEntity
  8
WALLS
100
AcDbLine
 10
5961.0
 20
3636.0
 30
0.0
 11
6146.0
 21
3451.0
 31
0.0
  0
LINE
  5
261
330
17
100
AcDbEntity
  8
WALLS
100
AcDbLine
 10
8441.0
 20
672.0
 30
0.0
 11
8543.0
 21
675.0
 31
0.0
  0
LINE
  5
262
330
17
100
AcDbEntity
  8
WALLS
100
AcDbLine
 10
5121.0
 20
4877.0
 30
0.0
 11
5215.0
 21
4780.0
 31
0.0
  0
LINE
  5
263
330
17
100
AcDbEntity
  8
WALLS
100
AcDbLine
 10
3711.0
 20
6572.0
 30
0.0
 11
4186.0
 21
6100.0
 31
0.0
  0
LINE
  5
264
330
17
100
AcDbEntity
  8
WALLS
100
AcDbLine
 10
4485.0
 20
453.0
 30
0.0
 11
4595.0
 21
461.0
 31
0.0
  0
LINE
  5
265
330
17
100
AcDbEntity
  8
WALLS
100
AcDbLine
 10
3108.0
 20
4129.0
 30
0.0
 11
3394.0
 21
3843.0
 31
0.0
  0
LINE
  5
266
330
17
100
AcDbEntity
  8
WALLS
100
AcDbLine
 10
4287.0
 20
1950.0
 30
0.0
 11
4288.0
 21
1786.0
 31
0.0
  0
LINE
  5
267
330
17
100
AcDbEntity
  8
WALLS
100
AcDbLine
 10
6533.0
 20
5150.0
 30
0.0
 11
6636.0
 21
5152.0
 31
0.0
  0
LINE
  5
268
330
17
100
AcDbEntity
  8
WALLS
100
AcDbLine
 10
7197.0
 20
243.0
 30
0.0
 11
7316.0
 21
243.0
 31
0.0
  0
LINE
  5
269
330
17
100
AcDbEntity
  8
WALLS
100
AcDbLine
 10
4799.0
 20
5338.0
 30
0.0
 11
4997.0
 21
5140.0
 31
0.0
  0
LINE
  5
26A
330
17
100
AcDbEntity
  8
WALLS
100
AcDbLine
 10
3640.0
 20
5983.0
 30
0.0
 11
4060.0
 21
5564.0
 31
0.0
  0
LINE
  5
26B
330
17
100
AcDbEntity
  8
WALLS
100
AcDbLine
 10
3735.0
 20
1674.0
 30
0.0
 11
3841.0
 21
1561.0
 31
0.0
  0
LINE
  5
26C
330
17
100
AcDbEntity
  8
WALLS
100
AcDbLine
 10
1799.0
 20
1363.0
 30
0.0
 11
2038.0
 21
1362.0
 31
0.0
  0
LINE
  5
26D
330
17
100
AcDbEntity
  8
WALLS
100
AcDbLine
 10
2911.0
 20
5439.0
 30
0.0
 11
3035.0
 21
5315.0
 31
0.0
  0
LINE
  5
26E
330
17
100
AcDbEntity
  8
WALLS
100
AcDbLine
 10
5223.0
 20
2179.0
 30
0.0
 11
5225.0
 21
2074.0
 31
0.0
  0
LINE
  5
26F
330
17
100
AcDbEntity
  8
WALLS
100
AcDbLine
 10
3720.0
 20
5434.0
 30
0.0
 11
3824.0
 21
5330.0
 31
0.0
  0
LINE
  5
270
330
17
100
AcDbEntity
  8
WALLS
100
AcDbLine
 10
10134.0
 20
5628.0
 30
0.0
 11
10276.0
 21
5632.0
 31
0.0
  0
LINE
  5
271
330
17
100
AcDbEntity
  8
WALLS
100
AcDbLine
 10
9244.0
 20
1248.0
 30
0.0
 11
9611.0
 21
1244.0
 31
0.0
  0
LINE
  5
272
330
17
100
AcDbEntity
  8
WALLS
100
AcDbLine
 10
2336.0
 20
3120.0
 30
0.0
 11
2571.0
 21
2916.0
 31
0.0
  0
LINE
  5
273
330
17
100
AcDbEntity
  8
WALLS
100
AcDbLine
 10
1694.0
 20
2704.0
 30
0.0
 11
1778.0
 21
2786.0
 31
0.0
  0
LINE
  5
274
330
17
100
AcDbEntity
  8
WALLS
100
AcDbLine
 10
4925.0
 20
2711.0
 30
0.0
 11
5069.0
 21
2567.0
 31
0.0
  0
LINE
  5
275
330
17
100
AcDbEntity
  8
WALLS
100
AcDbLine
 10
10321.0
 20
6728.0
 30
0.0
 11
10329.0
 21
6582.0
 31
0.0
  0
LINE
  5
276
330
17
100
AcDbEntity
  8
WALLS
100
AcDbLine
 10
8379.0
 20
3729.0
 30
0.0
 11
8495.0
 21
3733.0
 31
0.0
  0
LINE
  5
277
330
17
100
AcDbEntity
  8
WALLS
100
AcDbLine
 10
2968.0
 20
1378.0
 30
0.0
 11
3074.0
 21
1379.0
 31
0.0
  0
LINE
  5
278
330
17
100
AcDbEntity
  8
WALLS
100
AcDbLine
 10
9244.0
 20
1230.0
 30
0.0
 11
9549.0
 21
1223.0
 31
0.0
  0
LINE
  5
279
330
17
100
AcDbEntity
  8
WALLS
100
AcDbLine
 10
8495.0
 20
618.0
 30
0.0
 11
8613.0
 21
611.0
 31
0.0
  0
LINE
  5
27A
330
17
100
AcDbEntity
  8
WALLS
100
AcDbLine
 10
8675.0
 20
3610.0
 30
0.0
 11
8782.0
 21
3607.0
 31
0.0
  0
LINE
  5
27B
330
17
100
AcDbEntity
  8
WALLS
100
AcDbLine
 10
3736.0
 20
2268.0
 30
0.0
 11
3739.0
 21
2445.0
 31
0.0
  0
LINE
  5
27C
330
17
100
AcDbEntity
  8
WALLS
100
AcDbLine
 10
3341.0
 20
2264.0
 30
0.0
 11
3559.0
 21
2263.0
 31
0.0
  0
LINE
  5
27D
330
17
100
AcDbEntity
  8
WALLS
100
AcDbLine
 10
4390.0
 20
1854.0
 30
0.0
 11
4503.0
 21
1853.0
 31
0.0
  0
LINE
  5
27E
330
17
100
AcDbEntity
  8
WALLS
100
AcDbLine
 10
1880.0
 20
4286.0
 30
0.0
 11
1992.0
 21
4398.0
 31
0.0
  0
LINE
  5
27F
330
17
100
AcDbEntity
  8
WALLS
100
AcDbLine
 10
9355.0
 20
2347.0
 30
0.0
 11
9475.0
 21
2345.0
 31
0.0
  0
LINE
  5
280
330
17
100
AcDbEntity
  8
WALLS
100
AcDbLine
 10
8442.0
 20
649.0
 30
0.0
 11
8559.0
 21
655.0
 31
0.0
  0
LINE
  5
281
330
17
100
AcDbEntity
  8
WALLS
100
AcDbLine
 10
3369.0
 20
4832.0
 30
0.0
 11
3556.0
 21
4645.0
 31
0.0
  0
LINE
  5
282
330
17
100
AcDbEntity
  8
WALLS
100
AcDbLine
 10
9309.0
 20
1272.0
 30
0.0
 11
9423.0
 21
1271.0
 31
0.0
  0
LINE
  5
283
330
17
100
AcDbEntity
  8
WALLS
100
AcDbLine
 10
4632.0
 20
1356.0
 30
0.0
 11
4732.0
 21
1359.0
 31
0.0
  0
LINE
  5
284
330
17
100
AcDbEntity
  8
WALLS
100
AcDbLine
 10
3563.0
 20
5951.0
 30
0.0
 11
3641.0
 21
6027.0
 31
0.0
  0
LINE
  5
285
330
17
100
AcDbEntity
  8
WALLS
100
AcDbLine
 10
9298.0
 20
2370.0
 30
0.0
 11
9447.0
 21
2368.0
 31
0.0
  0
LINE
  5
286
330
17
100
AcDbEntity
  8
WALLS
100
AcDbLine
 10
4129.0
 20
5771.0
 30
0.0
 11
4131.0
 21
5890.0
 31
0.0
  0
LINE
  5
287
330
17
100
AcDbEntity
  8
WALLS
100
AcDbLine
 10
5071.0
 20
5253.0
 30
0.0
 11
5350.0
 21
4975.0
 31
0.0
  0
LINE
  5
288
330
17
100
AcDbEntity
  8
WALLS
100
AcDbLine
 10
5344.0
 20
5568.0
 30
0.0
 11
5435.0
 21
5476.0
 31
0.0
  0
LINE
  5
289
330
17
100
AcDbEntity
  8
WALLS
100
AcDbLine
 10
4514.0
 20
1992.0
 30
0.0
 11
4693.0
 21
1977.0
 31
0.0
  0
LINE
  5
28A
330
17
100
AcDbEntity
  8
WALLS
100
AcDbLine
 10
9410.0
 20
1776.0
 30
0.0
 11
9519.0
 21
1781.0
 31
0.0
  0
LINE
  5
28B
330
17
100
AcDbEntity
  8
WALLS
100
AcDbLine
 10
3058.0
 20
6265.0
 30
0.0
 11
3184.0
 21
6264.0
 31
0.0
  0
LINE
  5
28C
330
17
100
AcDbEntity
  8
WALLS
100
AcDbLine
 10
7703.0
 20
2487.0
 30
0.0
 11
7825.0
 21
2489.0
 31
0.0
  0
LINE
  5
28D
330
17
100
AcDbEntity
  8
WALLS
100
AcDbLine
 10
2789.0
 20
4677.0
 30
0.0
 11
3156.0
 21
4676.0
 31
0.0
  0
LINE
  5
28E
330
17
100
AcDbEntity
  8
WALLS
100
AcDbLine
 10
3817.0
 20
1581.0
 30
0.0
 11
3921.0
 21
1576.0
 31
0.0
  0
LINE
  5
28F
330
17
100
AcDbEntity
  8
WALLS
100
AcDbLine
 10
9220.0
 20
2083.0
 30
0.0
 11
9341.0
 21
2081.0
 31
0.0
  0
LINE
  5
290
330
17
100
AcDbEntity
  8
WALLS
100
AcDbLine
 10
5132.0
 20
4077.0
 30
0.0
 11
5272.0
 21
4076.0
 31
0.0
  0
LINE
  5
291
330
17
100
AcDbEntity
  8
WALLS
100
AcDbLine
 10
2767.0
 20
6264.0
 30
0.0
 11
2874.0
 21
6264.0
 31
0.0
  0
LINE
  5
292
330
17
100
AcDbEntity
  8
WALLS
100
AcDbLine
 10
8511.0
 20
3607.0
 30
0.0
 11
8642.0
 21
3609.0
 31
0.0
  0
LINE
  5
293
330
17
100
AcDbEntity
  8
WALLS
100
AcDbLine
 10
8297.0
 20
3591.0
 30
0.0
 11
8449.0
 21
3593.0
 31
0.0
  0
LINE
  5
294
330
17
100
AcDbEntity
  8
WALLS
100
AcDbLine
 10
7487.0
 20
270.0
 30
0.0
 11
7612.0
 21
268.0
 31
0.0
  0
LINE
  5
295
330
17
100
AcDbEntity
  8
WALLS
100
AcDbLine
 10
9900.0
 20
6967.0
 30
0.0
 11
9904.0
 21
6682.0
 31
0.0
  0
LINE
  5
296
330
17
100
AcDbEntity
  8
WALLS
100
AcDbLine
 10
3868.0
 20
3496.0
 30
0.0
 11
4004.0
 21
3364.0
 31
0.0
  0
LINE
  5
297
330
17
100
AcDbEntity
  8
WALLS
100
AcDbLine
 10
8495.0
 20
664.0
 30
0.0
 11
8611.0
 21
658.0
 31
0.0
  0
LINE
  5
298
330
17
100
AcDbEntity
  8
WALLS
100
AcDbLine
 10
9275.0
 20
1249.0
 30
0.0
 11
9548.0
 21
1249.0
 31
0.0
  0
LINE
  5
299
330
17
100
AcDbEntity
  8
WALLS
100
AcDbLine
 10
2495.0
 20
3189.0
 30
0.0
 11
2567.0
 21
3264.0
 31
0.0
  0
LINE
  5
29A
330
17
100
AcDbEntity
  8
WALLS
100
AcDbLine
 10
4576.0
 20
5534.0
 30
0.0
 11
4763.0
 21
5353.0
 31
0.0
  0
LINE
  5
29B
330
17
100
AcDbEntity
  8
WALLS
100
AcDbLine
 10
7510.0
 20
245.0
 30
0.0
 11
7614.0
 21
245.0
 31
0.0
  0
LINE
  5
29C
330
17
100
AcDbEntity
  8
WALLS
100
AcDbLine
 10
3227.0
 20
5325.0
 30
0.0
 11
3405.0
 21
5324.0
 31
0.0
  0
LINE
  5
29D
330
17
100
AcDbEntity
  8
WALLS
100
AcDbLine
 10
4258.0
 20
6644.0
 30
0.0
 11
4328.0
 21
6716.0
 31
0.0
  0
LINE
  5
29E
330
17
100
AcDbEntity
  8
WALLS
100
AcDbLine
 10
8580.0
 20
3710.0
 30
0.0
 11
8713.0
 21
3717.0
 31
0.0
  0
LINE
  5
29F
330
17
100
AcDbEntity
  8
WALLS
100
AcDbLine
 10
5266.0
 20
4658.0
 30
0.0
 11
5398.0
 21
4511.0
 31
0.0
  0
LINE
  5
2A0
330
17
100
AcDbEntity
  8
WALLS
100
AcDbLine
 10
2300.0
 20
4685.0
 30
0.0
 11
2379.0
 21
4764.0
 31
0.0
  0
LINE
  5
2A1
330
17
100
AcDbEntity
  8
WALLS
100
AcDbLine
 10
10032.0
 20
1978.0
 30
0.0
 11
10040.0
 21
1866.0
 31
0.0
  0
LINE
  5
2A2
330
17
100
AcDbEntity
  8
WALLS
100
AcDbLine
 10
3115.0
 20
5459.0
 30
0.0
 11
3564.0
 21
5908.0
 31
0.0
  0
LINE
  5
2A3
330
17
100
AcDbEntity
  8
WALLS
100
AcDbLine
 10
9340.0
 20
1756.0
 30
0.0
 11
9449.0
 21
1762.0
 31
0.0
  0
LINE
  5
2A4
330
17
100
AcDbEntity
  8
WALLS
100
AcDbLine
 10
4554.0
 20
1973.0
 30
0.0
 11
4668.0
 21
1975.0
 31
0.0
  0
LINE
  5
2A5
330
17
100
AcDbEntity
  8
WALLS
100
AcDbLine
 10
7838.0
 20
5149.0
 30
0.0
 11
7945.0
 21
5150.0
 31
0.0
  0
LINE
  5
2A6
330
17
100
AcDbEntity
  8
WALLS
100
AcDbLine
 10
4351.0
 20
1674.0
 30
0.0
 11
4351.0
 21
1822.0
 31
0.0
  0
LINE
  5
2A7
330
17
100
AcDbEntity
  8
WALLS
100
AcDbLine
 10
4536.0
 20
5566.0
 30
0.0
 11
4658.0
 21
5436.0
 31
0.0
  0
LINE
  5
2A8
330
17
100
AcDbEntity
  8
WALLS
100
AcDbLine
 10
7718.0
 20
3050.0
 30
0.0
 11
7822.0
 21
3059.0
 31
0.0
  0
LINE
  5
2A9
330
17
100
AcDbEntity
  8
WALLS
100
AcDbLine
 10
10304.0
 20
1478.0
 30
0.0
 11
10427.0
 21
1477.0
 31
0.0
  0
LINE
  5
2AA
330
17
100
AcDbEntity
  8
WALLS
100
AcDbLine
 10
4199.0
 20
6585.0
 30
0.0
 11
4282.0
 21
6670.0
 31
0.0
  0
LINE
  5
2AB
330
17
100
AcDbEntity
  8
WALLS
100
AcDbLine
 10
4167.0
 20
1715.0
 30
0.0
 11
4320.0
 21
1717.0
 31
0.0
  0
LINE
  5
2AC
330
17
100
AcDbEntity
  8
WALLS
100
AcDbLine
 10
8869.0
 20
5145.0
 30
0.0
 11
8974.0
 21
5148.0
 31
0.0
  0
LINE
  5
2AD
330
17
100
AcDbEntity
  8
WALLS
100
AcDbLine
 10
3081.0
 20
6243.0
 30
0.0
 11
3184.0
 21
6239.0
 31
0.0
  0
LINE
  5
2AE
330
17
100
AcDbEntity
  8
WALLS
100
AcDbLine
 10
2200.0
 20
1362.0
 30
0.0
 11
2313.0
 21
1363.0
 31
0.0
  0
LINE
  5
2AF
330
17
100
AcDbEntity
  8
WALLS
100
AcDbLine
 10
4446.0
 20
5442.0
 30
0.0
 11
4565.0
 21
5430.0
 31
0.0
  0
LINE
  5
2B0
330
17
100
AcDbEntity
  8
WALLS
100
AcDbLine
 10
5116.0
 20
4089.0
 30
0.0
 11
5247.0
 21
4086.0
 31
0.0
  0
LINE
  5
2B1
330
17
100
AcDbEntity
  8
WALLS
100
AcDbLine
 10
4351.0
 20
2072.0
 30
0.0
 11
4523.0
 21
2070.0
 31
0.0
  0
LINE
  5
2B2
330
17
100
AcDbEntity
  8
WALLS
100
AcDbLine
 10
3366.0
 20
3978.0
 30
0.0
 11
3555.0
 21
3790.0
 31
0.0
  0
LINE
  5
2B3
330
17
100
AcDbEntity
  8
WALLS
100
AcDbLine
 10
2924.0
 20
5426.0
 30
0.0
 11
3082.0
 21
5268.0
 31
0.0
  0
LINE
  5
2B4
330
17
100
AcDbEntity
  8
WALLS
100
AcDbLine
 10
3873.0
 20
5430.0
 30
0.0
 11
3960.0
 21
5514.0
 31
0.0
  0
LINE
  5
2B5
330
17
100
AcDbEntity
  8
WALLS
100
AcDbLine
 10
4467.0
 20
2072.0
 30
0.0
 11
4580.0
 21
2071.0
 31
0.0
  0
LINE
  5
2B6
330
17
100
AcDbEntity
  8
WALLS
100
AcDbLine
 10
2974.0
 20
4859.0
 30
0.0
 11
3155.0
 21
4678.0
 31
0.0
  0
LINE
  5
2B7
330
17
100
AcDbEntity
  8
WALLS
100
AcDbLine
 10
3736.0
 20
2159.0
 30
0.0
 11
3737.0
 21
2046.0
 31
0.0
  0
LINE
  5
2B8
330
17
100
AcDbEntity
  8
WALLS
100
AcDbLine
 10
5277.0
 20
4650.0
 30
0.0
 11
5406.0
 21
4526.0
 31
0.0
  0
LINE
  5
2B9
330
17
100
AcDbEntity
  8
WALLS
100
AcDbLine
 10
9052.0
 20
819.0
 30
0.0
 11
9158.0
 21
822.0
 31
0.0
  0
LINE
  5
2BA
330
17
100
AcDbEntity
  8
WALLS
100
AcDbLine
 10
5422.0
 20
5936.0
 30
0.0
 11
5559.0
 21
5929.0
 31
0.0
  0
LINE
  5
2BB
330
17
100
AcDbEntity
  8
WALLS
100
AcDbLine
 10
4975.0
 20
3206.0
 30
0.0
 11
5160.0
 21
3391.0
 31
0.0
  0
LINE
  5
2BC
330
17
100
AcDbEntity
  8
WALLS
100
AcDbLine
 10
8346.0
 20
3543.0
 30
0.0
 11
8463.0
 21
3542.0
 31
0.0
  0
LINE
  5
2BD
330
17
100
AcDbEntity
  8
WALLS
100
AcDbLine
 10
8510.0
 20
3778.0
 30
0.0
 11
8612.0
 21
3783.0
 31
0.0
  0
LINE
  5
2BE
330
17
100
AcDbEntity
  8
WALLS
100
AcDbLine
 10
6569.0
 20
5149.0
 30
0.0
 11
6677.0
 21
5148.0
 31
0.0
  0
LINE
  5
2BF
330
17
100
AcDbEntity
  8
WALLS
100
AcDbLine
 10
3998.0
 20
1823.0
 30
0.0
 11
3999.0
 21
1716.0
 31
0.0
  0
LINE
  5
2C0
330
17
100
AcDbEntity
  8
WALLS
100
AcDbLine
 10
4343.0
 20
3825.0
 30
0.0
 11
4480.0
 21
3810.0
 31
0.0
  0
LINE
  5
2C1
330
17
100
AcDbEntity
  8
WALLS
100
AcDbLine
 10
4474.0
 20
1639.0
 30
0.0
 11
4644.0
 21
1642.0
 31
0.0
  0
LINE
  5
2C2
330
17
100
AcDbEntity
  8
WALLS
100
AcDbLine
 10
3756.0
 20
1701.0
 30
0.0
 11
3860.0
 21
1702.0
 31
0.0
  0
LINE
  5
2C3
330
17
100
AcDbEntity
  8
WALLS
100
AcDbLine
 10
8423.0
 20
659.0
 30
0.0
 11
8611.0
 21
666.0
 31
0.0
  0
LINE
  5
2C4
330
17
100
AcDbEntity
  8
WALLS
100
AcDbLine
 10
10117.0
 20
5590.0
 30
0.0
 11
10409.0
 21
5590.0
 31
0.0
  0
LINE
  5
2C5
330
17
100
AcDbEntity
  8
WALLS
100
AcDbLine
 10
4817.0
 20
1096.0
 30
0.0
 11
4920.0
 21
1096.0
 31
0.0
  0
LINE
  5
2C6
330
17
100
AcDbEntity
  8
WALLS
100
AcDbLine
 10
4374.0
 20
6005.0
 30
0.0
 11
4555.0
 21
5824.0
 31
0.0
  0
LINE
  5
2C7
330
17
100
AcDbEntity
  8
WALLS
100
AcDbLine
 10
3414.0
 20
2913.0
 30
0.0
 11
3517.0
 21
2916.0
 31
0.0
  0
LINE
  5
2C8
330
17
100
AcDbEntity
  8
WALLS
100
AcDbLine
 10
3778.0
 20
5147.0
 30
0.0
 11
3962.0
 21
4963.0
 31
0.0
  0
LINE
  5
2C9
330
17
100
AcDbEntity
  8
WALLS
100
AcDbLine
 10
3399.0
 20
5742.0
 30
0.0
 11
3494.0
 21
5640.0
 31
0.0
  0
LINE
  5
2CA
330
17
100
AcDbEntity
  8
WALLS
100
AcDbLine
 10
10318.0
 20
5628.0
 30
0.0
 11
10446.0
 21
5631.0
 31
0.0
  0
LINE
  5
2CB
330
17
100
AcDbEntity
  8
WALLS
100
AcDbLine
 10
5055.0
 20
5990.0
 30
0.0
 11
5167.0
 21
5875.0
 31
0.0
  0
LINE
  5
2CC
330
17
100
AcDbEntity
  8
WALLS
100
AcDbLine
 10
2939.0
 20
4711.0
 30
0.0
 11
3117.0
 21
4715.0
 31
0.0
  0
LINE
  5
2CD
330
17
100
AcDbEntity
  8
WALLS
100
AcDbLine
 10
3687.0
 20
5054.0
 30
0.0
 11
3780.0
 21
4964.0
 31
0.0
  0
LINE
  5
2CE
330
17
100
AcDbEntity
  8
WALLS
100
AcDbLine
 10
5423.0
 20
5915.0
 30
0.0
 11
5559.0
 21
5913.0
 31
0.0
  0
LINE
  5
2CF
330
17
100
AcDbEntity
  8
WALLS
100
AcDbLine
 10
5220.0
 20
4865.0
 30
0.0
 11
5396.0
 21
5041.0
 31
0.0
  0
LINE
  5
2D0
330
17
100
AcDbEntity
  8
WALLS
100
AcDbLine
 10
5256.0
 20
5593.0
 30
0.0
 11
5494.0
 21
5354.0
 31
0.0
  0
LINE
  5
2D1
330
17
100
AcDbEntity
  8
WALLS
100
AcDbLine
 10
7096.0
 20
3374.0
 30
0.0
 11
7229.0
 21
3368.0
 31
0.0
  0
LINE
  5
2D2
330
17
100
AcDbEntity
  8
WALLS
100
AcDbLine
 10
10098.0
 20
6779.0
 30
0.0
 11
10104.0
 21
6603.0
 31
0.0
  0
LINE
  5
2D3
330
17
100
AcDbEntity
  8
WALLS
100
AcDbLine
 10
2915.0
 20
3795.0
 30
0.0
 11
3088.0
 21
3791.0
 31
0.0
  0
LINE
  5
2D4
330
17
100
AcDbEntity
  8
WALLS
100
AcDbLine
 10
6605.0
 20
2443.0
 30
0.0
 11
6720.0
 21
2441.0
 31
0.0
  0
LINE
  5
2D5
330
17
100
AcDbEntity
  8
WALLS
100
AcDbLine
 10
5763.0
 20
6500.0
 30
0.0
 11
5870.0
 21
6500.0
 31
0.0
  0
LINE
  5
2D6
330
17
100
AcDbEntity
  8
WALLS
100
AcDbLine
 10
7196.0
 20
247.0
 30
0.0
 11
7316.0
 21
244.0
 31
0.0
  0
LINE
  5
2D7
330
17
100
AcDbEntity
  8
WALLS
100
AcDbLine
 10
5196.0
 20
4122.0
 30
0.0
 11
5313.0
 21
4112.0
 31
0.0
  0
LINE
  5
2D8
330
17
100
AcDbEntity
  8
WALLS
100
AcDbLine
 10
7206.0
 20
270.0
 30
0.0
 11
7306.0
 21
265.0
 31
0.0
  0
LINE
  5
2D9
330
17
100
AcDbEntity
  8
WALLS
100
AcDbLine
 10
4329.0
 20
6200.0
 30
0.0
 11
4457.0
 21
6185.0
 31
0.0
  0
LINE
  5
2DA
330
17
100
AcDbEntity
  8
WALLS
100
AcDbLine
 10
5148.0
 20
2990.0
 30
0.0
 11
5236.0
 21
2901.0
 31
0.0
  0
LINE
  5
2DB
330
17
100
AcDbEntity
  8
WALLS
100
AcDbLine
 10
1256.0
 20
2264.0
 30
0.0
 11
1751.0
 21
2759.0
 31
0.0
  0
LINE
  5
2DC
330
17
100
AcDbEntity
  8
WALLS
100
AcDbLine
 10
6584.0
 20
5036.0
 30
0.0
 11
6708.0
 21
5036.0
 31
0.0
  0
LINE
  5
2DD
330
17
100
AcDbEntity
  8
WALLS
100
AcDbLine
 10
4001.0
 20
5464.0
 30
0.0
 11
4187.0
 21
5278.0
 31
0.0
  0
LINE
  5
2DE
330
17
100
AcDbEntity
  8
WALLS
100
AcDbLine
 10
5270.0
 20
2160.0
 30
0.0
 11
5418.0
 21
2017.0
 31
0.0
  0
LINE
  5
2DF
330
17
100
AcDbEntity
  8
WALLS
100
AcDbLine
 10
5766.0
 20
4228.0
 30
0.0
 11
5881.0
 21
4116.0
 31
0.0
  0
LINE
  5
2E0
330
17
100
AcDbEntity
  8
WALLS
100
AcDbLine
 10
3565.0
 20
6693.0
 30
0.0
 11
3677.0
 21
6581.0
 31
0.0
  0
LINE
  5
2E1
330
17
100
AcDbEntity
  8
WALLS
100
AcDbLine
 10
3283.0
 20
1379.0
 30
0.0
 11
3396.0
 21
1378.0
 31
0.0
  0
LINE
  5
2E2
330
17
100
AcDbEntity
  8
WALLS
100
AcDbLine
 10
9348.0
 20
2338.0
 30
0.0
 11
9450.0
 21
2330.0
 31
0.0
  0
LINE
  5
2E3
330
17
100
AcDbEntity
  8
WALLS
100
AcDbLine
 10
9239.0
 20
1200.0
 30
0.0
 11
9398.0
 21
1199.0
 31
0.0
  0
LINE
  5
2E4
330
17
100
AcDbEntity
  8
WALLS
100
AcDbLine
 10
3472.0
 20
3067.0
 30
0.0
 11
3609.0
 21
3069.0
 31
0.0
  0
LINE
  5
2E5
330
17
100
AcDbEntity
  8
WALLS
100
AcDbLine
 10
8930.0
 20
2709.0
 30
0.0
 11
8931.0
 21
2479.0
 31
0.0
  0
LINE
  5
2E6
330
17
100
AcDbEntity
  8
WALLS
100
AcDbLine
 10
5303.0
 20
591.0
 30
0.0
 11
5305.0
 21
439.0
 31
0.0
  0
LINE
  5
2E7
330
17
100
AcDbEntity
  8
WALLS
100
AcDbLine
 10
2451.0
 20
3156.0
 30
0.0
 11
2472.0
 21
2866.0
 31
0.0
  0
LINE
  5
2E8
330
17
100
AcDbEntity
  8
WALLS
100
AcDbLine
 10
2864.0
 20
4752.0
 30
0.0
 11
2947.0
 21
4833.0
 31
0.0
  0
LINE
  5
2E9
330
17
100
AcDbEntity
  8
WALLS
100
AcDbLine
 10
3104.0
 20
1322.0
 30
0.0
 11
3232.0
 21
1325.0
 31
0.0
  0
LINE
  5
2EA
330
17
100
AcDbEntity
  8
WALLS
100
AcDbLine
 10
5176.0
 20
3548.0
 30
0.0
 11
5266.0
 21
3458.0
 31
0.0
  0
LINE
  5
2EB
330
17
100
AcDbEntity
  8
WALLS
100
AcDbLine
 10
10325.0
 20
5594.0
 30
0.0
 11
10434.0
 21
5596.0
 31
0.0
  0
LINE
  5
2EC
330
17
100
AcDbEntity
  8
WALLS
100
AcDbLine
 10
2958.0
 20
2097.0
 30
0.0
 11
3061.0
 21
2097.0
 31
0.0
  0
LINE
  5
2ED
330
17
100
AcDbEntity
  8
WALLS
100
AcDbLine
 10
8930.0
 20
2989.0
 30
0.0
 11
8931.0
 21
2876.0
 31
0.0
  0
LINE
  5
2EE
330
17
100
AcDbEntity
  8
WALLS
100
AcDbLine
 10
3381.0
 20
4888.0
 30
0.0
 11
3467.0
 21
4972.0
 31
0.0
  0
LINE
  5
2EF
330
17
100
AcDbEntity
  8
WALLS
100
AcDbLine
 10
4320.0
 20
1475.0
 30
0.0
 11
4321.0
 21
1588.0
 31
0.0
  0
LINE
  5
2F0
330
17
100
AcDbEntity
  8
WALLS
100
AcDbLine
 10
3745.0
 20
4766.0
 30
0.0
 11
5010.0
 21
6031.0
 31
0.0
  0
LINE
  5
2F1
330
17
100
AcDbEntity
  8
WALLS
100
AcDbLine
 10
2688.0
 20
2618.0
 30
0.0
 11
2797.0
 21
2608.0
 31
0.0
  0
LINE
  5
2F2
330
17
100
AcDbEntity
  8
WALLS
100
AcDbLine
 10
5041.0
 20
3691.0
 30
0.0
 11
5266.0
 21
3465.0
 31
0.0
  0
LINE
  5
2F3
330
17
100
AcDbEntity
  8
WALLS
100
AcDbLine
 10
4528.0
 20
1976.0
 30
0.0
 11
4643.0
 21
1978.0
 31
0.0
  0
LINE
  5
2F4
330
17
100
AcDbEntity
  8
WALLS
100
AcDbLine
 10
4445.0
 20
1699.0
 30
0.0
 11
4554.0
 21
1695.0
 31
0.0
  0
LINE
  5
2F5
330
17
100
AcDbEntity
  8
WALLS
100
AcDbLine
 10
3151.0
 20
2113.0
 30
0.0
 11
3260.0
 21
2104.0
 31
0.0
  0
LINE
  5
2F6
330
17
100
AcDbEntity
  8
WALLS
100
AcDbLine
 10
8930.0
 20
2932.0
 30
0.0
 11
8931.0
 21
2726.0
 31
0.0
  0
LINE
  5
2F7
330
17
100
AcDbEntity
  8
WALLS
100
AcDbLine
 10
5763.0
 20
6477.0
 30
0.0
 11
5885.0
 21
6476.0
 31
0.0
  0
LINE
  5
2F8
330
17
100
AcDbEntity
  8
WALLS
100
AcDbLine
 10
3571.0
 20
1379.0
 30
0.0
 11
3679.0
 21
1480.0
 31
0.0
  0
LINE
  5
2F9
330
17
100
AcDbEntity
  8
WALLS
100
AcDbLine
 10
8949.0
 20
2213.0
 30
0.0
 11
8950.0
 21
2003.0
 31
0.0
  0
LINE
  5
2FA
330
17
100
AcDbEntity
  8
WALLS
100
AcDbLine
 10
4677.0
 20
1854.0
 30
0.0
 11
4790.0
 21
1853.0
 31
0.0
  0
LINE
  5
2FB
330
17
100
AcDbEntity
  8
WALLS
100
AcDbLine
 10
3073.0
 20
4051.0
 30
0.0
 11
3190.0
 21
4049.0
 31
0.0
  0
LINE
  5
2FC
330
17
100
AcDbEntity
  8
WALLS
100
AcDbLine
 10
5795.0
 20
4199.0
 30
0.0
 11
5910.0
 21
4087.0
 31
0.0
  0
LINE
  5
2FD
330
17
100
AcDbEntity
  8
WALLS
100
AcDbLine
 10
9163.0
 20
607.0
 30
0.0
 11
9286.0
 21
611.0
 31
0.0
  0
LINE
  5
2FE
330
17
100
AcDbEntity
  8
WALLS
100
AcDbLine
 10
2915.0
 20
3935.0
 30
0.0
 11
3001.0
 21
4019.0
 31
0.0
  0
LINE
  5
2FF
330
17
100
AcDbEntity
  8
WALLS
100
AcDbLine
 10
8370.0
 20
3610.0
 30
0.0
 11
8487.0
 21
3608.0
 31
0.0
  0
LINE
  5
300
330
17
100
AcDbEntity
  8
WALLS
100
AcDbLine
 10
4285.0
 20
5085.0
 30
0.0
 11
4627.0
 21
5427.0
 31
0.0
  0
LINE
  5
301
330
17
100
AcDbEntity
  8
WALLS
100
AcDbLine
 10
5205.0
 20
2866.0
 30
0.0
 11
5320.0
 21
2751.0
 31
0.0
  0
LINE
  5
302
330
17
100
AcDbEntity
  8
WALLS
100
AcDbLine
 10
4244.0
 20
5262.0
 30
0.0
 11
4309.0
 21
5185.0
 31
0.0
  0
LINE
  5
303
330
17
100
AcDbEntity
  8
WALLS
100
AcDbLine
 10
9288.0
 20
2055.0
 30
0.0
 11
9421.0
 21
2055.0
 31
0.0
  0
LINE
  5
304
330
17
100
AcDbEntity
  8
WALLS
100
AcDbLine
 10
5221.0
 20
2069.0
 30
0.0
 11
5225.0
 21
2178.0
 31
0.0
  0
LINE
  5
305
330
17
100
AcDbEntity
  8
WALLS
100
AcDbLine
 10
5358.0
 20
3636.0
 30
0.0
 11
5452.0
 21
3539.0
 31
0.0
  0
LINE
  5
306
330
17
100
AcDbEntity
  8
WALLS
100
AcDbLine
 10
3198.0
 20
828.0
 30
0.0
 11
3291.0
 21
735.0
 31
0.0
  0
LINE
  5
307
330
17
100
AcDbEntity
  8
WALLS
100
AcDbLine
 10
4851.0
 20
1670.0
 30
0.0
 11
4851.0
 21
1904.0
 31
0.0
  0
LINE
  5
308
330
17
100
AcDbEntity
  8
WALLS
100
AcDbLine
 10
8949.0
 20
2040.0
 30
0.0
 11
8950.0
 21
1927.0
 31
0.0
  0
LINE
  5
309
330
17
100
AcDbEntity
  8
WALLS
100
AcDbLine
 10
4801.0
 20
2943.0
 30
0.0
 11
4943.0
 21
2800.0
 31
0.0
  0
LINE
  5
30A
330
17
100
AcDbEntity
  8
WALLS
100
AcDbLine
 10
1807.0
 20
4976.0
 30
0.0
 11
2590.0
 21
4194.0
 31
0.0
  0
LINE
  5
30B
330
17
100
AcDbEntity
  8
WALLS
100
AcDbLine
 10
9290.0
 20
1828.0
 30
0.0
 11
9391.0
 21
1828.0
 31
0.0
  0
LINE
  5
30C
330
17
100
AcDbEntity
  8
WALLS
100
AcDbLine
 10
4967.0
 20
3390.0
 30
0.0
 11
5116.0
 21
3241.0
 31
0.0
  0
LINE
  5
30D
330
17
100
AcDbEntity
  8
WALLS
100
AcDbLine
 10
3258.0
 20
854.0
 30
0.0
 11
3352.0
 21
766.0
 31
0.0
  0
LINE
  5
30E
330
17
100
AcDbEntity
  8
WALLS
100
AcDbLine
 10
8949.0
 20
1822.0
 30
0.0
 11
8950.0
 21
1702.0
 31
0.0
  0
LINE
  5
30F
330
17
100
AcDbEntity
  8
WALLS
100
AcDbLine
 10
4027.0
 20
3171.0
 30
0.0
 11
4124.0
 21
3265.0
 31
0.0
  0
LINE
  5
310
330
17
100
AcDbEntity
  8
WALLS
100
AcDbLine
 10
5417.0
 20
4355.0
 30
0.0
 11
5514.0
 21
4440.0
 31
0.0
  0
LINE
  5
311
330
17
100
AcDbEntity
  8
WALLS
100
AcDbLine
 10
5076.0
 20
2936.0
 30
0.0
 11
5374.0
 21
2638.0
 31
0.0
  0
LINE
  5
312
330
17
100
AcDbEntity
  8
WALLS
100
AcDbLine
 10
1870.0
 20
4368.0
 30
0.0
 11
1947.0
 21
4291.0
 31
0.0
  0
LINE
  5
313
330
17
100
AcDbEntity
  8
WALLS
100
AcDbLine
 10
5021.0
 20
3274.0
 30
0.0
 11
5090.0
 21
3348.0
 31
0.0
  0
LINE
  5
314
330
17
100
AcDbEntity
  8
WALLS
100
AcDbLine
 10
4800.0
 20
2447.0
 30
0.0
 11
4914.0
 21
2445.0
 31
0.0
  0
LINE
  5
315
330
17
100
AcDbEntity
  8
WALLS
100
AcDbLine
 10
9316.0
 20
616.0
 30
0.0
 11
9422.0
 21
615.0
 31
0.0
  0
LINE
  5
316
330
17
100
AcDbEntity
  8
WALLS
100
AcDbLine
 10
4843.0
 20
2652.0
 30
0.0
 11
4958.0
 21
2540.0
 31
0.0
  0
LINE
  5
317
330
17
100
AcDbEntity
  8
WALLS
100
AcDbLine
 10
3027.0
 20
4047.0
 30
0.0
 11
3113.0
 21
4131.0
 31
0.0
  0
LINE
  5
318
330
17
100
AcDbEntity
  8
WALLS
100
AcDbLine
 10
4886.0
 20
2714.0
 30
0.0
 11
5033.0
 21
2567.0
 31
0.0
  0
LINE
  5
319
330
17
100
AcDbEntity
  8
WALLS
100
AcDbLine
 10
4141.0
 20
2663.0
 30
0.0
 11
4141.0
 21
2851.0
 31
0.0
  0
LINE
  5
31A
330
17
100
AcDbEntity
  8
WALLS
100
AcDbLine
 10
5590.0
 20
2059.0
 30
0.0
 11
5718.0
 21
2058.0
 31
0.0
  0
LINE
  5
31B
330
17
100
AcDbEntity
  8
WALLS
100
AcDbLine
 10
8930.0
 20
2782.0
 30
0.0
 11
8931.0
 21
2682.0
 31
0.0
  0
LINE
  5
31C
330
17
100
AcDbEntity
  8
WALLS
100
AcDbLine
 10
3173.0
 20
3683.0
 30
0.0
 11
3257.0
 21
3599.0
 31
0.0
  0
LINE
  5
31D
330
17
100
AcDbEntity
  8
WALLS
100
AcDbLine
 10
4544.0
 20
1980.0
 30
0.0
 11
4671.0
 21
1969.0
 31
0.0
  0
LINE
  5
31E
330
17
100
AcDbEntity
  8
WALLS
100
AcDbLine
 10
4676.0
 20
1357.0
 30
0.0
 11
4809.0
 21
1359.0
 31
0.0
  0
LINE
  5
31F
330
17
100
AcDbEntity
  8
WALLS
100
AcDbLine
 10
8949.0
 20
1983.0
 30
0.0
 11
8950.0
 21
1876.0
 31
0.0
  0
LINE
  5
320
330
17
100
AcDbEntity
  8
WALLS
100
AcDbLine
 10
2814.0
 20
4702.0
 30
0.0
 11
2897.0
 21
4783.0
 31
0.0
  0
LINE
  5
321
330
17
100
AcDbEntity
  8
WALLS
100
AcDbLine
 10
4188.0
 20
5020.0
 30
0.0
 11
4192.0
 21
4904.0
 31
0.0
  0
LINE
  5
322
330
17
100
AcDbEntity
  8
WALLS
100
AcDbLine
 10
4352.0
 20
1675.0
 30
0.0
 11
4458.0
 21
1569.0
 31
0.0
  0
LINE
  5
323
330
17
100
AcDbEntity
  8
WALLS
100
AcDbLine
 10
1941.0
 20
2951.0
 30
0.0
 11
2039.0
 21
3046.0
 31
0.0
  0
LINE
  5
324
330
17
100
AcDbEntity
  8
WALLS
100
AcDbLine
 10
9394.0
 20
1287.0
 30
0.0
 11
9495.0
 21
1279.0
 31
0.0
  0
LINE
  5
325
330
17
100
AcDbEntity
  8
WALLS
100
AcDbLine
 10
5007.0
 20
6083.0
 30
0.0
 11
5111.0
 21
6187.0
 31
0.0
  0
LINE
  5
326
330
17
100
AcDbEntity
  8
WALLS
100
AcDbLine
 10
3813.0
 20
1581.0
 30
0.0
 11
3915.0
 21
1575.0
 31
0.0
  0
LINE
  5
327
330
17
100
AcDbEntity
  8
WALLS
100
AcDbLine
 10
4850.0
 20
1779.0
 30
0.0
 11
4850.0
 21
1929.0
 31
0.0
  0
LINE
  5
328
330
17
100
AcDbEntity
  8
WALLS
100
AcDbLine
 10
7421.0
 20
3225.0
 30
0.0
 11
7422.0
 21
3007.0
 31
0.0
  0
LINE
  5
329
330
17
100
AcDbEntity
  8
WALLS
100
AcDbLine
 10
2970.0
 20
4714.0
 30
0.0
 11
3165.0
 21
4702.0
 31
0.0
  0
LINE
  5
32A
330
17
100
AcDbEntity
  8
WALLS
100
AcDbLine
 10
5880.0
 20
1471.0
 30
0.0
 11
5880.0
 21
1613.0
 31
0.0
  0
LINE
  5
32B
330
17
100
AcDbEntity
  8
WALLS
100
AcDbLine
 10
4419.0
 20
5395.0
 30
0.0
 11
4596.0
 21
5395.0
 31
0.0
  0
LINE
  5
32C
330
17
100
AcDbEntity
  8
WALLS
100
AcDbLine
 10
4432.0
 20
1640.0
 30
0.0
 11
4545.0
 21
1641.0
 31
0.0
  0
LINE
  5
32D
330
17
100
AcDbEntity
  8
WALLS
100
AcDbLine
 10
5182.0
 20
4136.0
 30
0.0
 11
5312.0
 21
4135.0
 31
0.0
  0
LINE
  5
32E
330
17
100
AcDbEntity
  8
WALLS
100
AcDbLine
 10
806.0
 20
3154.0
 30
0.0
 11
966.0
 21
3314.0
 31
0.0
  0
LINE
  5
32F
330
17
100
AcDbEntity
  8
WALLS
100
AcDbLine
 10
5567.0
 20
5765.0
 30
0.0
 11
5704.0
 21
5761.0
 31
0.0
  0
LINE
  5
330
330
17
100
AcDbEntity
  8
WALLS
100
AcDbLine
 10
5225.0
 20
2585.0
 30
0.0
 11
5328.0
 21
2685.0
 31
0.0
  0
LINE
  5
331
330
17
100
AcDbEntity
  8
WALLS
100
AcDbLine
 10
5590.0
 20
2038.0
 30
0.0
 11
5707.0
 21
2034.0
 31
0.0
  0
LINE
  5
332
330
17
100
AcDbEntity
  8
WALLS
100
AcDbLine
 10
4777.0
 20
5619.0
 30
0.0
 11
4870.0
 21
5526.0
 31
0.0
  0
LINE
  5
333
330
17
100
AcDbEntity
  8
WALLS
100
AcDbLine
 10
5217.0
 20
1362.0
 30
0.0
 11
5330.0
 21
1363.0
 31
0.0
  0
LINE
  5
334
330
17
100
AcDbEntity
  8
WALLS
100
AcDbLine
 10
4191.0
 20
5821.0
 30
0.0
 11
4371.0
 21
5641.0
 31
0.0
  0
LINE
  5
335
330
17
100
AcDbEntity
  8
WALLS
100
AcDbLine
 10
9304.0
 20
1291.0
 30
0.0
 11
9424.0
 21
1291.0
 31
0.0
  0
LINE
  5
336
330
17
100
AcDbEntity
  8
WALLS
100
AcDbLine
 10
9240.0
 20
1228.0
 30
0.0
 11
9519.0
 21
1225.0
 31
0.0
  0
LINE
  5
337
330
17
100
AcDbEntity
  8
WALLS
100
AcDbLine
 10
4998.0
 20
4931.0
 30
0.0
 11
5187.0
 21
4931.0
 31
0.0
  0
LINE
  5
338
330
17
100
AcDbEntity
  8
WALLS
100
AcDbLine
 10
1519.0
 20
1362.0
 30
0.0
 11
1638.0
 21
1364.0
 31
0.0
  0
LINE
  5
339
330
17
100
AcDbEntity
  8
WALLS
100
AcDbLine
 10
3584.0
 20
6127.0
 30
0.0
 11
3741.0
 21
5972.0
 31
0.0
  0
LINE
  5
33A
330
17
100
AcDbEntity
  8
WALLS
100
AcDbLine
 10
3422.0
 20
4929.0
 30
0.0
 11
3502.0
 21
5007.0
 31
0.0
  0
LINE
  5
33B
330
17
100
AcDbEntity
  8
WALLS
100
AcDbLine
 10
3582.0
 20
2263.0
 30
0.0
 11
3695.0
 21
2264.0
 31
0.0
  0
LINE
  5
33C
330
17
100
AcDbEntity
  8
WALLS
100
AcDbLine
 10
4472.0
 20
5295.0
 30
0.0
 11
4584.0
 21
5183.0
 31
0.0
  0
LINE
  5
33D
330
17
100
AcDbEntity
  8
WALLS
100
AcDbLine
 10
4703.0
 20
2485.0
 30
0.0
 11
4806.0
 21
2484.0
 31
0.0
  0
LINE
  5
33E
330
17
100
AcDbEntity
  8
WALLS
100
AcDbLine
 10
5435.0
 20
4462.0
 30
0.0
 11
5536.0
 21
4372.0
 31
0.0
  0
LINE
  5
33F
330
17
100
AcDbEntity
  8
WALLS
100
AcDbLine
 10
3158.0
 20
2263.0
 30
0.0
 11
3269.0
 21
2264.0
 31
0.0
  0
LINE
  5
340
330
17
100
AcDbEntity
  8
WALLS
100
AcDbLine
 10
3492.0
 20
5719.0
 30
0.0
 11
3602.0
 21
5609.0
 31
0.0
  0
LINE
  5
341
330
17
100
AcDbEntity
  8
WALLS
100
AcDbLine
 10
4484.0
 20
1654.0
 30
0.0
 11
4597.0
 21
1529.0
 31
0.0
  0
LINE
  5
342
330
17
100
AcDbEntity
  8
WALLS
100
AcDbLine
 10
9900.0
 20
6764.0
 30
0.0
 11
9903.0
 21
6651.0
 31
0.0
  0
LINE
  5
343
330
17
100
AcDbEntity
  8
WALLS
100
AcDbLine
 10
10018.0
 20
1840.0
 30
0.0
 11
10126.0
 21
1840.0
 31
0.0
  0
LINE
  5
344
330
17
100
AcDbEntity
  8
WALLS
100
AcDbLine
 10
9376.0
 20
2378.0
 30
0.0
 11
9490.0
 21
2380.0
 31
0.0
  0
LINE
  5
345
330
17
100
AcDbEntity
  8
WALLS
100
AcDbLine
 10
7096.0
 20
3387.0
 30
0.0
 11
7217.0
 21
3391.0
 31
0.0
  0
LINE
  5
346
330
17
100
AcDbEntity
  8
WALLS
100
AcDbLine
 10
8930.0
 20
2509.0
 30
0.0
 11
8931.0
 21
2396.0
 31
0.0
  0
LINE
  5
347
330
17
100
AcDbEntity
  8
WALLS
100
AcDbLine
 10
5159.0
 20
3174.0
 30
0.0
 11
5289.0
 21
3174.0
 31
0.0
  0
LINE
  5
348
330
17
100
AcDbEntity
  8
WALLS
100
AcDbLine
 10
2585.0
 20
2262.0
 30
0.0
 11
2725.0
 21
2264.0
 31
0.0
  0
LINE
  5
349
330
17
100
AcDbEntity
  8
WALLS
100
AcDbLine
 10
5577.0
 20
5467.0
 30
0.0
 11
5658.0
 21
5384.0
 31
0.0
  0
LINE
  5
34A
330
17
100
AcDbEntity
  8
WALLS
100
AcDbLine
 10
3208.0
 20
918.0
 30
0.0
 11
3307.0
 21
804.0
 31
0.0
  0
LINE
  5
34B
330
17
100
AcDbEntity
  8
WALLS
100
AcDbLine
 10
3965.0
 20
2140.0
 30
0.0
 11
4095.0
 21
2009.0
 31
0.0
  0
LINE
  5
34C
330
17
100
AcDbEntity
  8
WALLS
100
AcDbLine
 10
5437.0
 20
1362.0
 30
0.0
 11
5549.0
 21
1363.0
 31
0.0
  0
LINE
  5
34D
330
17
100
AcDbEntity
  8
WALLS
100
AcDbLine
 10
3687.0
 20
5231.0
 30
0.0
 11
3862.0
 21
5055.0
 31
0.0
  0
LINE
  5
34E
330
17
100
AcDbEntity
  8
WALLS
100
AcDbLine
 10
2964.0
 20
2263.0
 30
0.0
 11
3076.0
 21
2264.0
 31
0.0
  0
LINE
  5
34F
330
17
100
AcDbEntity
  8
WALLS
100
AcDbLine
 10
3977.0
 20
3209.0
 30
0.0
 11
4137.0
 21
3049.0
 31
0.0
  0
LINE
  5
350
330
17
100
AcDbEntity
  8
WALLS
100
AcDbLine
 10
2199.0
 20
3992.0
 30
0.0
 11
2271.0
 21
3922.0
 31
0.0
  0
LINE
  5
351
330
17
100
AcDbEntity
  8
WALLS
100
AcDbLine
 10
3853.0
 20
5410.0
 30
0.0
 11
3925.0
 21
5480.0
 31
0.0
  0
LINE
  5
352
330
17
100
AcDbEntity
  8
WALLS
100
AcDbLine
 10
3921.0
 20
1595.0
 30
0.0
 11
3994.0
 21
1673.0
 31
0.0
  0
LINE
  5
353
330
17
100
AcDbEntity
  8
WALLS
100
AcDbLine
 10
9396.0
 20
1242.0
 30
0.0
 11
9501.0
 21
1242.0
 31
0.0
  0
LINE
  5
354
330
17
100
AcDbEntity
  8
WALLS
100
AcDbLine
 10
5430.0
 20
4555.0
 30
0.0
 11
5505.0
 21
4482.0
 31
0.0
  0
LINE
  5
355
330
17
100
AcDbEntity
  8
WALLS
100
AcDbLine
 10
3877.0
 20
5594.0
 30
0.0
 11
3984.0
 21
5491.0
 31
0.0
  0
LINE
  5
356
330
17
100
AcDbEntity
  8
WALLS
100
AcDbLine
 10
3242.0
 20
1336.0
 30
0.0
 11
3355.0
 21
1335.0
 31
0.0
  0
LINE
  5
357
330
17
100
AcDbEntity
  8
WALLS
100
AcDbLine
 10
5357.0
 20
4640.0
 30
0.0
 11
5469.0
 21
4525.0
 31
0.0
  0
LINE
  5
358
330
17
100
AcDbEntity
  8
WALLS
100
AcDbLine
 10
3233.0
 20
4959.0
 30
0.0
 11
3316.0
 21
4874.0
 31
0.0
  0
LINE
  5
359
330
17
100
AcDbEntity
  8
WALLS
100
AcDbLine
 10
2895.0
 20
2263.0
 30
0.0
 11
3008.0
 21
2264.0
 31
0.0
  0
LINE
  5
35A
330
17
100
AcDbEntity
  8
WALLS
100
AcDbLine
 10
3737.0
 20
4578.0
 30
0.0
 11
3816.0
 21
4497.0
 31
0.0
  0
LINE
  5
35B
330
17
100
AcDbEntity
  8
WALLS
100
AcDbLine
 10
8949.0
 20
1570.0
 30
0.0
 11
8951.0
 21
1342.0
 31
0.0
  0
LINE
  5
35C
330
17
100
AcDbEntity
  8
WALLS
100
AcDbLine
 10
7408.0
 20
3417.0
 30
0.0
 11
7516.0
 21
3418.0
 31
0.0
  0
LINE
  5
35D
330
17
100
AcDbEntity
  8
WALLS
100
AcDbLine
 10
1054.0
 20
4186.0
 30
0.0
 11
1155.0
 21
4181.0
 31
0.0
  0
LINE
  5
35E
330
17
100
AcDbEntity
  8
WALLS
100
AcDbLine
 10
3105.0
 20
5511.0
 30
0.0
 11
3207.0
 21
5610.0
 31
0.0
  0
LINE
  5
35F
330
17
100
AcDbEntity
  8
WALLS
100
AcDbLine
 10
3275.0
 20
4069.0
 30
0.0
 11
3350.0
 21
3992.0
 31
0.0
  0
LINE
  5
360
330
17
100
AcDbEntity
  8
WALLS
100
AcDbLine
 10
2790.0
 20
4675.0
 30
0.0
 11
2971.0
 21
4494.0
 31
0.0
  0
LINE
  5
361
330
17
100
AcDbEntity
  8
WALLS
100
AcDbLine
 10
5023.0
 20
6022.0
 30
0.0
 11
5135.0
 21
5907.0
 31
0.0
  0
LINE
  5
362
330
17
100
AcDbEntity
  8
WALLS
100
AcDbLine
 10
10074.0
 20
1850.0
 30
0.0
 11
10148.0
 21
1778.0
 31
0.0
  0
LINE
  5
363
330
17
100
AcDbEntity
  8
WALLS
100
AcDbLine
 10
6360.0
 20
622.0
 30
0.0
 11
6468.0
 21
624.0
 31
0.0
  0
LINE
  5
364
330
17
100
AcDbEntity
  8
WALLS
100
AcDbLine
 10
5183.0
 20
2934.0
 30
0.0
 11
5279.0
 21
3033.0
 31
0.0
  0
LINE
  5
365
330
17
100
AcDbEntity
  8
WALLS
100
AcDbLine
 10
3626.0
 20
4687.0
 30
0.0
 11
3725.0
 21
4789.0
 31
0.0
  0
LINE
  5
366
330
17
100
AcDbEntity
  8
WALLS
100
AcDbLine
 10
4382.0
 20
6189.0
 30
0.0
 11
4526.0
 21
6186.0
 31
0.0
  0
LINE
  5
367
330
17
100
AcDbEntity
  8
WALLS
100
AcDbLine
 10
2339.0
 20
2263.0
 30
0.0
 11
2452.0
 21
2264.0
 31
0.0
  0
LINE
  5
368
330
17
100
AcDbEntity
  8
WALLS
100
AcDbLine
 10
4243.0
 20
5260.0
 30
0.0
 11
4352.0
 21
5151.0
 31
0.0
  0
LINE
  5
369
330
17
100
AcDbEntity
  8
WALLS
100
AcDbLine
 10
7523.0
 20
2857.0
 30
0.0
 11
7525.0
 21
2686.0
 31
0.0
  0
LINE
  5
36A
330
17
100
AcDbEntity
  8
WALLS
100
AcDbLine
 10
3436.0
 20
4563.0
 30
0.0
 11
3521.0
 21
4646.0
 31
0.0
  0
LINE
  5
36B
330
17
100
AcDbEntity
  8
WALLS
100
AcDbLine
 10
9429.0
 20
1808.0
 30
0.0
 11
9546.0
 21
1802.0
 31
0.0
  0
LINE
  5
36C
330
17
100
AcDbEntity
  8
WALLS
100
AcDbLine
 10
4903.0
 20
2647.0
 30
0.0
 11
4993.0
 21
2556.0
 31
0.0
  0
LINE
  5
36D
330
17
100
AcDbEntity
  8
WALLS
100
AcDbLine
 10
2567.0
 20
4933.0
 30
0.0
 11
2653.0
 21
5017.0
 31
0.0
  0
LINE
  5
36E
330
17
100
AcDbEntity
  8
WALLS
100
AcDbLine
 10
6311.0
 20
2310.0
 30
0.0
 11
8151.0
 21
2310.0
 31
0.0
  0
LINE
  5
36F
330
17
100
AcDbEntity
  8
WALLS
100
AcDbLine
 10
3307.0
 20
4037.0
 30
0.0
 11
3390.0
 21
3952.0
 31
0.0
  0
LINE
  5
370
330
17
100
AcDbEntity
  8
WALLS
100
AcDbLine
 10
1959.0
 20
2264.0
 30
0.0
 11
2072.0
 21
2263.0
 31
0.0
  0
LINE
  5
371
330
17
100
AcDbEntity
  8
WALLS
100
AcDbLine
 10
4714.0
 20
5699.0
 30
0.0
 11
4814.0
 21
5596.0
 31
0.0
  0
LINE
  5
372
330
17
100
AcDbEntity
  8
WALLS
100
AcDbLine
 10
6468.0
 20
425.0
 30
0.0
 11
6595.0
 21
427.0
 31
0.0
  0
LINE
  5
373
330
17
100
AcDbEntity
  8
WALLS
100
AcDbLine
 10
4497.0
 20
2485.0
 30
0.0
 11
4612.0
 21
2483.0
 31
0.0
  0
LINE
  5
374
330
17
100
AcDbEntity
  8
WALLS
100
AcDbLine
 10
4868.0
 20
5675.0
 30
0.0
 11
4964.0
 21
5771.0
 31
0.0
  0
LINE
  5
375
330
17
100
AcDbEntity
  8
WALLS
100
AcDbLine
 10
3688.0
 20
4887.0
 30
0.0
 11
3791.0
 21
4882.0
 31
0.0
  0
LINE
  5
376
330
17
100
AcDbEntity
  8
WALLS
100
AcDbLine
 10
1645.0
 20
2264.0
 30
0.0
 11
1756.0
 21
2263.0
 31
0.0
  0
LINE
  5
377
330
17
100
AcDbEntity
  8
WALLS
100
AcDbLine
 10
3167.0
 20
868.0
 30
0.0
 11
3252.0
 21
770.0
 31
0.0
  0
LINE
  5
378
330
17
100
AcDbEntity
  8
WALLS
100
AcDbLine
 10
7712.0
 20
3052.0
 30
0.0
 11
7838.0
 21
3048.0
 31
0.0
  0
LINE
  5
379
330
17
100
AcDbEntity
  8
WALLS
100
AcDbLine
 10
1819.0
 20
2264.0
 30
0.0
 11
1932.0
 21
2263.0
 31
0.0
  0
LINE
  5
37A
330
17
100
AcDbEntity
  8
WALLS
100
AcDbLine
 10
5935.0
 20
4884.0
 30
0.0
 11
6046.0
 21
4774.0
 31
0.0
  0
LINE
  5
37B
330
17
100
AcDbEntity
  8
WALLS
100
AcDbLine
 10
2262.0
 20
2263.0
 30
0.0
 11
2375.0
 21
2264.0
 31
0.0
  0
LINE
  5
37C
330
17
100
AcDbEntity
  8
WALLS
100
AcDbLine
 10
3819.0
 20
5376.0
 30
0.0
 11
3905.0
 21
5460.0
 31
0.0
  0
LINE
  5
37D
330
17
100
AcDbEntity
  8
WALLS
100
AcDbLine
 10
9974.0
 20
7016.0
 30
0.0
 11
10141.0
 21
7014.0
 31
0.0
  0
LINE
  5
37E
330
17
100
AcDbEntity
  8
WALLS
100
AcDbLine
 10
3881.0
 20
5227.0
 30
0.0
 11
3961.0
 21
5147.0
 31
0.0
  0
LINE
  5
37F
330
17
100
AcDbEntity
  8
WALLS
100
AcDbLine
 10
10030.0
 20
7016.0
 30
0.0
 11
10199.0
 21
7014.0
 31
0.0
  0
LINE
  5
380
330
17
100
AcDbEntity
  8
WALLS
100
AcDbLine
 10
4178.0
 20
3207.0
 30
0.0
 11
4690.0
 21
3207.0
 31
0.0
  0
LINE
  5
381
330
17
100
AcDbEntity
  8
WALLS
100
AcDbLine
 10
4668.0
 20
3233.0
 30
0.0
 11
4781.0
 21
3234.0
 31
0.0
  0
LINE
  5
382
330
17
100
AcDbEntity
  8
WALLS
100
AcDbLine
 10
3964.0
 20
2010.0
 30
0.0
 11
4094.0
 21
2009.0
 31
0.0
  0
LINE
  5
383
330
17
100
AcDbEntity
  8
WALLS
100
AcDbLine
 10
5700.0
 20
4099.0
 30
0.0
 11
5782.0
 21
4181.0
 31
0.0
  0
LINE
  5
384
330
17
100
AcDbEntity
  8
WALLS
100
AcDbLine
 10
5276.0
 20
4501.0
 30
0.0
 11
5385.0
 21
4610.0
 31
0.0
  0
LINE
  5
385
330
17
100
AcDbEntity
  8
WALLS
100
AcDbLine
 10
3964.0
 20
2136.0
 30
0.0
 11
4090.0
 21
2010.0
 31
0.0
  0
LINE
  5
386
330
17
100
AcDbEntity
  8
WALLS
100
AcDbLine
 10
5810.0
 20
3206.0
 30
0.0
 11
5891.0
 21
3125.0
 31
0.0
  0
LINE
  5
387
330
17
100
AcDbEntity
  8
WALLS
100
AcDbLine
 10
3423.0
 20
2912.0
 30
0.0
 11
3524.0
 21
2907.0
 31
0.0
  0
LINE
  5
388
330
17
100
AcDbEntity
  8
WALLS
100
AcDbLine
 10
10299.0
 20
7016.0
 30
0.0
 11
10470.0
 21
7014.0
 31
0.0
  0
LINE
  5
389
330
17
100
AcDbEntity
  8
WALLS
100
AcDbLine
 10
7421.0
 20
2862.0
 30
0.0
 11
7422.0
 21
2967.0
 31
0.0
  0
LINE
  5
38A
330
17
100
AcDbEntity
  8
WALLS
100
AcDbLine
 10
3185.0
 20
1336.0
 30
0.0
 11
3298.0
 21
1335.0
 31
0.0
  0
LINE
  5
38B
330
17
100
AcDbEntity
  8
WALLS
100
AcDbLine
 10
3504.0
 20
2263.0
 30
0.0
 11
3617.0
 21
2264.0
 31
0.0
  0
LINE
  5
38C
330
17
100
AcDbEntity
  8
WALLS
100
AcDbLine
 10
4337.0
 20
3810.0
 30
0.0
 11
4477.0
 21
3810.0
 31
0.0
  0
LINE
  5
38D
330
17
100
AcDbEntity
  8
WALLS
100
AcDbLine
 10
5945.0
 20
1385.0
 30
0.0
 11
6024.0
 21
1464.0
 31
0.0
  0
LINE
  5
38E
330
17
100
AcDbEntity
  8
WALLS
100
AcDbLine
 10
2693.0
 20
2263.0
 30
0.0
 11
2806.0
 21
2264.0
 31
0.0
  0
LINE
  5
38F
330
17
100
AcDbEntity
  8
WALLS
100
AcDbLine
 10
3393.0
 20
5734.0
 30
0.0
 11
3477.0
 21
5820.0
 31
0.0
  0
LINE
  5
390
330
17
100
AcDbEntity
  8
WALLS
100
AcDbLine
 10
3428.0
 20
5768.0
 30
0.0
 11
3512.0
 21
5855.0
 31
0.0
  0
LINE
  5
391
330
17
100
AcDbEntity
  8
WALLS
100
AcDbLine
 10
4435.0
 20
1577.0
 30
0.0
 11
4537.0
 21
1581.0
 31
0.0
  0
LINE
  5
392
330
17
100
AcDbEntity
  8
WALLS
100
AcDbLine
 10
6308.0
 20
561.0
 30
0.0
 11
6409.0
 21
560.0
 31
0.0
  0
LINE
  5
393
330
17
100
AcDbEntity
  8
WALLS
100
AcDbLine
 10
10254.0
 20
7016.0
 30
0.0
 11
10402.0
 21
7014.0
 31
0.0
  0
LINE
  5
394
330
17
100
AcDbEntity
  8
WALLS
100
AcDbLine
 10
5858.0
 20
2895.0
 30
0.0
 11
5954.0
 21
2991.0
 31
0.0
  0
LINE
  5
395
330
17
100
AcDbEntity
  8
WALLS
100
AcDbLine
 10
3054.0
 20
1323.0
 30
0.0
 11
3163.0
 21
1324.0
 31
0.0
  0
LINE
  5
396
330
17
100
AcDbEntity
  8
WALLS
100
AcDbLine
 10
8725.0
 20
651.0
 30
0.0
 11
8831.0
 21
656.0
 31
0.0
  0
LINE
  5
397
330
17
100
AcDbEntity
  8
WALLS
100
AcDbLine
 10
2976.0
 20
5320.0
 30
0.0
 11
3084.0
 21
5425.0
 31
0.0
  0
LINE
  5
398
330
17
100
AcDbEntity
  8
WALLS
100
AcDbLine
 10
5488.0
 20
4284.0
 30
0.0
 11
5595.0
 21
4391.0
 31
0.0
  0
LINE
  5
399
330
17
100
AcDbEntity
  8
WALLS
100
AcDbLine
 10
4901.0
 20
2595.0
 30
0.0
 11
4981.0
 21
2515.0
 31
0.0
  0
ENDSEC
  0
SECTION
  2
OBJECTS
  0
DICTIONARY
  5
A
330
0
100
AcDbDictionary
281
1
  3
ACAD_COLOR
350
B
  3
ACAD_GROUP
350
C
  3
ACAD_LAYOUT
350
D
  3
ACAD_MATERIAL
350
E
  3
ACAD_MLEADERSTYLE
350
F
  3
ACAD_MLINESTYLE
350
10
  3
ACAD_PLOTSETTINGS
350
11
  3
ACAD_PLOTSTYLENAME
350
12
  3
ACAD_SCALELIST
350
14
  3
ACAD_TABLESTYLE
350
15
  3
ACAD_VISUALSTYLE
350
16
  3
EZDXF_META
350
2D
  0
DICTIONARY
  5
B
330
A
100
AcDbDictionary
281
1
  0
DICTIONARY
  5
C
330
A
100
AcDbDictionary
281
1
  0
DICTIONARY
  5
D
330
A
100
AcDbDictionary
281
1
  3
Model
350
1A
  3
Layout1
350
1E
  0
DICTIONARY
  5
E
330
A
100
AcDbDictionary
281
1
  3
ByBlock
350
1F
  3
ByLayer
350
20
  3
Global
350
21
  0
DICTIONARY
  5
F
330
A
100
AcDbDictionary
281
1
  3
Standard
350
2C
  0
DICTIONARY
  5
10
330
A
100
AcDbDictionary
281
1
  3
Standard
350
22
  0
DICTIONARY
  5
11
330
A
100
AcDbDictionary
281
1
  0
ACDBDICTIONARYWDFLT
  5
12
330
A
100
AcDbDictionary
281
1
  3
Normal
350
13
100
AcDbDictionaryWithDefault
340
13
  0
ACDBPLACEHOLDER
  5
13
330
12
  0
DICTIONARY
  5
14
330
A
100
AcDbDictionary
281
1
  0
DICTIONARY
  5
15
330
A
100
AcDbDictionary
281
1
  0
DICTIONARY
  5
16
330
A
100
AcDbDictionary
281
1
  0
LAYOUT
  5
1A
330
D
100
AcDbPlotSettings
  1

  4
A3
  6

 40
7.5
 41
20.0
 42
7.5
 43
20.0
 44
420.0
 45
297.0
 46
0.0
 47
0.0
 48
0.0
 49
0.0
140
0.0
141
0.0
142
1.0
143
1.0
 70
1024
 72
1
 73
0
 74
5
  7

 75
16
 76
0
 77
2
 78
300
147
1.0
148
0.0
149
0.0
100
AcDbLayout
  1
Model
 70
1
 71
0
 10
0.0
 20
0.0
 11
420.0
 21
297.0
 12
0.0
 22
0.0
 32
0.0
 14
1e+20
 24
1e+20
 34
1e+20
 15
-1e+20
 25
-1e+20
 35
-1e+20
146
0.0
 13
0.0
 23
0.0
 33
0.0
 16
1.0
 26
0.0
 36
0.0
 17
0.0
 27
1.0
 37
0.0
 76
1
330
17
  0
LAYOUT
  5
1E
330
D
100
AcDbPlotSettings
  1

  4
A3
  6

 40
7.5
 41
20.0
 42
7.5
 43
20.0
 44
420.0
 45
297.0
 46
0.0
 47
0.0
 48
0.0
 49
0.0
140
0.0
141
0.0
142
1.0
143
1.0
 70
0
 72
1
 73
0
 74
5
  7

 75
16
 76
0
 77
2
 78
300
147
1.0
148
0.0
149
0.0
100
AcDbLayout
  1
Layout1
 70
1
 71
1
 10
0.0
 20
0.0
 11
420.0
 21
297.0
 12
0.0
 22
0.0
 32
0.0
 14
1e+20
 24
1e+20
 34
1e+20
 15
-1e+20
 25
-1e+20
 35
-1e+20
146
0.0
 13
0.0
 23
0.0
 33
0.0
 16
1.0
 26
0.0
 36
0.0
 17
0.0
 27
1.0
 37
0.0
 76
1
330
1B
  0
MATERIAL
  5
1F
102
{ACAD_REACTORS
330
E
102
}
330
E
100
AcDbMaterial
  1
ByBlock
  2

 70
0
 40
1.0
 71
1
 41
1.0
 91
-1023410177
 42
1.0
 72
1
  3

 73
1
 74
1
 75
1
 44
0.5
 73
0
 45
1.0
 46
1.0
 77
1
  4

 78
1
 79
1
170
1
 48
1.0
171
1
  6

172
1
173
1
174
1
140
1.0
141
1.0
175
1
  7

176
1
177
1
178
1
143
1.0
179
1
  8

270
1
271
1
272
1
145
1.0
146
1.0
273
1
  9

274
1
275
1
276
1
 42
1.0
 72
1
  3

 73
1
 74
1
 75
1
 94
63
  0
MATERIAL
  5
20
102
{ACAD_REACTORS
330
E
102
}
330
E
100
AcDbMaterial
  1
ByLayer
  2

 70
0
 40
1.0
 71
1
 41
1.0
 91
-1023410177
 42
1.0
 72
1
  3

 73
1
 74
1
 75
1
 44
0.5
 73
0
 45
1.0
 46
1.0
 77
1
  4

 78
1
 79
1
170
1
 48
1.0
171
1
  6

172
1
173
1
174
1
140
1.0
141
1.0
175
1
  7

176
1
177
1
178
1
143
1.0
179
1
  8

270
1
271
1
272
1
145
1.0
146
1.0
273
1
  9

274
1
275
1
276
1
 42
1.0
 72
1
  3

 73
1
 74
1
 75
1
 94
63
  0
MATERIAL
  5
21
102
{ACAD_REACTORS
330
E
102
}
330
E
100
AcDbMaterial
  1
Global
  2

 70
0
 40
1.0
 71
1
 41
1.0
 91
-1023410177
 42
1.0
 72
1
  3

 73
1
 74
1
 75
1
 44
0.5
 73
0
 45
1.0
 46
1.0
 77
1
  4

 78
1
 79
1
170
1
 48
1.0
171
1
  6

172
1
173
1
174
1
140
1.0
141
1.0
175
1
  7

176
1
177
1
178
1
143
1.0
179
1
  8

270
1
271
1
272
1
145
1.0
146
1.0
273
1
  9

274
1
275
1
276
1
 42
1.0
 72
1
  3

 73
1
 74
1
 75
1
 94
63
  0
MLINESTYLE
  5
22
102
{ACAD_REACTORS
330
10
102
}
330
10
100
AcDbMlineStyle
  2
Standard
 70
0
  3

 62
256
 51
90.0
 52
90.0
 71
2
 49
0.5
 62
256
  6
BYLAYER
 49
-0.5
 62
256
  6
BYLAYER
  0
MLEADERSTYLE
  5
2C
102
{ACAD_REACTORS
330
F
102
}
330
F
100
AcDbMLeaderStyle
179
2
170
2
171
1
172
0
 90
2
 40
0.0
 41
0.0
173
1
 91
-1056964608
 92
-2
290
1
 42
2.0
291
1
 43
8.0
  3
Standard
 44
4.0
300

342
29
174
1
175
1
176
0
178
1
 93
-1056964608
 45
4.0
292
0
297
0
 46
4.0
 94
-1056964608
 47
1.0
 49
1.0
140
1.0
294
1
141
0.0
177
0
142
1.0
295
0
296
0
143
3.75
271
0
272
9
273
9
  0
DICTIONARY
  5
2D
330
A
100
AcDbDictionary
280
1
281
1
  3
CREATED_BY_EZDXF
350
2E
  3
WRITTEN_BY_EZDXF
350
39C
  0
DICTIONARYVAR
  5
2E
330
2D
100
DictionaryVariables
280
0
  1
1.4.3 @ 2025-11-02T06:40:05.040505+00:00
  0
DICTIONARYVAR
  5
39C
330
2D
100
DictionaryVariables
280
0
  1
1.4.3 @ 2025-11-02T06:40:05.081587+00:00
  0
ENDSEC
  0
EOF
