0
SECTION
2
HEADER
9
$ACADVER
1
AC1009
9
$INSUNITS
70
1
0
ENDSEC
0
SECTION
2
TABLES
0
TABLE
2
LTYPE
70
1
0
LTYPE
2
CONTINUOUS
70
0
3
Solid line
72
65
73
0
40
0.0
0
ENDTAB
0
TABLE
2
LAYER
70
4
0
LAYER
2
0
70
0
62
7
6
CONTINUOUS
0
LAYER
2
WALLS-EXTERIOR
70
0
62
1
6
CONTINUOUS
0
LAYER
2
WALLS-INTERIOR
70
0
62
3
6
CONTINUOUS
0
LAYER
2
TEXT
70
0
62
7
6
CONTINUOUS
0
ENDTAB
0
TABLE
2
STYLE
70
1
0
STYLE
2
STANDARD
70
0
40
0.0
41
1.0
50
0.0
71
0
42
0.2
3
txt
4

0
ENDTAB
0
ENDSEC
0
SECTION
2
ENTITIES
0
TEXT
8
TEXT
10
300.0
20
700.0
30
0.0
40
24.0
1
728 CORDANT - FLOOR PLAN
50
0.0
7
STANDARD
0
LINE
8
WALLS-INTERIOR
10
100.0
20
100.0
30
0.0
11
252.0
21
100.0
31
0.0
0
LINE
8
WALLS-INTERIOR
10
252.0
20
100.0
30
0.0
11
252.0
21
236.0
31
0.0
0
LINE
8
WALLS-INTERIOR
10
252.0
20
236.0
30
0.0
11
100.0
21
236.0
31
0.0
0
LINE
8
WALLS-INTERIOR
10
100.0
20
236.0
30
0.0
11
100.0
21
100.0
31
0.0
0
TEXT
8
TEXT
10
176.0
20
168.0
30
0.0
40
12.0
1
OFFICE
50
0.0
7
STANDARD
0
TEXT
8
TEXT
10
176.0
20
150.0
30
0.0
40
8.0
1
12-8 x 11-4
50
0.0
7
STANDARD
0
LINE
8
WALLS-INTERIOR
10
100.0
20
250.0
30
0.0
11
272.0
21
250.0
31
0.0
0
LINE
8
WALLS-INTERIOR
10
272.0
20
250.0
30
0.0
11
272.0
21
378.0
31
0.0
0
LINE
8
WALLS-INTERIOR
10
272.0
20
378.0
30
0.0
11
100.0
21
378.0
31
0.0
0
LINE
8
WALLS-INTERIOR
10
100.0
20
378.0
30
0.0
11
100.0
21
250.0
31
0.0
0
TEXT
8
TEXT
10
186.0
20
314.0
30
0.0
40
12.0
1
BEDROOM 2
50
0.0
7
STANDARD
0
LINE
8
WALLS-EXTERIOR
10
290.0
20
300.0
30
0.0
11
580.0
21
300.0
31
0.0
0
LINE
8
WALLS-EXTERIOR
10
580.0
20
300.0
30
0.0
11
580.0
21
536.0
31
0.0
0
LINE
8
WALLS-EXTERIOR
10
580.0
20
536.0
30
0.0
11
290.0
21
536.0
31
0.0
0
LINE
8
WALLS-EXTERIOR
10
290.0
20
536.0
30
0.0
11
290.0
21
300.0
31
0.0
0
TEXT
8
TEXT
10
435.0
20
418.0
30
0.0
40
14.0
1
GREAT ROOM
50
0.0
7
STANDARD
0
TEXT
8
TEXT
10
435.0
20
395.0
30
0.0
40
10.0
1
VAULTED
50
0.0
7
STANDARD
0
LINE
8
WALLS-INTERIOR
10
595.0
20
300.0
30
0.0
11
769.0
21
300.0
31
0.0
0
LINE
8
WALLS-INTERIOR
10
769.0
20
300.0
30
0.0
11
769.0
21
508.0
31
0.0
0
LINE
8
WALLS-INTERIOR
10
769.0
20
508.0
30
0.0
11
595.0
21
508.0
31
0.0
0
LINE
8
WALLS-INTERIOR
10
595.0
20
508.0
30
0.0
11
595.0
21
300.0
31
0.0
0
TEXT
8
TEXT
10
682.0
20
404.0
30
0.0
40
12.0
1
KITCHEN
50
0.0
7
STANDARD
0
LINE
8
WALLS-EXTERIOR
10
800.0
20
200.0
30
0.0
11
986.0
21
200.0
31
0.0
0
LINE
8
WALLS-EXTERIOR
10
986.0
20
200.0
30
0.0
11
986.0
21
376.0
31
0.0
0
LINE
8
WALLS-EXTERIOR
10
986.0
20
376.0
30
0.0
11
800.0
21
376.0
31
0.0
0
LINE
8
WALLS-EXTERIOR
10
800.0
20
376.0
30
0.0
11
800.0
21
200.0
31
0.0
0
TEXT
8
TEXT
10
893.0
20
288.0
30
0.0
40
12.0
1
MASTER BR
50
0.0
7
STANDARD
0
TEXT
8
TEXT
10
100.0
20
50.0
30
0.0
40
10.0
1
RED = Exterior Walls (2x6)
50
0.0
7
STANDARD
0
TEXT
8
TEXT
10
100.0
20
30.0
30
0.0
40
10.0
1
GREEN = Interior Walls (2x4)
50
0.0
7
STANDARD
0
ENDSEC
0
EOF


