<?xml version='1.0' encoding='utf-8'?>
<svg width="1000" height="800" xmlns="http://www.w3.org/2000/svg" style="background:#0a0e27">
  <line x1="35.999999999999964" y1="777.6" x2="964.0" y2="777.6" stroke="#fb923c" stroke-width="2" />
  <circle cx="38.39999999999996" cy="777.6" r="2.4000000000000004" fill="#fbbf24" stroke="#000000" stroke-width="1" />
  <circle cx="89.59999999999997" cy="777.6" r="2.4000000000000004" fill="#fbbf24" stroke="#000000" stroke-width="1" />
  <circle cx="140.79999999999998" cy="777.6" r="2.4000000000000004" fill="#fbbf24" stroke="#000000" stroke-width="1" />
  <circle cx="191.99999999999997" cy="777.6" r="2.4000000000000004" fill="#fbbf24" stroke="#000000" stroke-width="1" />
  <circle cx="243.2" cy="777.6" r="2.4000000000000004" fill="#fbbf24" stroke="#000000" stroke-width="1" />
  <circle cx="294.4" cy="777.6" r="2.4000000000000004" fill="#fbbf24" stroke="#000000" stroke-width="1" />
  <circle cx="345.59999999999997" cy="777.6" r="2.4000000000000004" fill="#fbbf24" stroke="#000000" stroke-width="1" />
  <circle cx="396.79999999999995" cy="777.6" r="2.4000000000000004" fill="#fbbf24" stroke="#000000" stroke-width="1" />
  <circle cx="447.99999999999994" cy="777.6" r="2.4000000000000004" fill="#fbbf24" stroke="#000000" stroke-width="1" />
  <circle cx="499.2" cy="777.6" r="2.4000000000000004" fill="#fbbf24" stroke="#000000" stroke-width="1" />
  <circle cx="550.4" cy="777.6" r="2.4000000000000004" fill="#fbbf24" stroke="#000000" stroke-width="1" />
  <circle cx="601.6" cy="777.6" r="2.4000000000000004" fill="#fbbf24" stroke="#000000" stroke-width="1" />
  <circle cx="652.8000000000001" cy="777.6" r="2.4000000000000004" fill="#fbbf24" stroke="#000000" stroke-width="1" />
  <circle cx="704.0" cy="777.6" r="2.4000000000000004" fill="#fbbf24" stroke="#000000" stroke-width="1" />
  <circle cx="755.2" cy="777.6" r="2.4000000000000004" fill="#fbbf24" stroke="#000000" stroke-width="1" />
  <circle cx="806.4000000000001" cy="777.6" r="2.4000000000000004" fill="#fbbf24" stroke="#000000" stroke-width="1" />
  <circle cx="857.6" cy="777.6" r="2.4000000000000004" fill="#fbbf24" stroke="#000000" stroke-width="1" />
  <circle cx="908.8000000000001" cy="777.6" r="2.4000000000000004" fill="#fbbf24" stroke="#000000" stroke-width="1" />
  <circle cx="960.0" cy="777.6" r="2.4000000000000004" fill="#fbbf24" stroke="#000000" stroke-width="1" />
  <circle cx="961.6" cy="777.6" r="2.4000000000000004" fill="#fbbf24" stroke="#000000" stroke-width="1" />
  <line x1="35.999999999999964" y1="768.0" x2="964.0" y2="768.0" stroke="#ef4444" stroke-width="2" />
  <line x1="35.999999999999964" y1="764.832" x2="964.0" y2="764.832" stroke="#ef4444" stroke-width="2" />
  <circle cx="35.999999999999964" cy="777.6" r="1.0" fill="#ef4444" stroke="#000000" stroke-width="1" />
  <circle cx="266.4" cy="777.6" r="1.0" fill="#ef4444" stroke="#000000" stroke-width="1" />
  <circle cx="496.79999999999995" cy="777.6" r="1.0" fill="#ef4444" stroke="#000000" stroke-width="1" />
  <circle cx="727.2" cy="777.6" r="1.0" fill="#ef4444" stroke="#000000" stroke-width="1" />
  <circle cx="957.6" cy="777.6" r="1.0" fill="#ef4444" stroke="#000000" stroke-width="1" />
  <line x1="964.0" y1="777.6" x2="964.0" y2="22.399999999999977" stroke="#fb923c" stroke-width="2" />
  <circle cx="964.0" cy="775.2" r="2.4000000000000004" fill="#fbbf24" stroke="#000000" stroke-width="1" />
  <circle cx="964.0" cy="724.0" r="2.4000000000000004" fill="#fbbf24" stroke="#000000" stroke-width="1" />
  <circle cx="964.0" cy="672.8" r="2.4000000000000004" fill="#fbbf24" stroke="#000000" stroke-width="1" />
  <circle cx="964.0" cy="621.6" r="2.4000000000000004" fill="#fbbf24" stroke="#000000" stroke-width="1" />
  <circle cx="964.0" cy="570.4" r="2.4000000000000004" fill="#fbbf24" stroke="#000000" stroke-width="1" />
  <circle cx="964.0" cy="519.2" r="2.4000000000000004" fill="#fbbf24" stroke="#000000" stroke-width="1" />
  <circle cx="964.0" cy="468.0" r="2.4000000000000004" fill="#fbbf24" stroke="#000000" stroke-width="1" />
  <circle cx="964.0" cy="416.8" r="2.4000000000000004" fill="#fbbf24" stroke="#000000" stroke-width="1" />
  <circle cx="964.0" cy="365.6" r="2.4000000000000004" fill="#fbbf24" stroke="#000000" stroke-width="1" />
  <circle cx="964.0" cy="314.4" r="2.4000000000000004" fill="#fbbf24" stroke="#000000" stroke-width="1" />
  <circle cx="964.0" cy="263.20000000000005" r="2.4000000000000004" fill="#fbbf24" stroke="#000000" stroke-width="1" />
  <circle cx="964.0" cy="212.0" r="2.4000000000000004" fill="#fbbf24" stroke="#000000" stroke-width="1" />
  <circle cx="964.0" cy="160.79999999999995" r="2.4000000000000004" fill="#fbbf24" stroke="#000000" stroke-width="1" />
  <circle cx="964.0" cy="109.60000000000002" r="2.4000000000000004" fill="#fbbf24" stroke="#000000" stroke-width="1" />
  <circle cx="964.0" cy="58.39999999999998" r="2.4000000000000004" fill="#fbbf24" stroke="#000000" stroke-width="1" />
  <circle cx="964.0" cy="24.799999999999955" r="2.4000000000000004" fill="#fbbf24" stroke="#000000" stroke-width="1" />
  <line x1="954.4000000000001" y1="777.6" x2="954.4000000000001" y2="22.399999999999977" stroke="#ef4444" stroke-width="2" />
  <line x1="951.232" y1="777.6" x2="951.232" y2="22.399999999999977" stroke="#ef4444" stroke-width="2" />
  <circle cx="964.0" cy="777.6" r="1.0" fill="#ef4444" stroke="#000000" stroke-width="1" />
  <circle cx="964.0" cy="547.2" r="1.0" fill="#ef4444" stroke="#000000" stroke-width="1" />
  <circle cx="964.0" cy="316.8" r="1.0" fill="#ef4444" stroke="#000000" stroke-width="1" />
  <circle cx="964.0" cy="86.39999999999998" r="1.0" fill="#ef4444" stroke="#000000" stroke-width="1" />
  <line x1="964.0" y1="22.399999999999977" x2="35.999999999999964" y2="22.399999999999977" stroke="#fb923c" stroke-width="2" />
  <circle cx="961.6" cy="22.399999999999977" r="2.4000000000000004" fill="#fbbf24" stroke="#000000" stroke-width="1" />
  <circle cx="910.4000000000001" cy="22.399999999999977" r="2.4000000000000004" fill="#fbbf24" stroke="#000000" stroke-width="1" />
  <circle cx="859.2" cy="22.399999999999977" r="2.4000000000000004" fill="#fbbf24" stroke="#000000" stroke-width="1" />
  <circle cx="808.0" cy="22.399999999999977" r="2.4000000000000004" fill="#fbbf24" stroke="#000000" stroke-width="1" />
  <circle cx="756.8000000000001" cy="22.399999999999977" r="2.4000000000000004" fill="#fbbf24" stroke="#000000" stroke-width="1" />
  <circle cx="705.6" cy="22.399999999999977" r="2.4000000000000004" fill="#fbbf24" stroke="#000000" stroke-width="1" />
  <circle cx="654.4000000000001" cy="22.399999999999977" r="2.4000000000000004" fill="#fbbf24" stroke="#000000" stroke-width="1" />
  <circle cx="603.2" cy="22.399999999999977" r="2.4000000000000004" fill="#fbbf24" stroke="#000000" stroke-width="1" />
  <circle cx="552.0" cy="22.399999999999977" r="2.4000000000000004" fill="#fbbf24" stroke="#000000" stroke-width="1" />
  <circle cx="500.79999999999995" cy="22.399999999999977" r="2.4000000000000004" fill="#fbbf24" stroke="#000000" stroke-width="1" />
  <circle cx="449.59999999999997" cy="22.399999999999977" r="2.4000000000000004" fill="#fbbf24" stroke="#000000" stroke-width="1" />
  <circle cx="398.4" cy="22.399999999999977" r="2.4000000000000004" fill="#fbbf24" stroke="#000000" stroke-width="1" />
  <circle cx="347.2" cy="22.399999999999977" r="2.4000000000000004" fill="#fbbf24" stroke="#000000" stroke-width="1" />
  <circle cx="295.99999999999994" cy="22.399999999999977" r="2.4000000000000004" fill="#fbbf24" stroke="#000000" stroke-width="1" />
  <circle cx="244.79999999999998" cy="22.399999999999977" r="2.4000000000000004" fill="#fbbf24" stroke="#000000" stroke-width="1" />
  <circle cx="193.6" cy="22.399999999999977" r="2.4000000000000004" fill="#fbbf24" stroke="#000000" stroke-width="1" />
  <circle cx="142.39999999999998" cy="22.399999999999977" r="2.4000000000000004" fill="#fbbf24" stroke="#000000" stroke-width="1" />
  <circle cx="91.19999999999996" cy="22.399999999999977" r="2.4000000000000004" fill="#fbbf24" stroke="#000000" stroke-width="1" />
  <circle cx="39.999999999999964" cy="22.399999999999977" r="2.4000000000000004" fill="#fbbf24" stroke="#000000" stroke-width="1" />
  <circle cx="38.39999999999996" cy="22.399999999999977" r="2.4000000000000004" fill="#fbbf24" stroke="#000000" stroke-width="1" />
  <line x1="964.0" y1="32.0" x2="35.999999999999964" y2="32.0" stroke="#ef4444" stroke-width="2" />
  <line x1="964.0" y1="35.168000000000006" x2="35.999999999999964" y2="35.168000000000006" stroke="#ef4444" stroke-width="2" />
  <circle cx="964.0" cy="22.399999999999977" r="1.0" fill="#ef4444" stroke="#000000" stroke-width="1" />
  <circle cx="733.6" cy="22.399999999999977" r="1.0" fill="#ef4444" stroke="#000000" stroke-width="1" />
  <circle cx="503.2" cy="22.399999999999977" r="1.0" fill="#ef4444" stroke="#000000" stroke-width="1" />
  <circle cx="272.79999999999995" cy="22.399999999999977" r="1.0" fill="#ef4444" stroke="#000000" stroke-width="1" />
  <circle cx="42.39999999999996" cy="22.399999999999977" r="1.0" fill="#ef4444" stroke="#000000" stroke-width="1" />
  <line x1="35.999999999999964" y1="22.399999999999977" x2="35.999999999999964" y2="777.6" stroke="#fb923c" stroke-width="2" />
  <circle cx="35.999999999999964" cy="24.799999999999955" r="2.4000000000000004" fill="#fbbf24" stroke="#000000" stroke-width="1" />
  <circle cx="35.999999999999964" cy="76.0" r="2.4000000000000004" fill="#fbbf24" stroke="#000000" stroke-width="1" />
  <circle cx="35.999999999999964" cy="127.19999999999993" r="2.4000000000000004" fill="#fbbf24" stroke="#000000" stroke-width="1" />
  <circle cx="35.999999999999964" cy="178.39999999999998" r="2.4000000000000004" fill="#fbbf24" stroke="#000000" stroke-width="1" />
  <circle cx="35.999999999999964" cy="229.60000000000002" r="2.4000000000000004" fill="#fbbf24" stroke="#000000" stroke-width="1" />
  <circle cx="35.999999999999964" cy="280.79999999999995" r="2.4000000000000004" fill="#fbbf24" stroke="#000000" stroke-width="1" />
  <circle cx="35.999999999999964" cy="332.0" r="2.4000000000000004" fill="#fbbf24" stroke="#000000" stroke-width="1" />
  <circle cx="35.999999999999964" cy="383.2" r="2.4000000000000004" fill="#fbbf24" stroke="#000000" stroke-width="1" />
  <circle cx="35.999999999999964" cy="434.4" r="2.4000000000000004" fill="#fbbf24" stroke="#000000" stroke-width="1" />
  <circle cx="35.999999999999964" cy="485.6" r="2.4000000000000004" fill="#fbbf24" stroke="#000000" stroke-width="1" />
  <circle cx="35.999999999999964" cy="536.8" r="2.4000000000000004" fill="#fbbf24" stroke="#000000" stroke-width="1" />
  <circle cx="35.999999999999964" cy="588.0" r="2.4000000000000004" fill="#fbbf24" stroke="#000000" stroke-width="1" />
  <circle cx="35.999999999999964" cy="639.2" r="2.4000000000000004" fill="#fbbf24" stroke="#000000" stroke-width="1" />
  <circle cx="35.999999999999964" cy="690.4" r="2.4000000000000004" fill="#fbbf24" stroke="#000000" stroke-width="1" />
  <circle cx="35.999999999999964" cy="741.6" r="2.4000000000000004" fill="#fbbf24" stroke="#000000" stroke-width="1" />
  <circle cx="35.999999999999964" cy="775.2" r="2.4000000000000004" fill="#fbbf24" stroke="#000000" stroke-width="1" />
  <line x1="45.599999999999966" y1="22.399999999999977" x2="45.599999999999966" y2="777.6" stroke="#ef4444" stroke-width="2" />
  <line x1="48.767999999999965" y1="22.399999999999977" x2="48.767999999999965" y2="777.6" stroke="#ef4444" stroke-width="2" />
  <circle cx="35.999999999999964" cy="22.399999999999977" r="1.0" fill="#ef4444" stroke="#000000" stroke-width="1" />
  <circle cx="35.999999999999964" cy="252.79999999999995" r="1.0" fill="#ef4444" stroke="#000000" stroke-width="1" />
  <circle cx="35.999999999999964" cy="483.2" r="1.0" fill="#ef4444" stroke="#000000" stroke-width="1" />
  <circle cx="35.999999999999964" cy="713.6" r="1.0" fill="#ef4444" stroke="#000000" stroke-width="1" />
</svg>