<?xml version='1.0' encoding='utf-8'?>
<svg width="1000" height="800" xmlns="http://www.w3.org/2000/svg" style="background:#0a0e27">
  <line x1="101.80281690140846" y1="776.7887323943661" x2="898.1971830985915" y2="776.7887323943661" stroke="#fb923c" stroke-width="2" />
  <circle cx="105.01408450704227" cy="776.7887323943661" r="3.2112676056338025" fill="#fbbf24" stroke="#000000" stroke-width="1" />
  <circle cx="173.5211267605634" cy="776.7887323943661" r="3.2112676056338025" fill="#fbbf24" stroke="#000000" stroke-width="1" />
  <circle cx="242.02816901408448" cy="776.7887323943661" r="3.2112676056338025" fill="#fbbf24" stroke="#000000" stroke-width="1" />
  <circle cx="310.53521126760563" cy="776.7887323943661" r="3.2112676056338025" fill="#fbbf24" stroke="#000000" stroke-width="1" />
  <circle cx="379.0422535211267" cy="776.7887323943661" r="3.2112676056338025" fill="#fbbf24" stroke="#000000" stroke-width="1" />
  <circle cx="447.5492957746479" cy="776.7887323943661" r="3.2112676056338025" fill="#fbbf24" stroke="#000000" stroke-width="1" />
  <circle cx="516.056338028169" cy="776.7887323943661" r="3.2112676056338025" fill="#fbbf24" stroke="#000000" stroke-width="1" />
  <circle cx="584.5633802816901" cy="776.7887323943661" r="3.2112676056338025" fill="#fbbf24" stroke="#000000" stroke-width="1" />
  <circle cx="653.0704225352113" cy="776.7887323943661" r="3.2112676056338025" fill="#fbbf24" stroke="#000000" stroke-width="1" />
  <circle cx="721.5774647887324" cy="776.7887323943661" r="3.2112676056338025" fill="#fbbf24" stroke="#000000" stroke-width="1" />
  <circle cx="790.0845070422536" cy="776.7887323943661" r="3.2112676056338025" fill="#fbbf24" stroke="#000000" stroke-width="1" />
  <circle cx="858.5915492957746" cy="776.7887323943661" r="3.2112676056338025" fill="#fbbf24" stroke="#000000" stroke-width="1" />
  <circle cx="894.9859154929577" cy="776.7887323943661" r="3.2112676056338025" fill="#fbbf24" stroke="#000000" stroke-width="1" />
  <line x1="101.80281690140846" y1="763.9436619718309" x2="898.1971830985915" y2="763.9436619718309" stroke="#ef4444" stroke-width="2" />
  <line x1="101.80281690140846" y1="759.7047887323943" x2="898.1971830985915" y2="759.7047887323943" stroke="#ef4444" stroke-width="2" />
  <circle cx="101.80281690140846" cy="776.7887323943661" r="1.3380281690140845" fill="#ef4444" stroke="#000000" stroke-width="1" />
  <circle cx="410.0845070422535" cy="776.7887323943661" r="1.3380281690140845" fill="#ef4444" stroke="#000000" stroke-width="1" />
  <circle cx="718.3661971830986" cy="776.7887323943661" r="1.3380281690140845" fill="#ef4444" stroke="#000000" stroke-width="1" />
  <line x1="898.1971830985915" y1="776.7887323943661" x2="898.1971830985915" y2="23.211267605633793" stroke="#fb923c" stroke-width="2" />
  <circle cx="898.1971830985915" cy="773.5774647887323" r="3.2112676056338025" fill="#fbbf24" stroke="#000000" stroke-width="1" />
  <circle cx="898.1971830985915" cy="705.0704225352113" r="3.2112676056338025" fill="#fbbf24" stroke="#000000" stroke-width="1" />
  <circle cx="898.1971830985915" cy="636.5633802816901" r="3.2112676056338025" fill="#fbbf24" stroke="#000000" stroke-width="1" />
  <circle cx="898.1971830985915" cy="568.056338028169" r="3.2112676056338025" fill="#fbbf24" stroke="#000000" stroke-width="1" />
  <circle cx="898.1971830985915" cy="499.5492957746479" r="3.2112676056338025" fill="#fbbf24" stroke="#000000" stroke-width="1" />
  <circle cx="898.1971830985915" cy="431.0422535211267" r="3.2112676056338025" fill="#fbbf24" stroke="#000000" stroke-width="1" />
  <circle cx="898.1971830985915" cy="362.53521126760563" r="3.2112676056338025" fill="#fbbf24" stroke="#000000" stroke-width="1" />
  <circle cx="898.1971830985915" cy="294.0281690140845" r="3.2112676056338025" fill="#fbbf24" stroke="#000000" stroke-width="1" />
  <circle cx="898.1971830985915" cy="225.52112676056333" r="3.2112676056338025" fill="#fbbf24" stroke="#000000" stroke-width="1" />
  <circle cx="898.1971830985915" cy="157.01408450704218" r="3.2112676056338025" fill="#fbbf24" stroke="#000000" stroke-width="1" />
  <circle cx="898.1971830985915" cy="88.50704225352104" r="3.2112676056338025" fill="#fbbf24" stroke="#000000" stroke-width="1" />
  <circle cx="898.1971830985915" cy="26.422535211267586" r="3.2112676056338025" fill="#fbbf24" stroke="#000000" stroke-width="1" />
  <line x1="885.3521126760563" y1="776.7887323943661" x2="885.3521126760563" y2="23.211267605633793" stroke="#ef4444" stroke-width="2" />
  <line x1="881.1132394366197" y1="776.7887323943661" x2="881.1132394366197" y2="23.211267605633793" stroke="#ef4444" stroke-width="2" />
  <circle cx="898.1971830985915" cy="776.7887323943661" r="1.3380281690140845" fill="#ef4444" stroke="#000000" stroke-width="1" />
  <circle cx="898.1971830985915" cy="468.5070422535211" r="1.3380281690140845" fill="#ef4444" stroke="#000000" stroke-width="1" />
  <circle cx="898.1971830985915" cy="160.22535211267598" r="1.3380281690140845" fill="#ef4444" stroke="#000000" stroke-width="1" />
  <line x1="898.1971830985915" y1="23.211267605633793" x2="101.80281690140846" y2="23.211267605633793" stroke="#fb923c" stroke-width="2" />
  <circle cx="894.9859154929577" cy="23.211267605633793" r="3.2112676056338025" fill="#fbbf24" stroke="#000000" stroke-width="1" />
  <circle cx="826.4788732394367" cy="23.211267605633793" r="3.2112676056338025" fill="#fbbf24" stroke="#000000" stroke-width="1" />
  <circle cx="757.9718309859155" cy="23.211267605633793" r="3.2112676056338025" fill="#fbbf24" stroke="#000000" stroke-width="1" />
  <circle cx="689.4647887323944" cy="23.211267605633793" r="3.2112676056338025" fill="#fbbf24" stroke="#000000" stroke-width="1" />
  <circle cx="620.9577464788732" cy="23.211267605633793" r="3.2112676056338025" fill="#fbbf24" stroke="#000000" stroke-width="1" />
  <circle cx="552.4507042253521" cy="23.211267605633793" r="3.2112676056338025" fill="#fbbf24" stroke="#000000" stroke-width="1" />
  <circle cx="483.943661971831" cy="23.211267605633793" r="3.2112676056338025" fill="#fbbf24" stroke="#000000" stroke-width="1" />
  <circle cx="415.4366197183098" cy="23.211267605633793" r="3.2112676056338025" fill="#fbbf24" stroke="#000000" stroke-width="1" />
  <circle cx="346.92957746478874" cy="23.211267605633793" r="3.2112676056338025" fill="#fbbf24" stroke="#000000" stroke-width="1" />
  <circle cx="278.4225352112676" cy="23.211267605633793" r="3.2112676056338025" fill="#fbbf24" stroke="#000000" stroke-width="1" />
  <circle cx="209.9154929577465" cy="23.211267605633793" r="3.2112676056338025" fill="#fbbf24" stroke="#000000" stroke-width="1" />
  <circle cx="141.40845070422534" cy="23.211267605633793" r="3.2112676056338025" fill="#fbbf24" stroke="#000000" stroke-width="1" />
  <circle cx="105.01408450704227" cy="23.211267605633793" r="3.2112676056338025" fill="#fbbf24" stroke="#000000" stroke-width="1" />
  <line x1="898.1971830985915" y1="36.056338028168966" x2="101.80281690140846" y2="36.056338028168966" stroke="#ef4444" stroke-width="2" />
  <line x1="898.1971830985915" y1="40.29521126760562" x2="101.80281690140846" y2="40.29521126760562" stroke="#ef4444" stroke-width="2" />
  <circle cx="898.1971830985915" cy="23.211267605633793" r="1.3380281690140845" fill="#ef4444" stroke="#000000" stroke-width="1" />
  <circle cx="589.9154929577464" cy="23.211267605633793" r="1.3380281690140845" fill="#ef4444" stroke="#000000" stroke-width="1" />
  <circle cx="281.6338028169014" cy="23.211267605633793" r="1.3380281690140845" fill="#ef4444" stroke="#000000" stroke-width="1" />
  <line x1="101.80281690140846" y1="23.211267605633793" x2="101.80281690140846" y2="776.7887323943661" stroke="#fb923c" stroke-width="2" />
  <circle cx="101.80281690140846" cy="26.422535211267586" r="3.2112676056338025" fill="#fbbf24" stroke="#000000" stroke-width="1" />
  <circle cx="101.80281690140846" cy="94.92957746478874" r="3.2112676056338025" fill="#fbbf24" stroke="#000000" stroke-width="1" />
  <circle cx="101.80281690140846" cy="163.43661971830977" r="3.2112676056338025" fill="#fbbf24" stroke="#000000" stroke-width="1" />
  <circle cx="101.80281690140846" cy="231.94366197183092" r="3.2112676056338025" fill="#fbbf24" stroke="#000000" stroke-width="1" />
  <circle cx="101.80281690140846" cy="300.4507042253521" r="3.2112676056338025" fill="#fbbf24" stroke="#000000" stroke-width="1" />
  <circle cx="101.80281690140846" cy="368.9577464788732" r="3.2112676056338025" fill="#fbbf24" stroke="#000000" stroke-width="1" />
  <circle cx="101.80281690140846" cy="437.46478873239437" r="3.2112676056338025" fill="#fbbf24" stroke="#000000" stroke-width="1" />
  <circle cx="101.80281690140846" cy="505.97183098591546" r="3.2112676056338025" fill="#fbbf24" stroke="#000000" stroke-width="1" />
  <circle cx="101.80281690140846" cy="574.4788732394366" r="3.2112676056338025" fill="#fbbf24" stroke="#000000" stroke-width="1" />
  <circle cx="101.80281690140846" cy="642.9859154929577" r="3.2112676056338025" fill="#fbbf24" stroke="#000000" stroke-width="1" />
  <circle cx="101.80281690140846" cy="711.4929577464789" r="3.2112676056338025" fill="#fbbf24" stroke="#000000" stroke-width="1" />
  <circle cx="101.80281690140846" cy="773.5774647887323" r="3.2112676056338025" fill="#fbbf24" stroke="#000000" stroke-width="1" />
  <line x1="114.64788732394368" y1="23.211267605633793" x2="114.64788732394368" y2="776.7887323943661" stroke="#ef4444" stroke-width="2" />
  <line x1="118.88676056338029" y1="23.211267605633793" x2="118.88676056338029" y2="776.7887323943661" stroke="#ef4444" stroke-width="2" />
  <circle cx="101.80281690140846" cy="23.211267605633793" r="1.3380281690140845" fill="#ef4444" stroke="#000000" stroke-width="1" />
  <circle cx="101.80281690140846" cy="331.49295774647885" r="1.3380281690140845" fill="#ef4444" stroke="#000000" stroke-width="1" />
  <circle cx="101.80281690140846" cy="639.7746478873239" r="1.3380281690140845" fill="#ef4444" stroke="#000000" stroke-width="1" />
</svg>