<?xml version='1.0' encoding='utf-8'?>
<svg width="1000" height="800" xmlns="http://www.w3.org/2000/svg" style="background:#0a0e27">
  <line x1="79.9272727272727" y1="775.8545454545455" x2="920.0727272727272" y2="775.8545454545455" stroke="#fb923c" stroke-width="2" />
  <circle cx="84.07272727272724" cy="775.8545454545455" r="4.1454545454545455" fill="#fbbf24" stroke="#000000" stroke-width="1" />
  <circle cx="172.50909090909087" cy="775.8545454545455" r="4.1454545454545455" fill="#fbbf24" stroke="#000000" stroke-width="1" />
  <circle cx="260.94545454545454" cy="775.8545454545455" r="4.1454545454545455" fill="#fbbf24" stroke="#000000" stroke-width="1" />
  <circle cx="349.3818181818181" cy="775.8545454545455" r="4.1454545454545455" fill="#fbbf24" stroke="#000000" stroke-width="1" />
  <circle cx="437.81818181818176" cy="775.8545454545455" r="4.1454545454545455" fill="#fbbf24" stroke="#000000" stroke-width="1" />
  <circle cx="526.2545454545455" cy="775.8545454545455" r="4.1454545454545455" fill="#fbbf24" stroke="#000000" stroke-width="1" />
  <circle cx="614.690909090909" cy="775.8545454545455" r="4.1454545454545455" fill="#fbbf24" stroke="#000000" stroke-width="1" />
  <circle cx="703.1272727272727" cy="775.8545454545455" r="4.1454545454545455" fill="#fbbf24" stroke="#000000" stroke-width="1" />
  <circle cx="791.5636363636363" cy="775.8545454545455" r="4.1454545454545455" fill="#fbbf24" stroke="#000000" stroke-width="1" />
  <circle cx="880.0" cy="775.8545454545455" r="4.1454545454545455" fill="#fbbf24" stroke="#000000" stroke-width="1" />
  <circle cx="915.9272727272727" cy="775.8545454545455" r="4.1454545454545455" fill="#fbbf24" stroke="#000000" stroke-width="1" />
  <line x1="79.9272727272727" y1="759.2727272727273" x2="920.0727272727272" y2="759.2727272727273" stroke="#ef4444" stroke-width="2" />
  <line x1="79.9272727272727" y1="753.8007272727273" x2="920.0727272727272" y2="753.8007272727273" stroke="#ef4444" stroke-width="2" />
  <circle cx="79.9272727272727" cy="775.8545454545455" r="1.7272727272727273" fill="#ef4444" stroke="#000000" stroke-width="1" />
  <circle cx="477.8909090909091" cy="775.8545454545455" r="1.7272727272727273" fill="#ef4444" stroke="#000000" stroke-width="1" />
  <circle cx="875.8545454545455" cy="775.8545454545455" r="1.7272727272727273" fill="#ef4444" stroke="#000000" stroke-width="1" />
  <line x1="920.0727272727272" y1="775.8545454545455" x2="920.0727272727272" y2="24.145454545454527" stroke="#fb923c" stroke-width="2" />
  <circle cx="920.0727272727272" cy="771.709090909091" r="4.1454545454545455" fill="#fbbf24" stroke="#000000" stroke-width="1" />
  <circle cx="920.0727272727272" cy="683.2727272727273" r="4.1454545454545455" fill="#fbbf24" stroke="#000000" stroke-width="1" />
  <circle cx="920.0727272727272" cy="594.8363636363636" r="4.1454545454545455" fill="#fbbf24" stroke="#000000" stroke-width="1" />
  <circle cx="920.0727272727272" cy="506.40000000000003" r="4.1454545454545455" fill="#fbbf24" stroke="#000000" stroke-width="1" />
  <circle cx="920.0727272727272" cy="417.9636363636364" r="4.1454545454545455" fill="#fbbf24" stroke="#000000" stroke-width="1" />
  <circle cx="920.0727272727272" cy="329.52727272727276" r="4.1454545454545455" fill="#fbbf24" stroke="#000000" stroke-width="1" />
  <circle cx="920.0727272727272" cy="241.09090909090912" r="4.1454545454545455" fill="#fbbf24" stroke="#000000" stroke-width="1" />
  <circle cx="920.0727272727272" cy="152.65454545454543" r="4.1454545454545455" fill="#fbbf24" stroke="#000000" stroke-width="1" />
  <circle cx="920.0727272727272" cy="64.21818181818185" r="4.1454545454545455" fill="#fbbf24" stroke="#000000" stroke-width="1" />
  <circle cx="920.0727272727272" cy="28.290909090909054" r="4.1454545454545455" fill="#fbbf24" stroke="#000000" stroke-width="1" />
  <line x1="903.4909090909091" y1="775.8545454545455" x2="903.4909090909091" y2="24.145454545454527" stroke="#ef4444" stroke-width="2" />
  <line x1="898.018909090909" y1="775.8545454545455" x2="898.018909090909" y2="24.145454545454527" stroke="#ef4444" stroke-width="2" />
  <circle cx="920.0727272727272" cy="775.8545454545455" r="1.7272727272727273" fill="#ef4444" stroke="#000000" stroke-width="1" />
  <circle cx="920.0727272727272" cy="377.8909090909091" r="1.7272727272727273" fill="#ef4444" stroke="#000000" stroke-width="1" />
  <line x1="920.0727272727272" y1="24.145454545454527" x2="79.9272727272727" y2="24.145454545454527" stroke="#fb923c" stroke-width="2" />
  <circle cx="915.9272727272727" cy="24.145454545454527" r="4.1454545454545455" fill="#fbbf24" stroke="#000000" stroke-width="1" />
  <circle cx="827.4909090909091" cy="24.145454545454527" r="4.1454545454545455" fill="#fbbf24" stroke="#000000" stroke-width="1" />
  <circle cx="739.0545454545454" cy="24.145454545454527" r="4.1454545454545455" fill="#fbbf24" stroke="#000000" stroke-width="1" />
  <circle cx="650.6181818181818" cy="24.145454545454527" r="4.1454545454545455" fill="#fbbf24" stroke="#000000" stroke-width="1" />
  <circle cx="562.1818181818181" cy="24.145454545454527" r="4.1454545454545455" fill="#fbbf24" stroke="#000000" stroke-width="1" />
  <circle cx="473.7454545454545" cy="24.145454545454527" r="4.1454545454545455" fill="#fbbf24" stroke="#000000" stroke-width="1" />
  <circle cx="385.30909090909086" cy="24.145454545454527" r="4.1454545454545455" fill="#fbbf24" stroke="#000000" stroke-width="1" />
  <circle cx="296.8727272727272" cy="24.145454545454527" r="4.1454545454545455" fill="#fbbf24" stroke="#000000" stroke-width="1" />
  <circle cx="208.43636363636358" cy="24.145454545454527" r="4.1454545454545455" fill="#fbbf24" stroke="#000000" stroke-width="1" />
  <circle cx="119.99999999999997" cy="24.145454545454527" r="4.1454545454545455" fill="#fbbf24" stroke="#000000" stroke-width="1" />
  <circle cx="84.07272727272724" cy="24.145454545454527" r="4.1454545454545455" fill="#fbbf24" stroke="#000000" stroke-width="1" />
  <line x1="920.0727272727272" y1="40.72727272727275" x2="79.9272727272727" y2="40.72727272727275" stroke="#ef4444" stroke-width="2" />
  <line x1="920.0727272727272" y1="46.19927272727284" x2="79.9272727272727" y2="46.19927272727284" stroke="#ef4444" stroke-width="2" />
  <circle cx="920.0727272727272" cy="24.145454545454527" r="1.7272727272727273" fill="#ef4444" stroke="#000000" stroke-width="1" />
  <circle cx="522.1090909090909" cy="24.145454545454527" r="1.7272727272727273" fill="#ef4444" stroke="#000000" stroke-width="1" />
  <circle cx="124.14545454545451" cy="24.145454545454527" r="1.7272727272727273" fill="#ef4444" stroke="#000000" stroke-width="1" />
  <line x1="79.9272727272727" y1="24.145454545454527" x2="79.9272727272727" y2="775.8545454545455" stroke="#fb923c" stroke-width="2" />
  <circle cx="79.9272727272727" cy="28.290909090909054" r="4.1454545454545455" fill="#fbbf24" stroke="#000000" stroke-width="1" />
  <circle cx="79.9272727272727" cy="116.72727272727275" r="4.1454545454545455" fill="#fbbf24" stroke="#000000" stroke-width="1" />
  <circle cx="79.9272727272727" cy="205.16363636363633" r="4.1454545454545455" fill="#fbbf24" stroke="#000000" stroke-width="1" />
  <circle cx="79.9272727272727" cy="293.6" r="4.1454545454545455" fill="#fbbf24" stroke="#000000" stroke-width="1" />
  <circle cx="79.9272727272727" cy="382.03636363636366" r="4.1454545454545455" fill="#fbbf24" stroke="#000000" stroke-width="1" />
  <circle cx="79.9272727272727" cy="470.4727272727273" r="4.1454545454545455" fill="#fbbf24" stroke="#000000" stroke-width="1" />
  <circle cx="79.9272727272727" cy="558.9090909090909" r="4.1454545454545455" fill="#fbbf24" stroke="#000000" stroke-width="1" />
  <circle cx="79.9272727272727" cy="647.3454545454546" r="4.1454545454545455" fill="#fbbf24" stroke="#000000" stroke-width="1" />
  <circle cx="79.9272727272727" cy="735.7818181818182" r="4.1454545454545455" fill="#fbbf24" stroke="#000000" stroke-width="1" />
  <circle cx="79.9272727272727" cy="771.709090909091" r="4.1454545454545455" fill="#fbbf24" stroke="#000000" stroke-width="1" />
  <line x1="96.50909090909087" y1="24.145454545454527" x2="96.50909090909087" y2="775.8545454545455" stroke="#ef4444" stroke-width="2" />
  <line x1="101.98109090909088" y1="24.145454545454527" x2="101.98109090909088" y2="775.8545454545455" stroke="#ef4444" stroke-width="2" />
  <circle cx="79.9272727272727" cy="24.145454545454527" r="1.7272727272727273" fill="#ef4444" stroke="#000000" stroke-width="1" />
  <circle cx="79.9272727272727" cy="422.1090909090909" r="1.7272727272727273" fill="#ef4444" stroke="#000000" stroke-width="1" />
</svg>